<?xml version="1.0" standalone="no"?><!DOCTYPE svg PUBLIC "-//W3C//DTD SVG 1.1//EN" "http://www.w3.org/Graphics/SVG/1.1/DTD/svg11.dtd"><svg t="1569135081054" class="icon" viewBox="0 0 1272 1024" version="1.1" xmlns="http://www.w3.org/2000/svg" p-id="1997" xmlns:xlink="http://www.w3.org/1999/xlink" width="149.0625" height="120"><defs><style type="text/css"></style></defs><path d="M1272.242424 200.269576v-73.541818h-41.363394V896.775758c-191.705212 30.595879-366.778182 58.33697-540.175515 86.016 0.248242 0.620606 19.983515 40.96 33.078303 41.208242l489.161697-0.124121c21.410909-1.117091 56.754424-58.026667 59.174788-91.632485V200.238545H1272.242424zM854.946909 33.574788c-124.928 22.217697-193.877333 81.795879-188.043636 227.452121l0.124121 674.443636c241.601939-91.384242 494.654061-72.021333 494.654061-72.021333l-0.372364-66.56s0.372364-516.220121 0.372364-796.64097c-111.957333 11.481212-210.540606 16.35297-306.734546 33.326546zM61.315879 1023.751758l486.772363 0.124121c13.218909-0.372364 32.954182-41.208242 32.954182-41.332364-173.428364-27.585939-346.049939-55.296-537.786182-86.016V126.851879H0V929.978182c1.024 33.202424 39.563636 92.780606 61.315879 93.773576z m547.684848-88.405334l0.155152-674.412606c5.988848-145.687273-63.239758-205.265455-188.043637-227.452121C324.918303 16.446061 226.459152 11.729455 114.377697 0c0 280.296727 0.372364 796.547879 0.372364 796.547879l-0.496485 66.528969c0.124121 0.248242 253.176242-19.114667 494.778182 72.300607z m81.702788 47.507394v-0.310303 0.310303z" p-id="1998" fill="#757575"></path></svg>