<?xml version="1.0" standalone="no"?><!DOCTYPE svg PUBLIC "-//W3C//DTD SVG 1.1//EN" "http://www.w3.org/Graphics/SVG/1.1/DTD/svg11.dtd"><svg t="1565851754144" class="icon" viewBox="0 0 1024 1024" version="1.1" xmlns="http://www.w3.org/2000/svg" p-id="6452" xmlns:xlink="http://www.w3.org/1999/xlink" width="256" height="256"><defs><style type="text/css"></style></defs><path d="M549.1043476879597 882.7843079775573h-74.26415433883668c-29.826392233371735 0-54.09193134605885-24.286869594454767-54.0919306218624-54.136725068092346v-66.80062354803086a262.0810487061738 262.0810487061738 0 0 1-20.92092261314392-8.658036321401596l-47.20432283878326 47.20645632147789c-10.264220729470251 10.227958765625953-23.853860959410664 15.846403607726097-38.29458770155907 15.846403607726097-14.453524741530423 0-28.041032212972645-5.626977324485779-38.26259197890759-15.844270849227906l-52.46868269741536-52.46868269741536c-21.044638538360594-21.12142870724201-21.044638538360594-55.44001649022102-0.02559599876403808-76.53158223330975l47.244851043820375-47.244851043820375a265.09717694520947 265.09717694520947 0 0 1-8.67083504498005-20.950784853100775H195.34495134949685C165.51642635762687 603.2016112923623 141.2508872449398 578.9339386969805 141.2508872449398 549.1075471878052v-74.26202085614204c0-29.826392233371735 24.26553911268711-54.094064104557035 54.094064104557035-54.09406482875348h66.78569279015062a259.3528819710017 259.3528819710017 0 0 1 8.660169079899788-20.974248093366626L223.59502213895325 352.58355508744717c-21.044638538360594-21.119295224547386-21.044638538360594-55.44001649022102-0.027729481458663937-76.53371499180794L276.0594385951758 223.55769343376159c10.221559765934945-10.219427007436751 23.81119999587536-15.848537090420722 38.26472473740578-15.848537090420722 14.442859500646593 0 28.034632489085197 5.620578324794769 38.268990978598595 15.82294036746025l47.22138780355453 47.25551700890064a268.7468199133873 268.7468199133873 0 0 1 20.929454371333126-8.668701562285424V195.305489885807C420.7439964860678 165.47909837663173 445.00953559875484 141.21142578125 474.8359278321266 141.21142578125h74.26415361464024c29.826392233371735 0 54.094064104557035 24.26553911268711 54.094064104557035 54.094064104557035v66.80062354803086a262.906537771225 262.906537771225 0 0 1 20.916656371951106 8.662302562594412l47.20858907997608-47.21072256267071c10.309014451503755-10.238624006509779 23.898655405640604-15.848537090420722 38.31805094182492-15.848537090420722 14.436459776759149 0 28.02396724820137 5.620578324794769 38.26045849621296 15.82294036746025l52.49001317918301 52.49001317918301c21.070235261321066 21.070235261321066 21.080900502204894 55.40375525057316 0.02773020565509796 76.53371571600437l-47.29391173124313 47.25764976739883a264.3911382883787 264.3911382883787 0 0 1 8.685766527056693 20.93372061252594h66.70250289738179c29.82425875067711 0 54.15165655016898 24.242075872421267 54.22631323635578 54.04073790013791v74.31747981905937c0 29.826392233371735-24.26767259538174 54.094064104557035-54.094064104557035 54.094064104557035h-66.80702254772187a256.1255823969841 256.1255823969841 0 0 1-8.67296780347824 20.97638157606125l47.22352056205273 47.189392080903055c21.051037538051606 21.12142870724201 21.051037538051606 55.44001649022102 0.034128481149673456 76.53584847450256l-52.492145937681194 52.492146661877634c-10.264220729470251 10.227958765625953-23.851728200912476 15.846403607726097-38.283922460675235 15.846403607726097-14.419395536184311 0-28.009036490321158-5.609913083910943-38.26259125471115-15.79307740330696l-47.2491172850132-47.2832464903593a260.54738822579384 260.54738822579384 0 0 1-20.929454371333126 8.681500285863876v66.80062354803086c-0.004266241192817688 29.851988232135778-24.271938112378123 54.138858550786985-54.09833034574986 54.138857826590524z m-157.28019868433478-181.92541950345037l13.999185624718665 7.6085771977901455a219.34759093523027 219.34759093523027 0 0 0 42.31751337647438 17.51444670259953l15.266215083003042 4.526324754953385v98.13934578001498c0 6.32874974012375 5.127844485640526 11.475791224837302 11.430997502803802 11.475791224837302h74.26415361464024c6.305285775661467 0 11.433130261301995-5.1470414847135535 11.433130261301995-11.475791224837302v-98.1500110208988l15.281146565079688-4.519925755262374a217.38092181980613 217.38092181980613 0 0 0 42.28125213682651-17.54217618405819l14.014116382598877-7.634173920750617 69.37947691082954 69.43280311524866a11.526984670758246 11.526984670758246 0 0 0 8.143972724676132 3.3446172237396237 11.475791224837302 11.475791224837302 0 0 0 8.143972000479698-3.376612946391106l52.438820457458505-52.44095321595669c4.445269069075584-4.462334033846856 4.447402551770211-11.763752728700638-0.02559672296047211-16.25168276131153l-69.41360539197922-69.36454542875289 7.6576371610164635-14.020516106486323a213.38359286785126 213.38359286785126 0 0 0 17.471785739064217-42.25352193117142l4.49219627380371-15.332340011000635h98.23533294796943a11.443795502185822 11.443795502185822 0 0 0 11.433130261301995-11.433130261301995v-74.26202085614204c-0.017064240574836728-6.27968977689743-5.202501171827316-11.433130261301995-11.565379393100741-11.433130261301995h-98.10308381617071l-4.49219627380371-15.332339286804203c-4.163707289099694-14.210356959700587-10.065847393870353-28.46977460682392-17.54217618405819-42.38150482177735l-7.51045727133751-13.973588901758193 69.36667818725108-69.31335270702839c4.447402551770211-4.464466792345048 4.460200551152228-11.755220246315004-0.00639899969100952-16.219687038660048L717.7494189471006 253.7232398927212a11.441662743687628 11.441662743687628 0 0 0-8.11837600171566-3.353148981928825c-3.077986201643944 0-5.993861031532287 1.2094377368688585-8.203697204589842 3.404342427849769l-69.30055470764637 69.30268674194812-13.99278590083122-7.5808477163314825a219.9811063885689 219.9811063885689 0 0 0-42.32604585886002-17.52084570229054l-15.281146565079688-4.519925755262374V195.305489885807a11.443795502185822 11.443795502185822 0 0 0-11.433130261301995-11.433130261301995h-74.26415433883668a11.443795502185822 11.443795502185822 0 0 0-11.43099677860737 11.433130261301995v98.13934578001498l-15.266215083003042 4.526324754953385c-14.466322740912437 4.289556697010994-28.747070145606994 10.195963042974471-42.44336350858212 17.55710766613484l-13.973588901758193 7.51045727133751-69.26429274380207-69.32188446521761a11.458726984262466 11.458726984262466 0 0 0-8.124774277210237-3.346749982237816 11.392602780461312 11.392602780461312 0 0 0-8.101311761140824 3.353148981928825L253.76270135641096 306.18978983163834c-4.447402551770211 4.462334033846856-4.447402551770211 11.765885487198831 0.02773020565509796 16.25381551980972l69.36881166994573 69.36881166994573-7.657637885212897 14.016249865293501c-7.199032527208328 13.177962800860406-13.081975632905962 27.41178300082683-17.48245097994804 42.29831637740135l-4.517792996764182 15.283279323577883H195.34495134949685a11.443795502185822 11.443795502185822 0 0 0-11.433130261301995 11.433130261301995v74.26202085614204a11.443795502185822 11.443795502185822 0 0 0 11.433130261301995 11.433130261301995h98.15427726209165l4.517792996764182 15.285412806272507a221.4977026283741 221.4977026283741 0 0 0 17.53151094317436 42.387903821468356l7.555250993371008 13.984254142642023-69.34108218848706 69.34108218848706c-4.447402551770211 4.462334033846856-4.445269069075584 11.763752728700638 0.02773020565509796 16.25168276131153l52.438819733262065 52.438820457458505a11.375537815690041 11.375537815690041 0 0 0 8.099178278446196 3.351016223430634c3.0715872019529344 0 5.970397791266441-1.200905254483223 8.154637241363524-3.376612946391106l69.34108218848706-69.34321494698524z m119.9732121437788-27.763735949993134c-88.79446780085564 0-161.03436057865622-72.27828750014307-161.03436057865622-161.11968250572684 0-88.82006452381611 72.23989277780058-161.07915430068968 161.03436057865622-161.07915430068968 88.86912448704243 0 161.16874246895316 72.2590897768736 161.16874246895316 161.07915430068968 0.02346324026584625 43.02781827449798-16.729485118389128 83.49171394407749-47.17232784032822 113.92602418363096-30.44070923924446 30.434310239553447-70.92593611478806 47.19365832209587-113.99641462862489 47.19365832209587z m0-279.5357702046632c-65.27336206734181 0-118.37342673540118 53.121395149827-118.37342673540118 118.41822045743466 0 65.31815578937531 53.102197426557545 118.45874866247178 118.37342673540118 118.45874866247178 31.67787645757198 0 61.45094248652458-12.322610771656036 83.83513441085815-34.702536454796785 22.37566016614437-22.371393924951555 34.68973845541477-52.114596989750865 34.672673490643504-83.74554696679115-0.0021327584981918335-65.30749054849147-53.161922630667675-118.42888569831847-118.50780790150165-118.42888569831847z" p-id="6453" fill="#ffffff"></path></svg>