<?xml version="1.0" standalone="no"?><!DOCTYPE svg PUBLIC "-//W3C//DTD SVG 1.1//EN" "http://www.w3.org/Graphics/SVG/1.1/DTD/svg11.dtd"><svg t="1567847088713" class="icon" viewBox="0 0 1024 1024" version="1.1" xmlns="http://www.w3.org/2000/svg" p-id="16814" xmlns:xlink="http://www.w3.org/1999/xlink" width="256" height="256"><defs><style type="text/css"></style></defs><path d="M1023.914667 333.568l-6.826667-119.594667-0.554667-9.216-8.661333 3.072-2.986667 1.109334-0.170666-2.133334-8.704 3.2-286.208 100.992L806.954667 17.493333l2.858666-8.874666-9.386666-0.170667-3.285334-0.128 1.365334-4.608-9.301334-0.256L668.629333 0h-0.768l-0.768 0.128a91.733333 91.733333 0 0 0-11.989333 2.986667L654.08 2.901333l-0.810667-0.085333L652.8 2.986667c-46.805333 8.533333-82.432 38.570667-97.621333 82.432l-0.085334 0.384-0.042666 0.512-68.266667 305.578666-196.096 69.077334a153.258667 153.258667 0 0 0-247.466667-41.6 150.826667 150.826667 0 0 0 2.986667 214.186666 153.173333 153.173333 0 0 0 215.466667-2.986666c7.936-8.106667 15.146667-17.322667 21.333333-27.648l165.930667-42.112-42.197334 188.842666a150.826667 150.826667 0 0 0-17.450666 231.594667 153.344 153.344 0 0 0 215.466666-2.986667 150.826667 150.826667 0 0 0-2.986666-214.186666 148.693333 148.693333 0 0 0-42.197334-28.885334l72.149334-220.842666 310.186666-78.848 0.597334-0.128 0.64-0.213334C990.634667 414.08 1016.32 382.293333 1024 335.274667l0.085333-0.725334-0.170666-0.981333z m-824.32 236.928a66.090667 66.090667 0 0 1-92.928 1.28 65.024 65.024 0 0 1-1.322667-92.330667 66.218667 66.218667 0 0 1 92.970667-1.322666 65.28 65.28 0 0 1 1.28 92.373333z m343.168 347.605333a66.090667 66.090667 0 0 1-92.928 1.28 65.109333 65.109333 0 0 1-1.28-92.416 66.133333 66.133333 0 0 1 92.885333-1.322666 65.28 65.28 0 0 1 1.28 92.458666z" p-id="16815" fill="#ffffff"></path></svg>