<?xml version="1.0" standalone="no"?><!DOCTYPE svg PUBLIC "-//W3C//DTD SVG 1.1//EN" "http://www.w3.org/Graphics/SVG/1.1/DTD/svg11.dtd"><svg t="1567844728241" class="icon" viewBox="0 0 1024 1024" version="1.1" xmlns="http://www.w3.org/2000/svg" p-id="4004" xmlns:xlink="http://www.w3.org/1999/xlink" width="256" height="256"><defs><style type="text/css"></style></defs><path d="M457 850c-105 0-203.7-40.9-277.9-115.1C104.9 660.7 64 562 64 457s40.9-203.6 115.1-277.9c74.2-74.2 172.9-115 277.9-115 105 0 203.7 40.9 277.9 115.1C809.1 253.4 850 352.1 850 457s-40.9 203.6-115.1 277.9C660.6 809.1 562 850 457 850z m0-684.1c-77.8 0-150.9 30.3-205.8 85.3-55 55-85.3 128.1-85.3 205.8s30.3 150.9 85.3 205.8c55 55 128.1 85.3 205.8 85.3 77.8 0 150.9-30.3 205.8-85.3s85.3-128.1 85.3-205.8-30.3-150.9-85.3-205.8-128.1-85.3-205.8-85.3zM901.8 959.9c-15.5 0-30.2-6.1-41.2-17L708.4 790.7l82.2-82.2L943 860.9c11 11 17 25.5 17 41s-6 30.1-17 41c-11 11-25.7 17-41.2 17z" p-id="4005" fill="#ffffff"></path><path d="M613 503H329.2c-26.1 0-47.3-21.4-47.3-47.5s21.2-47.5 47.3-47.5H613c26.1 0 47.3 21.4 47.3 47.5S639.1 503 613 503z" p-id="4006" fill="#ffffff"></path></svg>