<?xml version="1.0" standalone="no"?><!DOCTYPE svg PUBLIC "-//W3C//DTD SVG 1.1//EN" "http://www.w3.org/Graphics/SVG/1.1/DTD/svg11.dtd"><svg t="1567845537266" class="icon" viewBox="0 0 1024 1024" version="1.1" xmlns="http://www.w3.org/2000/svg" p-id="9609" xmlns:xlink="http://www.w3.org/1999/xlink" width="256" height="256"><defs><style type="text/css"></style></defs><path d="M453.42186 122.515335l0.001023 0 0 0.027629c212.483392 0 385.342322 169.189354 390.536624 379.743814l117.445876 0-175.863357 194.755636-175.834704-194.755636 136.53156 0c-5.16565-156.794046-134.254703-282.365996-292.815999-282.365996-161.915693 0-293.103548 130.762159-293.103548 292.106848 0 161.361061 131.160225 292.107871 293.103548 292.107871 64.86431 0 124.830053-21.077038 173.383886-56.648185l67.228147 71.40426c-66.294892 51.717895-149.806911 82.59309-240.613056 82.59309-215.836767 0-390.827243-174.378539-390.827243-389.484665C62.651922 296.891827 237.642398 122.515335 453.42186 122.515335z" p-id="9610" fill="#ffffff"></path></svg>