<?xml version="1.0" standalone="no"?><!DOCTYPE svg PUBLIC "-//W3C//DTD SVG 1.1//EN" "http://www.w3.org/Graphics/SVG/1.1/DTD/svg11.dtd"><svg t="1567844649016" class="icon" viewBox="0 0 1024 1024" version="1.1" xmlns="http://www.w3.org/2000/svg" p-id="3207" xmlns:xlink="http://www.w3.org/1999/xlink" width="256" height="256"><defs><style type="text/css"></style></defs><path d="M946.24 881.728l-155.2-155.2a405.632 405.632 0 0 0 89.408-254.464 407.808 407.808 0 1 0-407.68 407.744 405.376 405.376 0 0 0 255.104-89.984l155.072 155.072a45.248 45.248 0 0 0 64.192 0.896 45.376 45.376 0 0 0-0.896-64z m-791.744-409.6a318.208 318.208 0 1 1 636.544 0 318.208 318.208 0 0 1-636.608 0h0.064z" fill="#ffffff" p-id="3208"></path><path d="M620.16 432.896H512V324.8a39.872 39.872 0 0 0-39.296-40.32 39.872 39.872 0 0 0-39.232 40.32v108.16h-108.16a39.936 39.936 0 0 0-40.32 39.296c0 21.76 18.112 39.232 40.32 39.232h108.16v108.16c0 22.208 17.6 40.384 39.232 40.384A39.936 39.936 0 0 0 512 619.584v-108.16h108.16a39.936 39.936 0 0 0 40.32-39.232 39.872 39.872 0 0 0-40.32-39.296z" fill="#ffffff" p-id="3209"></path></svg>