<?xml version="1.0" standalone="no"?><!DOCTYPE svg PUBLIC "-//W3C//DTD SVG 1.1//EN" "http://www.w3.org/Graphics/SVG/1.1/DTD/svg11.dtd"><svg t="1568009034904" class="icon" viewBox="0 0 1024 1024" version="1.1" xmlns="http://www.w3.org/2000/svg" p-id="2599" xmlns:xlink="http://www.w3.org/1999/xlink" width="256" height="256"><defs><style type="text/css"></style></defs><path d="M503.2 269.24800000000005l209.60000000000005 211.19999999999993-480 1.4210854715202004e-13c-17.6 3.552713678800501e-15-31.999999999999993 14.400000000000006-31.999999999999986 32.00000000000001 3.552713678800501e-15 17.6 14.400000000000006 31.999999999999993 32.00000000000001 31.999999999999986l480-1.4210854715202004e-13-211.18399999999994 211.20000000000005c-12.815999999999999 12.800000000000006-12.81599999999999 32 1.4210854715202004e-14 44.8 12.800000000000004 12.799999999999995 32 12.79999999999999 44.8-1.4210854715202004e-14l267.1999999999999-265.60000000000014c12.799999999999999-12.816000000000006 12.79999999999999-32-1.4210854715202004e-14-44.8l-264.00000000000006-265.5999999999999c-11.200000000000003-11.199999999999994-28.815999999999995-14.399999999999991-41.616-4.799999999999983C490.3999999999998 230.86400000000003 488.7999999999999 254.86399999999998 503.2 269.24800000000005z" p-id="2600" fill="#ffffff"></path></svg>