<?xml version="1.0" standalone="no"?><!DOCTYPE svg PUBLIC "-//W3C//DTD SVG 1.1//EN" "http://www.w3.org/Graphics/SVG/1.1/DTD/svg11.dtd"><svg t="1568009074063" class="icon" viewBox="0 0 1024 1024" version="1.1" xmlns="http://www.w3.org/2000/svg" p-id="2949" xmlns:xlink="http://www.w3.org/1999/xlink" width="256" height="256"><defs><style type="text/css"></style></defs><path d="M754.752 503.19999999999993l-211.1999999999999 209.60000000000008-2.5579538487363607e-13-480c-3.552713678800501e-15-17.6-14.400000000000007-31.99999999999999-32.000000000000014-31.99999999999998-17.6 3.552713678800501e-15-31.99999999999999 14.400000000000007-31.99999999999998 32.000000000000014l2.5579538487363607e-13 480-211.20000000000007-211.1839999999999c-12.800000000000008-12.815999999999997-32-12.815999999999983-44.8 2.1316282072803006e-14-12.799999999999994 12.800000000000006-12.799999999999985 32 2.1316282072803006e-14 44.8l265.6000000000002 267.1999999999998c12.816000000000008 12.799999999999997 32 12.799999999999985 44.8-2.1316282072803006e-14l265.59999999999985-264.0000000000001c11.199999999999992-11.200000000000005 14.399999999999984-28.816 4.799999999999972-41.616C793.136 490.39999999999975 769.136 488.79999999999984 754.752 503.19999999999993z" p-id="2950" fill="#ffffff"></path></svg>