<?xml version="1.0" standalone="no"?><!DOCTYPE svg PUBLIC "-//W3C//DTD SVG 1.1//EN" "http://www.w3.org/Graphics/SVG/1.1/DTD/svg11.dtd"><svg t="1568009056436" class="icon" viewBox="0 0 1024 1024" version="1.1" xmlns="http://www.w3.org/2000/svg" p-id="2774" xmlns:xlink="http://www.w3.org/1999/xlink" width="256" height="256"><defs><style type="text/css"></style></defs><path d="M269.24800000000005 520.8l211.19999999999996-209.60000000000002 8.526512829121202e-14 480c3.552713678800501e-15 17.6 14.400000000000002 31.999999999999993 32 31.99999999999999 17.6-3.552713678800501e-15 31.999999999999993-14.400000000000002 31.99999999999999-32l-8.526512829121202e-14-480 211.20000000000002 211.18399999999997c12.800000000000002 12.815999999999999 32 12.815999999999995 44.8-7.105427357601002e-15 12.799999999999997-12.800000000000002 12.799999999999997-32-7.105427357601002e-15-44.8l-265.6000000000001-267.19999999999993c-12.816000000000004-12.8-32-12.799999999999997-44.8 7.105427357601002e-15l-265.59999999999997 264c-11.199999999999996 11.200000000000001-14.399999999999997 28.816-4.799999999999994 41.616C230.86400000000003 533.6000000000001 254.86399999999998 535.2 269.24800000000005 520.8z" p-id="2775" fill="#ffffff"></path></svg>