<?xml version="1.0" standalone="no"?><!DOCTYPE svg PUBLIC "-//W3C//DTD SVG 1.1//EN" "http://www.w3.org/Graphics/SVG/1.1/DTD/svg11.dtd"><svg t="1568009677186" class="icon" viewBox="0 0 1194 1024" version="1.1" xmlns="http://www.w3.org/2000/svg" p-id="8583" xmlns:xlink="http://www.w3.org/1999/xlink" width="298.5" height="256"><defs><style type="text/css"></style></defs><path d="M796.928 783.36a346.026667 346.026667 0 0 1-203.776 62.805333c-9.642667-0.170667-19.114667-0.853333-28.501333-1.621333-3.84-0.341333-7.68-1.024-11.52-1.536a285.44 285.44 0 0 1-22.016-3.413333c-4.437333-0.768-8.874667-1.962667-13.141334-2.986667a315.818667 315.818667 0 0 1-21.077333-5.12l-9.728-3.584a264.192 264.192 0 0 1-23.637333-8.533333c-1.706667-0.853333-3.413333-1.450667-5.12-2.133334a610.474667 610.474667 0 0 1-26.538667-12.8c-0.341333-0.341333-0.853333-0.426667-1.109333-0.682666a347.050667 347.050667 0 0 1-79.189334-59.392l-1.194666-1.28a290.304 290.304 0 0 1-24.746667-28.074667 346.112 346.112 0 0 1-76.202667-216.661333h91.562667L194.56 278.613333 48.042667 498.346667h91.477333c0 96.256 30.122667 185.514667 81.066667 259.413333 0.597333 1.109333 1.024 2.304 1.706666 3.242667 5.290667 7.68 11.178667 14.506667 16.810667 21.589333 2.218667 2.56 4.010667 5.205333 6.314667 8.106667a512.768 512.768 0 0 0 28.757333 31.488c30.72 30.72 65.28 56.490667 102.997333 77.226666l2.986667 1.706667c10.922667 5.802667 22.016 11.178667 33.28 16.128l8.362667 3.669333a726.442667 726.442667 0 0 0 43.861333 15.786667c8.874667 2.474667 17.749333 4.778667 26.709333 6.741333 5.973333 1.450667 11.776 2.986667 17.92 4.096 2.56 0.597333 4.864 1.365333 7.338667 1.621334 8.533333 1.536 17.066667 2.304 25.6 3.413333 3.072 0.512 6.144 1.024 9.130667 1.365333a454.314667 454.314667 0 0 0 307.456-80.64 54.954667 54.954667 0 0 0-62.890667-89.941333z m257.962667-285.013333c0-96-29.696-185.173333-80.469334-258.730667-0.768-1.28-1.194667-2.56-1.877333-3.669333a560.469333 560.469333 0 0 0-20.138667-26.026667 32.426667 32.426667 0 0 1-2.304-3.072A457.642667 457.642667 0 0 0 779.178667 78.506667L773.632 76.117333a550.144 550.144 0 0 0-32.426667-11.946666L729.6 60.501333A459.264 459.264 0 0 0 700.928 52.906667C695.466667 51.797333 690.090667 50.346667 684.714667 49.237333c-2.730667-0.426667-5.12-1.194667-7.936-1.706666-7.253333-1.28-14.336-1.962667-21.589334-2.816-5.12-0.512-9.898667-1.28-15.018666-1.877334A473.941333 473.941333 0 0 0 603.818667 40.96c-2.218667 0-4.352-0.256-6.570667-0.256l-1.194667 0.085333c-92.842667 0.085333-183.466667 28.16-261.290666 82.688a54.869333 54.869333 0 1 0 63.146666 89.941334 344.917333 344.917333 0 0 1 232.618667-61.098667c3.072 0.170667 6.058667 0.682667 9.216 1.109333 8.277333 1.024 16.469333 2.133333 24.576 3.84 3.413333 0.597333 7.082667 1.536 10.410667 2.389334 8.106667 1.706667 15.872 3.584 23.637333 5.973333 2.56 0.682667 4.864 1.536 7.253333 2.56 8.96 2.816 17.664 5.888 26.112 9.386667 0.938667 0.341333 1.792 1.024 2.645334 1.28a349.184 349.184 0 0 1 131.84 99.072c49.322667 60.074667 79.018667 136.789333 79.018666 220.416h-91.648l146.773334 219.818666 146.261333-219.818666h-91.733333z" fill="#ffffff" p-id="8584"></path></svg>