<?xml version="1.0" standalone="no"?><!DOCTYPE svg PUBLIC "-//W3C//DTD SVG 1.1//EN" "http://www.w3.org/Graphics/SVG/1.1/DTD/svg11.dtd"><svg t="1575728162410" class="icon" viewBox="0 0 1024 1024" version="1.1" xmlns="http://www.w3.org/2000/svg" p-id="6010" xmlns:xlink="http://www.w3.org/1999/xlink" width="220" height="220"><defs><style type="text/css"></style></defs><path d="M408 524.8c-22.4 0-38.4 8-49.6 25.6h-1.6c0-22.4 4.8-41.6 16-56 11.2-14.4 25.6-20.8 43.2-20.8 14.4 0 27.2 3.2 40 9.6v-41.6c-9.6-4.8-24-6.4-41.6-6.4-33.6 0-59.2 12.8-78.4 36.8-19.2 25.6-27.2 57.6-27.2 97.6 0 33.6 6.4 60.8 20.8 80 14.4 19.2 35.2 28.8 62.4 28.8 24 0 43.2-8 57.6-24 14.4-16 22.4-35.2 22.4-59.2 0-22.4-6.4-40-17.6-52.8-9.6-11.2-25.6-17.6-46.4-17.6z m20.8 105.6c-6.4 8-14.4 11.2-24 11.2s-17.6-4.8-24-12.8c-6.4-8-9.6-19.2-9.6-30.4s3.2-19.2 9.6-27.2c6.4-6.4 14.4-11.2 24-11.2 22.4 0 32 12.8 32 40 0 12.8-3.2 22.4-8 30.4z" fill="#17B1ED" p-id="6011"></path><path d="M512 0C228.8 0 0 228.8 0 512s228.8 512 512 512 512-228.8 512-512S795.2 0 512 0z m83.2 280c0-22.4 17.6-40 40-40s40 17.6 40 40V304c0 22.4-17.6 40-40 40s-40-17.6-40-40v-24z m-238.4 0c0-22.4 17.6-40 40-40s40 17.6 40 40V304c0 22.4-17.6 40-40 40s-40-17.6-40-40v-24z m448 475.2c0 25.6-20.8 46.4-46.4 46.4H270.4c-25.6 0-46.4-20.8-46.4-46.4V337.6c0-25.6 20.8-46.4 46.4-46.4h75.2v24c0 22.4 17.6 40 40 40h24c22.4 0 40-17.6 40-40v-24h132.8v24c0 22.4 17.6 40 40 40h24c22.4 0 40-17.6 40-40v-24h70.4c25.6 0 46.4 20.8 46.4 46.4v417.6z" fill="#17B1ED" p-id="6012"></path><path d="M683.2 540.8c-11.2 0-28.8 0-40 9.6V480h-38.4v195.2h38.4v-75.2c0-9.6 1.6-16 6.4-22.4 4.8-6.4 11.2-8 17.6-8 14.4 0 22.4 9.6 22.4 30.4v75.2h38.4v-81.6c0-35.2-16-52.8-44.8-52.8zM545.6 480l-43.2 12.8v33.6h-24v32h24v70.4c0 33.6 16 49.6 48 49.6 12.8 0 24-1.6 30.4-4.8v-32c-4.8 3.2-9.6 4.8-14.4 4.8-12.8 0-19.2-8-19.2-24v-64h33.6v-32h-33.6V480z" fill="#17B1ED" p-id="6013"></path></svg>