<?xml version="1.0" standalone="no"?><!DOCTYPE svg PUBLIC "-//W3C//DTD SVG 1.1//EN" "http://www.w3.org/Graphics/SVG/1.1/DTD/svg11.dtd"><svg t="1565591191140" class="icon" viewBox="0 0 1024 1024" version="1.1" xmlns="http://www.w3.org/2000/svg" p-id="12251" xmlns:xlink="http://www.w3.org/1999/xlink" width="256" height="256"><defs><style type="text/css"></style></defs><path d="M761.429333 451.669333V141.568C761.429333 79.530667 710.656 28.842667 648.533333 28.842667H141.312C79.274667 28.842667 28.501333 79.530667 28.501333 141.568v676.522667c0 62.037333 50.773333 112.725333 112.810667 112.725333h501.76c-79.018667-39.424-135.338667-129.706667-135.338667-225.450667a252.586667 252.586667 0 0 1 253.696-253.696z" p-id="12252" data-spm-anchor-id="a313x.7781069.0.i18" class="selected" fill="#757575"></path><path d="M225.877333 254.293333H564.053333c16.981333 0 28.16 11.349333 28.16 28.16 0 16.981333-11.178667 28.245333-28.16 28.245334H225.877333c-16.981333 0-28.16-11.264-28.16-28.16 0-11.264 16.810667-28.16 28.16-28.16z m0 169.130667h225.450667c16.896 0 28.16 11.264 28.16 28.16 0 16.981333-11.264 28.245333-28.16 28.245333H225.877333c-16.981333 0-28.16-11.264-28.16-28.16 0-11.264 16.810667-28.16 28.16-28.16z" p-id="12253" data-spm-anchor-id="a313x.7781069.0.i17" class="" fill="#ffffff"></path><path d="M761.429333 902.656c-107.093333 0-197.376-90.197333-197.376-197.290667 0-107.178667 90.282667-197.376 197.376-197.376 107.093333 0 197.290667 90.197333 197.290667 197.376a196.096 196.096 0 0 1-197.290667 197.290667z m0-338.261333c-78.933333 0-140.970667 62.037333-140.970666 140.970666 0 78.848 62.037333 140.885333 140.970666 140.885334 78.933333 0 140.885333-62.037333 140.885334-140.885334 0-78.933333-61.952-140.970667-140.885334-140.970666z" p-id="12254" data-spm-anchor-id="a313x.7781069.0.i20" class="selected" fill="#757575"></path><path d="M866.133333 846.250667l120.746667 120.746666 36.266667-36.181333-120.832-120.746667z" p-id="12255" data-spm-anchor-id="a313x.7781069.0.i19" class="selected" fill="#757575"></path></svg>