<?xml version="1.0" standalone="no"?><!DOCTYPE svg PUBLIC "-//W3C//DTD SVG 1.1//EN" "http://www.w3.org/Graphics/SVG/1.1/DTD/svg11.dtd"><svg t="1571837818330" class="icon" viewBox="0 0 1024 1024" version="1.1" xmlns="http://www.w3.org/2000/svg" p-id="5087" xmlns:xlink="http://www.w3.org/1999/xlink" width="120" height="120"><defs><style type="text/css"></style></defs><path d="M305.3056 494.359893c-29.91104 0-54.234453 47.64672-54.234453 106.427734 0 58.753707 24.323413 106.441387 54.234453 106.441386 29.986133 0 54.26176-47.68768 54.26176-106.441386 0-58.781013-24.275627-106.427733-54.26176-106.427734z" fill="#409FC1" p-id="5088"></path><path d="M512 6.826667C232.983893 6.826667 6.826667 232.953173 6.826667 512c0 278.981973 226.157227 505.173333 505.173333 505.173333 278.97856 0 505.173333-226.194773 505.173333-505.173333C1017.173333 232.953173 790.97856 6.826667 512 6.826667z m0 952.18688c-246.903467 0-447.013547-200.1408-447.013547-447.013547 0-16.940373 1.11616-33.5872 2.962774-50.059947 80.61952-1.850027 382.429867-19.53792 446.16704-175.766186 62.672213 153.64096 355.39968 173.2096 441.93792 175.694506 1.815893 16.448853 2.95936 33.11616 2.95936 50.131627 0 246.872747-200.137387 447.013547-447.013547 447.013547z" fill="#409FC1" p-id="5089"></path><path d="M817.16224 608.064853l-92.791467-72.260266c-10.17856-7.922347-20.23424-7.912107-30.4128 0l-92.941653 72.260266c-21.87264 17.00864 8.799573 47.21664 30.4128 30.4128l77.7216-60.42624 77.595307 60.42624c21.6064 16.817493 52.282027-13.387093 30.416213-30.4128z" fill="#409FC1" p-id="5090"></path></svg>