<?xml version="1.0" standalone="no"?><!DOCTYPE svg PUBLIC "-//W3C//DTD SVG 1.1//EN" "http://www.w3.org/Graphics/SVG/1.1/DTD/svg11.dtd"><svg t="1569141555729" class="icon" viewBox="0 0 1025 1024" version="1.1" xmlns="http://www.w3.org/2000/svg" p-id="4371" xmlns:xlink="http://www.w3.org/1999/xlink" width="120.1171875" height="120"><defs><style type="text/css"></style></defs><path d="M1018.88 619.52c-33.28-289.28-92.16-496.64-279.04-496.64-94.72 0-143.36 97.28-227.84 104.96-87.04-7.68-133.12-104.96-227.84-104.96-186.88 0-245.76 207.36-276.48 494.08-17.92 153.6-2.56 281.6 92.16 281.6 133.12 0 138.24-120.32 232.96-176.64 35.84-17.92 115.2-25.6 181.76-28.16 66.56 2.56 145.92 10.24 181.76 28.16 94.72 56.32 99.84 176.64 232.96 176.64 92.16 2.56 104.96-125.44 89.6-279.04z m-732.16-25.6c-74.24 0-133.12-61.44-133.12-133.12s58.88-133.12 133.12-133.12 133.12 58.88 133.12 133.12-61.44 133.12-133.12 133.12zM883.2 486.4H778.24v104.96h-51.2V486.4H622.08v-51.2h104.96V332.8h51.2v102.4H883.2v51.2z m-673.28-25.6c0 20.48 7.68 38.4 23.04 53.76 12.8 12.8 33.28 23.04 53.76 23.04 20.48 0 38.4-7.68 53.76-23.04 12.8-12.8 23.04-33.28 23.04-53.76 0-20.48-7.68-38.4-23.04-53.76-12.8-12.8-33.28-23.04-53.76-23.04-20.48 0-38.4 7.68-53.76 23.04-15.36 12.8-23.04 33.28-23.04 53.76z m0 0" p-id="4372" fill="#757575"></path></svg>