<?xml version="1.0" standalone="no"?><!DOCTYPE svg PUBLIC "-//W3C//DTD SVG 1.1//EN" "http://www.w3.org/Graphics/SVG/1.1/DTD/svg11.dtd"><svg t="1558235178117" class="icon" style="" viewBox="0 0 1024 1024" version="1.1" xmlns="http://www.w3.org/2000/svg" p-id="32123" xmlns:xlink="http://www.w3.org/1999/xlink" width="200" height="200"><defs><style type="text/css"></style></defs><path d="M822.965101 871.927261L498.83047 544.93412 849.018379 176.206732c-89.083426-89.001755-208.916255-138.739831-335.303238-138.739831-262.084543 0-474.533099 212.448556-474.533099 474.533099s212.448556 474.533099 474.533099 474.533099c114.054554 0 223.045462-40.468336 309.229542-114.58542zM445.764272 381.590684h-65.133195v64.561493h-65.133195v-64.561493h-65.133196v-64.561493h65.133196v-64.561493h65.133195v64.561493h65.133195v64.561493z" fill="#8B9BFF" p-id="32124"></path><path d="M925.422271 442.681129c-53.474557 0-96.801404 42.979742-96.801403 95.984687 0 52.984527 43.326846 95.984687 96.801403 95.984686 53.474557 0 96.801404-42.979742 96.801404-95.984686 0-53.004945-43.326846-95.984687-96.801404-95.984687z" fill="#E6E9FF" p-id="32125"></path><path d="M513.755977 0c145.84527 0 277.459244 60.988355 370.707928 158.871909 9.188068 9.637263 9.188068 24.766948 0.020418 34.42463L551.039116 544.382836l307.841123 310.577126c4.981975 5.022811 7.411708 11.168607 7.227947 18.233211-0.183761 7.064604-2.940182 13.067475-8.167172 17.824852-90.92104 82.610943-211.672675 132.981975-344.185037 132.981975C230.988071 1024 1.755977 794.767906 1.755977 512S230.988071 0 513.755977 0z m309.229542 871.927261L498.850888 544.93412 849.038797 176.206732c-89.083426-89.001755-208.916255-138.739831-335.303238-138.739831-262.084543 0-474.533099 212.448556-474.533099 474.533099s212.448556 474.533099 474.533099 474.533099c114.054554 0 223.045462-40.468336 309.229542-114.58542z" fill="#E6E9FF" p-id="32126"></path></svg>