<?xml version="1.0" standalone="no"?><!DOCTYPE svg PUBLIC "-//W3C//DTD SVG 1.1//EN" "http://www.w3.org/Graphics/SVG/1.1/DTD/svg11.dtd"><svg t="1557130953272" class="icon" style="" viewBox="0 0 1024 1024" version="1.1" xmlns="http://www.w3.org/2000/svg" p-id="4010" xmlns:xlink="http://www.w3.org/1999/xlink" width="200" height="200"><defs><style type="text/css"></style></defs><path d="M803.8 822.1m-188.4 0a188.4 188.4 0 1 0 376.8 0 188.4 188.4 0 1 0-376.8 0Z" fill="#f1aa11" p-id="4011" data-spm-anchor-id="a313x.7781069.0.i5" class="selected"></path><path d="M922.7 739.2c-16-16-41.9-16-57.9 0l-95.7 95.7-26.2-26.2c-16-16-41.9-16-57.9 0s-16 41.9 0 57.9l55.2 55.2c16 16 41.9 16 57.9 0l1.5-1.5 0.9-0.9 122.2-122.2c16-16.1 16-42 0-58z" fill="#FFFFFF" p-id="4012"></path><path d="M584.1 824.1c0-110.2 82.3-201.2 188.8-214.9 1.8-7 5.5-13.5 10.9-18.7L973 406c24-23.4 10.7-64.1-22.4-68.9l-261.5-38c-13.1-1.9-24.5-10.2-30.4-22.1l-117-237c-14.8-30-57.6-30-72.4 0l-117 237c-5.9 11.9-17.2 20.2-30.4 22.1l-261.5 38C27.3 341.9 14.1 382.6 38 406l189.3 184.5c9.5 9.3 13.9 22.6 11.6 35.7l-44.7 260.5c-5.7 33 29 58.1 58.6 42.6l233.9-123c11.5-6 25.2-6.2 36.7-0.4l61.1 32.6c-0.2-4.8-0.4-9.6-0.4-14.4z" fill="#f1aa11" p-id="4013" data-spm-anchor-id="a313x.7781069.0.i6" class="selected"></path></svg>