<?xml version="1.0" standalone="no"?><!DOCTYPE svg PUBLIC "-//W3C//DTD SVG 1.1//EN" "http://www.w3.org/Graphics/SVG/1.1/DTD/svg11.dtd"><svg t="1558144853116" class="icon" style="" viewBox="0 0 1031 1024" version="1.1" xmlns="http://www.w3.org/2000/svg" p-id="42445" xmlns:xlink="http://www.w3.org/1999/xlink" width="201.3671875" height="200"><defs><style type="text/css"></style></defs><path d="M451.072 61.952c-117.76-1.536-220.672 98.816-222.72 223.232-1.024 70.144 29.696 134.144 83.456 179.2l15.872 9.728-16.384 6.144c-146.944 55.296-247.296 194.048-249.344 353.28v2.56c0 58.88 48.128 107.008 107.008 107.008l289.792 3.584c9.728 0 25.6-3.584 26.112-22.528 0.512-22.528-15.872-25.088-25.088-25.088l-289.792-3.584c-27.648 0-59.904-31.744-59.904-59.904v-1.536c2.048-168.448 138.752-313.856 300.032-320.512l44.544 0.512c37.888-2.56 92.16-11.776 121.344-36.352l12.8-9.728c54.784-43.52 87.04-107.008 88.064-177.152 2.048-123.904-98.304-227.328-225.792-228.864z m1.536 403.456c-97.28-1.024-176.64-82.944-175.104-179.712 1.024-97.28 82.944-176.128 179.712-175.104 97.28 1.024 176.64 82.944 175.104 179.712-1.536 97.28-82.432 176.64-179.712 175.104z" fill="#d4237a" p-id="42446"></path><path d="M945.664 574.464c-12.8-11.264-32.256-10.24-43.52 2.56l-232.96 262.144-151.04-128.512c-12.8-11.264-32.256-9.216-43.52 3.584s-9.216 32.256 3.584 43.52l174.08 147.968c0.512 0.512 1.024 1.024 1.536 1.024l0.512 0.512c0.512 0.512 1.536 1.024 2.048 1.536 0 0 0.512 0 0.512 0.512 0.512 0.512 1.536 0.512 2.048 1.024 0 0 0.512 0 0.512 0.512 0.512 0.512 1.536 0.512 2.048 1.024 0 0 0.512 0 0.512 0.512 0.512 0 1.536 0.512 2.048 0.512h1.024c0.512 0 1.536 0.512 2.048 0.512h11.264c0.512 0 1.024 0 1.536-0.512 0.512 0 0.512 0 1.024-0.512 0.512 0 1.024-0.512 2.048-0.512 0.512 0 0.512 0 1.024-0.512s1.536-0.512 2.048-1.024c0 0 0.512 0 0.512-0.512 0.512-0.512 1.536-0.512 2.048-1.024 0 0 0.512 0 0.512-0.512 0.512-0.512 1.536-1.024 2.048-1.536 0 0 0.512 0 0.512-0.512 0.512-0.512 1.536-1.024 2.048-1.536l0.512-0.512 1.536-1.536 252.928-284.672c10.752-12.8 9.728-32.256-3.072-43.52z" fill="#d4237a" p-id="42447"></path></svg>