<?xml version="1.0" standalone="no"?><!DOCTYPE svg PUBLIC "-//W3C//DTD SVG 1.1//EN" "http://www.w3.org/Graphics/SVG/1.1/DTD/svg11.dtd"><svg t="1567823465635" class="icon" viewBox="0 0 1024 1024" version="1.1" xmlns="http://www.w3.org/2000/svg" p-id="5038" xmlns:xlink="http://www.w3.org/1999/xlink" width="256" height="256"><defs><style type="text/css"></style></defs><path d="M836.537566 536.019753H187.101235c-6.140388 0-11.558377-5.05679-11.558378-11.558377v-25.283951c0-6.140388 5.05679-11.558377 11.558378-11.558377h649.436331c6.140388 0 11.558377 5.05679 11.558378 11.558377v25.283951c0 6.501587-5.05679 11.558377-11.558378 11.558377z" fill="#B8B8B8" p-id="5039"></path><path d="M487.980247 836.537566V187.101235c0-6.140388 5.05679-11.558377 11.558377-11.558378h25.283951c6.140388 0 11.558377 5.05679 11.558377 11.558378v649.436331c0 6.140388-5.05679 11.558377-11.558377 11.558378h-25.283951c-6.501587 0-11.558377-5.05679-11.558377-11.558378z" fill="#B8B8B8" p-id="5040"></path></svg>