<?xml version="1.0" standalone="no"?><!DOCTYPE svg PUBLIC "-//W3C//DTD SVG 1.1//EN" "http://www.w3.org/Graphics/SVG/1.1/DTD/svg11.dtd"><svg t="1558143818007" class="icon" style="" viewBox="0 0 1024 1024" version="1.1" xmlns="http://www.w3.org/2000/svg" p-id="31852" xmlns:xlink="http://www.w3.org/1999/xlink" width="200" height="200"><defs><style type="text/css"></style></defs><path d="M906.5 702.94l-119.43 206a20.77 20.77 0 0 1-12.7 9.71 21.13 21.13 0 0 1-5.45 0.72 20.85 20.85 0 0 1-10.43-2.8l-103-59.2a20.86 20.86 0 1 1 20.92-36.09l84.87 48.78 109-188a20.9 20.9 0 1 1 36.25 20.83zM559 559a327.13 327.13 0 0 1 120.36 82.93 218.09 218.09 0 0 0-37.58 40.45 270.43 270.43 0 0 0-298.27-74.65C238.23 647.25 168.65 747.77 169 859.85v53.1h-54.31v-54.11c0.61-132.4 82-251.11 205.67-299.86-96.68-54-144.54-166.25-116.49-273s125-181.31 235.83-181.31 207.78 74.5 235.83 181.31S655.72 504.94 559 559z m16.58-348.16a191.85 191.85 0 0 0-135.88-56.39c-105.54 0-191.17 85-191.45 190.13s84.9 190.58 190.44 191.13 191.62-84 192.46-189.11a190.21 190.21 0 0 0-55.52-135.77z" p-id="31853" fill="#1296db"></path></svg>