<?xml version="1.0" standalone="no"?><!DOCTYPE svg PUBLIC "-//W3C//DTD SVG 1.1//EN" "http://www.w3.org/Graphics/SVG/1.1/DTD/svg11.dtd"><svg t="1558149319074" class="icon" style="" viewBox="0 0 1024 1024" version="1.1" xmlns="http://www.w3.org/2000/svg" p-id="3251" xmlns:xlink="http://www.w3.org/1999/xlink" width="200" height="200"><defs><style type="text/css"></style></defs><path d="M784.1457753 564.3242013v-0.00552336c-121.47670973 0-220.29244071 98.82677771-220.29244072 220.29796408 0 121.465663 98.81711182 220.28691734 220.29244072 220.28691734 121.46013964 0 220.28139397-98.82125435 220.28139398-220.28691734 0-121.47118637-98.82125435-220.29244071-220.28139398-220.29244072z m-168.39353838 220.29244072c0-92.85049861 75.53751637-168.39906173 168.39353838-168.39906174 32.37105141 0 62.5258533 9.34138817 88.2094926 25.23762772L640.98434128 872.83441968c-15.88657367-25.69192435-25.23210435-55.84534541-25.23210436-88.21777766z m168.39353838 168.39353836c-32.35448132 0-62.51480658-9.34000733-88.1984459-25.22381931l231.36126073-231.37921167c15.88519282 25.69468604 25.23072352 55.84810708 25.23072353 88.20949262 0 92.85049861-75.53751637 168.39353837-168.39353836 168.39353836zM605.8170872 526.96555283a400.46040878 400.46040878 0 0 0-11.67224749-5.03592647c73.28674585-52.49542557 116.64376684-137.13130213 116.20051695-227.35958405-0.73322647-146.75714352-120.53773795-270.86573585-267.07947031-276.65836309a290.50405405 290.50405405 0 0 0-11.24142514-0.21541117c-153.44041311 0-278.27670854 124.83629546-278.27670854 278.29327864 0 90.43402718 44.29461191 175.17760933 118.73574068 227.62194378-155.05185434 65.57889236-254.99020891 215.63210293-254.9902089 383.56582131 0 5.60483291 1.20271236 11.22623589 3.52252494 16.65708285 6.45128833 15.99842178 9.99590672 26.33401534 27.18047076 26.33401534 3.27949695 0 6.60318082-0.38387374 9.87163105-1.13367031 18.69520389-4.31512757 20.13680173-22.15835269 20.29145589-43.39430371 1.41812353-182.34003068 174.48580807-342.56313391 356.8437897-342.74540489l5.93899637 0.18227099c7.63743059 0.17812846 15.27071867 0.50262606 23.09732445 1.23585253 3.76969545 0.24440883 7.61671797 0.73322647 12.93019346 1.40845765l4.08728883 0.53990874c3.24221425 0.3148317 6.46233505 0.80364937 9.98486001 1.5051165 7.0657625 1.21375909 13.96444325 2.39990135 19.9365798 3.91606458 0.89064233 0.28583405 1.77990382 0.51781531 4.28336824 1.1433362 18.93823188 4.62443591 37.90269974 7.38197504 56.36039904 15.88657369a40.4986805 40.4986805 0 0 0 17.06028836 3.73793609c11.04672658 0 21.89875461 3.30020957 29.77921318-4.58024901 9.95171982-9.95171982 14.21851796-15.7761064 11.68329421-29.61075061-2.52555787-13.81255075-11.69572178-25.50136832-24.52787554-31.29399558z m-173.76224749-23.85954857c-114.31014586 0-207.31391781-92.91677899-207.31391781-207.11783841 0-114.21901037 92.92782572-207.13578934 207.12888514-207.13578935 114.20796363 0 207.12336177 92.91677899 207.12336178 207.13578935 0 114.20105943-92.83530938 207.11783841-206.93832911 207.11783841z" fill="#8a8a8a" p-id="3252"></path></svg>