<?xml version="1.0" standalone="no"?><!DOCTYPE svg PUBLIC "-//W3C//DTD SVG 1.1//EN" "http://www.w3.org/Graphics/SVG/1.1/DTD/svg11.dtd"><svg t="1574432182932" class="icon" viewBox="0 0 1024 1024" version="1.1" xmlns="http://www.w3.org/2000/svg" p-id="15114" xmlns:xlink="http://www.w3.org/1999/xlink" width="120" height="120"><defs><style type="text/css"></style></defs><path d="M884.736 1024H139.264C62.72 1024 0 961.28 0 884.736V139.264C0 62.72 62.72 0 139.264 0h745.472C961.28 0 1024 62.72 1024 139.264v745.472c0 76.544-62.72 139.264-139.264 139.264z" fill="#00bcd4" p-id="15115" data-spm-anchor-id="a313x.7781069.0.i6" class="selected"></path><path d="M503.296 747.008c-5.888 36.608-21.248 58.368-46.336 65.28-25.088 6.656-52.224 11.008-81.152 13.056 0-17.408-5.888-39.68-17.408-66.816 32.768 2.048 56.064 1.536 69.632-1.536 13.568-2.816 21.248-14.08 23.296-33.28l20.224-347.904h-101.376c-3.84 75.52-10.24 135.424-18.944 179.712-8.704 44.544-18.432 83.2-28.928 115.968-10.752 33.024-25.088 65.28-43.52 97.024-18.432 32-34.304 56.576-47.872 73.984-13.568-15.616-33.024-28.928-58.112-40.704 36.608-36.608 64.256-76.8 82.688-120.32 18.432-43.52 30.976-84.224 37.632-121.856 6.656-37.632 11.008-68.608 13.056-92.672 1.792-24.064 3.84-54.528 5.888-91.392H271.36c-21.248 0-43.52 1.024-66.816 2.816v-58.112c21.248 3.84 45.312 5.888 72.448 5.888H314.88c1.792-40.704 2.816-64.768 2.816-72.448 0-9.728-1.024-32.768-2.816-69.632 21.248 2.048 45.312 3.84 72.448 5.888-3.84 15.616-6.912 32-8.704 49.408-2.048 17.408-3.84 46.336-5.888 87.04h156.672c-2.048 15.616-2.816 32-2.816 49.408l-23.296 371.2z m295.68-333.568v255.232c0 46.336 1.024 94.72 2.816 144.896h-55.04v-66.816H622.08v81.152h-55.04c1.792-38.656 2.816-78.336 2.816-118.784V413.44c0-38.656-1.024-79.36-2.816-121.856h235.008c-2.048 40.704-3.072 81.152-3.072 121.856z m-51.968 275.456V343.808H622.08v345.088h124.928z" fill="#ffffff" p-id="15116" data-spm-anchor-id="a313x.7781069.0.i7" class=""></path></svg>