<?xml version="1.0" standalone="no"?><!DOCTYPE svg PUBLIC "-//W3C//DTD SVG 1.1//EN" "http://www.w3.org/Graphics/SVG/1.1/DTD/svg11.dtd"><svg t="1572966071398" class="icon" viewBox="0 0 1024 1024" version="1.1" xmlns="http://www.w3.org/2000/svg" p-id="44493" xmlns:xlink="http://www.w3.org/1999/xlink" width="120" height="120"><defs><style type="text/css"></style></defs><path d="M980.145787 359.233377V843.740072a178.121195 178.121195 0 0 1-53.265908 127.838179 184.086977 184.086977 0 0 1-127.838178 52.413653H225.048281A180.677958 180.677958 0 0 1 42.665813 843.740072V178.981546A180.677958 180.677958 0 0 1 225.048281 0.008096h397.576734a157.240959 157.240959 0 0 1 112.497597 47.300126L937.533061 253.127689a152.553559 152.553559 0 0 1 42.612726 106.105688z m-103.975052 0a50.283017 50.283017 0 0 0-14.914454-35.368563l-201.132067-205.819466a51.987526 51.987526 0 0 0-37.499199-15.766709H225.048281a77.981289 77.981289 0 0 0-78.407416 76.702907v664.758526a77.981289 77.981289 0 0 0 78.407416 76.702907h572.715038a77.981289 77.981289 0 0 0 78.407416-76.702907z" fill="#4E94FF" p-id="44494"></path><path d="M454.304747 340.909905A54.544289 54.544289 0 0 1 511.4058 288.496252 54.544289 54.544289 0 0 1 571.063616 340.909905v127.838178h131.247197a55.396544 55.396544 0 0 1 58.805562 50.709144 54.970417 54.970417 0 0 1-58.805562 50.283017H571.063616v136.360723a49.430762 49.430762 0 0 1-29.402781 42.612726 66.90198 66.90198 0 0 1-58.379434 0 49.430762 49.430762 0 0 1-28.976654-42.612726v-136.360723H308.143097a54.544289 54.544289 0 0 1-58.379435-49.85689A54.970417 54.970417 0 0 1 308.143097 468.748083h146.16165z" fill="#4E94FF" p-id="44495"></path></svg>