<?xml version="1.0" standalone="no"?><!DOCTYPE svg PUBLIC "-//W3C//DTD SVG 1.1//EN" "http://www.w3.org/Graphics/SVG/1.1/DTD/svg11.dtd"><svg t="1562251727487" class="icon" viewBox="0 0 1024 1024" version="1.1" xmlns="http://www.w3.org/2000/svg" p-id="16405" xmlns:xlink="http://www.w3.org/1999/xlink" width="120" height="120"><defs><style type="text/css"></style></defs><path d="M930.89792 544.93184l-89.33888 0L841.55904 457.6256c0-37.19168-30.85824-67.328-68.9408-67.328-38.04672 0-68.93056 30.13632-68.93056 67.328l0 87.30112-89.32352 0c-38.04672 0-68.91008 30.1568-68.91008 67.32288 0 37.20704 30.86336 67.3536 68.91008 67.3536l89.32352 0 0 87.30112c0 37.19168 30.88384 67.34848 68.93056 67.34848 38.08256 0 68.9408-30.16192 68.9408-67.34848l0-87.30112 89.33888 0c38.04672 0 68.91008-30.15168 68.91008-67.3536C999.808 575.08352 968.94464 544.93184 930.89792 544.93184L930.89792 544.93184zM393.67168 431.18592c99.42528 0 180.04992-78.74048 180.04992-175.91296 0-97.16736-80.62464-175.92832-180.04992-175.92832-99.43552 0-180.05504 78.76096-180.05504 175.92832C213.61664 352.44544 294.23104 431.18592 393.67168 431.18592L393.67168 431.18592zM601.35424 755.90144c0 0-167.48544 16.72704-154.00448-141.0816 5.71392-66.78016 51.06176-95.57504 94.30528-107.83744-45.93152-29.52192-97.18272-46.08512-151.31136-46.08512-196.9664 0-356.68992 218.47552-356.68992 487.936 0 9.00608 0.20992 17.94048 0.57344 26.82368l712.24832 0c0.384-8.8832 0.54784-17.8176 0.54784-26.82368 0-12.72832-0.44032-25.40032-1.19296-37.91872C693.9648 909.04064 600.192 887.49568 601.35424 755.90144L601.35424 755.90144zM601.35424 755.90144" p-id="16406" fill="#9e9e9e"></path></svg>