<?xml version="1.0" standalone="no"?><!DOCTYPE svg PUBLIC "-//W3C//DTD SVG 1.1//EN" "http://www.w3.org/Graphics/SVG/1.1/DTD/svg11.dtd"><svg t="1558144451015" class="icon" style="" viewBox="0 0 1024 1024" version="1.1" xmlns="http://www.w3.org/2000/svg" p-id="37529" xmlns:xlink="http://www.w3.org/1999/xlink" width="200" height="200"><defs><style type="text/css"></style></defs><path d="M512 4.654545C232.727273 4.654545 4.654545 232.727273 4.654545 514.327273 4.654545 795.927273 232.727273 1024 512 1024c281.6 0 509.672727-228.072727 509.672727-509.672727C1021.672727 232.727273 793.6 4.654545 512 4.654545z m0 989.09091c-265.309091 0-479.418182-214.109091-479.418182-479.418182S249.018182 37.236364 512 37.236364s479.418182 214.109091 479.418182 479.418181S777.309091 993.745455 512 993.745455z" fill="#601986" p-id="37530"></path><path d="M730.763636 781.963636h-18.618181c-2.327273-72.145455-18.618182-125.672727-41.89091-165.236363-25.6-41.890909-55.854545-69.818182-90.763636-86.109091 34.909091-16.290909 67.490909-44.218182 90.763636-86.109091 23.272727-41.890909 39.563636-97.745455 44.218182-174.545455h18.618182c13.963636 0 23.272727-9.309091 23.272727-23.272727s-9.309091-23.272727-23.272727-23.272727H302.545455c-9.309091 0-16.290909 4.654545-20.945455 11.636363-4.654545 6.981818-4.654545 16.290909 0 23.272728 4.654545 6.981818 11.636364 11.636364 20.945455 11.636363h18.618181c2.327273 76.8 18.618182 132.654545 44.218182 174.545455 25.6 41.890909 55.854545 69.818182 90.763637 86.109091-34.909091 16.290909-67.490909 44.218182-90.763637 86.109091-23.272727 39.563636-39.563636 93.090909-41.890909 165.236363H302.545455c-13.963636 0-23.272727 9.309091-23.272728 23.272728 0 6.981818 2.327273 11.636364 6.981818 16.290909 4.654545 4.654545 9.309091 6.981818 16.29091 6.981818h428.218181c13.963636 0 23.272727-9.309091 23.272728-23.272727 0-11.636364-11.636364-23.272727-23.272728-23.272728zM488.727273 544.581818c2.327273-2.327273 4.654545-2.327273 4.654545-2.327273h2.327273v-2.327272s0-2.327273 2.327273-2.327273v-9.309091-4.654545c0-2.327273 0-2.327273-2.327273-2.327273l-2.327273-2.327273-2.327273-2.327273H488.727273c-39.563636-11.636364-72.145455-37.236364-100.072728-86.10909-23.272727-39.563636-37.236364-90.763636-39.563636-160.581819h332.8c-2.327273 69.818182-16.290909 121.018182-39.563636 160.581819-27.927273 48.872727-58.181818 74.472727-100.072728 88.436363h-2.327272l-2.327273 2.327273-2.327273 2.327273s0 2.327273-2.327272 2.327272c0 2.327273 0 2.327273-2.327273 4.654546V537.6s0 2.327273 2.327273 2.327273l2.327272 2.327272 2.327273 2.327273h2.327273c39.563636 11.636364 72.145455 37.236364 100.072727 86.109091 11.636364 20.945455 20.945455 44.218182 27.927273 72.145455 2.327273 6.981818 6.981818 25.6 6.981818 48.872727-23.272727-18.618182-83.781818-34.909091-158.254546-34.909091v-218.763636h2.327273l4.654546-2.327273c27.927273-9.309091 48.872727-20.945455 67.490909-39.563636 18.618182-18.618182 32.581818-41.890909 44.218182-67.49091 2.327273-6.981818 0-16.290909-6.981819-18.618181-2.327273-2.327273-6.981818-2.327273-11.636363 0-2.327273 2.327273-6.981818 4.654545-6.981818 6.981818-9.309091 20.945455-20.945455 41.890909-37.236364 58.181818-13.963636 13.963636-32.581818 25.6-55.854546 32.581818h-9.30909c-20.945455-6.981818-39.563636-18.618182-55.854546-32.581818-16.290909-16.290909-27.927273-37.236364-37.236364-58.181818-2.327273-6.981818-11.636364-11.636364-18.618181-6.981818-6.981818 2.327273-11.636364 11.636364-6.981819 18.618181 9.309091 25.6 23.272727 48.872727 44.218182 67.49091 18.618182 18.618182 39.563636 30.254545 67.490909 39.563636l4.654546 2.327273h2.327273v218.763636c-69.818182 0-130.327273 11.636364-158.254546 27.927273 0-11.636364 2.327273-23.272727 6.981818-41.890909 6.981818-27.927273 16.290909-51.2 27.927273-72.145455 32.581818-46.545455 62.836364-74.472727 104.727273-86.109091z m0 0" fill="#601986" p-id="37531"></path></svg>