<?xml version="1.0" standalone="no"?><!DOCTYPE svg PUBLIC "-//W3C//DTD SVG 1.1//EN" "http://www.w3.org/Graphics/SVG/1.1/DTD/svg11.dtd"><svg t="1572965279529" class="icon" viewBox="0 0 1024 1024" version="1.1" xmlns="http://www.w3.org/2000/svg" p-id="30276" xmlns:xlink="http://www.w3.org/1999/xlink" width="120" height="120"><defs><style type="text/css"></style></defs><path d="M1024 518.4c0 12.8-6.4 19.2-12.8 32L896 697.6c-6.4 12.8-25.6 19.2-38.4 19.2-12.8 0-19.2-6.4-32-12.8s-19.2-19.2-19.2-32 0-25.6 12.8-38.4l57.6-70.4H454.4c-25.6 0-51.2-19.2-51.2-51.2 0-25.6 19.2-51.2 51.2-51.2h422.4l-57.6-70.4c-19.2-19.2-12.8-51.2 6.4-70.4 12.8 0 25.6-6.4 38.4 0 12.8 0 25.6 6.4 32 19.2l115.2 153.6c6.4 0 12.8 12.8 12.8 25.6z m-185.6-275.2c-12.8 0-25.6-6.4-32-12.8-76.8-76.8-172.8-115.2-281.6-115.2s-211.2 38.4-288 115.2C160 307.2 121.6 409.6 121.6 518.4c0 108.8 38.4 211.2 115.2 281.6 76.8 76.8 172.8 115.2 281.6 115.2 57.6 0 108.8-12.8 160-32s89.6-51.2 128-89.6c19.2-19.2 51.2-19.2 70.4 0 6.4 6.4 12.8 19.2 12.8 32s-6.4 25.6-12.8 32c-44.8 44.8-102.4 83.2-160 108.8-64 25.6-128 38.4-198.4 38.4-64 0-134.4-12.8-192-38.4-57.6-25.6-115.2-64-160-108.8-44.8-32-76.8-89.6-102.4-147.2-25.6-64-38.4-128-38.4-192C25.6 448 38.4 384 64 320c25.6-57.6 64-115.2 108.8-160S268.8 76.8 332.8 51.2c64-25.6 128-38.4 192-38.4s134.4 12.8 192 38.4c57.6 25.6 115.2 64 160 108.8 6.4 6.4 12.8 19.2 12.8 32s-6.4 25.6-12.8 32c-12.8 19.2-25.6 19.2-38.4 19.2z" fill="#45b9b0" p-id="30277"></path></svg>