<?xml version="1.0" standalone="no"?><!DOCTYPE svg PUBLIC "-//W3C//DTD SVG 1.1//EN" "http://www.w3.org/Graphics/SVG/1.1/DTD/svg11.dtd"><svg t="1569480408247" class="icon" viewBox="0 0 1024 1024" version="1.1" xmlns="http://www.w3.org/2000/svg" p-id="13300" xmlns:xlink="http://www.w3.org/1999/xlink" width="256" height="256"><defs><style type="text/css"></style></defs><path d="M847.973714 320.485808A335.706308 335.706308 0 0 0 509.546933 0.014146 331.897646 331.897646 0 0 0 176.017003 320.485808c0 163.228351 329.721268 557.15277 329.721269 557.152771S847.973714 489.699199 847.973714 320.485808z m-444.525209 11.425985a112.083467 112.083467 0 1 1 114.259846 108.8189 108.8189 108.8189 0 0 1-114.259846-108.8189z m217.637801 555.520487a42.439371 42.439371 0 0 1 0 8.705512c0 30.469292-50.056694 54.40945-112.083467 54.40945s-108.8189-24.484253-108.818901-54.40945a42.439371 42.439371 0 0 1 0-8.705512c-67.467718 12.514174-113.171657 36.454332-113.171656 63.659057 0 40.262993 100.113388 72.908663 223.62284 72.908663s224.166935-32.64567 224.166935-72.908663c0-27.204725-45.703938-51.144883-113.171656-63.659057z" p-id="13301" fill="#009688"></path></svg>