<?xml version="1.0" standalone="no"?><!DOCTYPE svg PUBLIC "-//W3C//DTD SVG 1.1//EN" "http://www.w3.org/Graphics/SVG/1.1/DTD/svg11.dtd"><svg t="1569289973188" class="icon" viewBox="0 0 1024 1024" version="1.1" xmlns="http://www.w3.org/2000/svg" p-id="63883" xmlns:xlink="http://www.w3.org/1999/xlink" width="256" height="256"><defs><style type="text/css"></style></defs><path d="M512 806.4c12.8 0 268.8-384 268.8-537.6S659.2 0 512 0 243.2 121.6 243.2 268.8s256 537.6 268.8 537.6zM384 268.8c0-70.4 57.6-128 128-128s128 57.6 128 128-57.6 128-128 128-128-57.6-128-128z m320 467.2c57.6 19.2 96 51.2 96 76.8 0 57.6-128 108.8-288 108.8s-288-51.2-288-108.8c0-32 38.4-57.6 96-76.8-121.6 25.6-198.4 76.8-198.4 134.4C115.2 953.6 294.4 1024 512 1024s396.8-70.4 396.8-153.6c0-57.6-83.2-108.8-204.8-134.4z" fill="#ffffff" p-id="63884"></path></svg>