<?xml version="1.0" standalone="no"?><!DOCTYPE svg PUBLIC "-//W3C//DTD SVG 1.1//EN" "http://www.w3.org/Graphics/SVG/1.1/DTD/svg11.dtd"><svg t="1565839252875" class="icon" viewBox="0 0 1024 1024" version="1.1" xmlns="http://www.w3.org/2000/svg" p-id="24852" xmlns:xlink="http://www.w3.org/1999/xlink" width="256" height="256"><defs><style type="text/css"></style></defs><path d="M512 65.4c-246.9 0-447.1 200.2-447.1 447.1S265.1 959.6 512 959.6s447.1-200.2 447.1-447.1S758.9 65.4 512 65.4z m37.5 746.5C535.7 824 519.6 830 501.2 830s-34-6.3-46.6-19c-13.2-11.5-19.8-27-19.8-46.6s6.6-35.1 19.8-46.6c12.1-12.1 27.6-18.1 46.6-18.1 19.6 0 35.7 6 48.3 18.1 12.6 12.7 19 28.2 19 46.6 0 19-6.3 34.9-19 47.5z m123.4-334c-9.2 10.4-34 33.1-74.2 68.2-14.4 11.5-25.9 25.6-34.5 42.3-8.6 17.3-12.9 36.2-12.9 57v12.1H452v-12.1c0-33.9 5.7-62.1 17.3-84.6 10.9-23 44.6-59.5 101-109.6l10.4-12.1c15.5-19 23.3-39.4 23.3-61.3 0-27.6-8.1-50.1-24.2-67.3-16.1-16.1-39.1-24.2-69-24.2-36.8 0-63.9 11.5-81.1 34.5-14.4 19.6-21.6 48-21.6 85.4h-98.4c0-64.4 18.7-114.5 56.1-150.2 37.4-36.2 87.7-54.4 151-54.4 57 0 102.4 15.2 136.4 45.7 34.5 29.9 51.8 71.3 51.8 124.3-0.1 42.8-10.8 78.2-32.1 106.3z" p-id="24853" fill="#08a9af"></path></svg>