<?xml version="1.0" standalone="no"?><!DOCTYPE svg PUBLIC "-//W3C//DTD SVG 1.1//EN" "http://www.w3.org/Graphics/SVG/1.1/DTD/svg11.dtd"><svg t="1565792131061" class="icon" viewBox="0 0 1024 1024" version="1.1" xmlns="http://www.w3.org/2000/svg" p-id="4204" xmlns:xlink="http://www.w3.org/1999/xlink" width="120" height="120"><defs><style type="text/css"></style></defs><path d="M511.92729 536.236686m-484.733728 0a484.733728 484.733728 0 1 0 969.467456 0 484.733728 484.733728 0 1 0-969.467456 0Z" fill="#FE3D50" p-id="4205"></path><path d="M511.92729 536.236686m-338.616805 0a338.616805 338.616805 0 1 0 677.23361 0 338.616805 338.616805 0 1 0-677.23361 0Z" fill="#51E4C2" p-id="4206"></path><path d="M511.92729 387.617325a18.644071 18.644071 0 0 1-18.644071-18.644071V24.170036a18.644071 18.644071 0 1 1 37.288142 0v344.803218c0 10.300592-8.343479 18.644071-18.644071 18.644071z" fill="#E5F9F4" p-id="4207"></path><path d="M511.92729 661.255574c150.267456 0 323.43858 214.282604 418.852355 165.070012 95.413775-49.212592 16.480947-422.451503-89.766627-501.863006-106.247574-79.411503-216.173065 32.083314-329.085728 32.083313-112.918722 0-222.838154-111.488757-329.085728-32.083313C76.587929 403.874083-2.344899 777.112994 93.068876 826.325586c95.413775 49.212592 268.590959-165.070012 418.858414-165.070012z" fill="#FFFFFF" p-id="4208"></path><path d="M930.779645 789.037444c-95.407716 49.212592-268.584899-189.924734-418.852355-189.924734-150.267456 0-323.444639 239.137325-418.858414 189.924734-28.193325-14.542012-41.069065-57.48942-42.608095-112.682414-1.969231 66.99626 10.300592 120.874414 42.608095 137.543195 95.413775 49.206533 268.590959-165.070012 418.858414-165.070012 150.267456 0 323.43858 214.276544 418.852355 165.063953 32.313562-16.662722 44.583385-70.540876 42.614154-137.543196-1.53903 55.199053-14.420828 98.140402-42.614154 112.688474z" fill="#51E4C2" p-id="4209"></path><path d="M324.214154 590.242083c-21.831195 21.831195-35.706698 47.485728-64.318107 47.485728s-42.486911-25.654533-64.318106-47.485728C173.746746 568.410888 148.086154 554.535385 148.086154 525.936095c0-28.617467 25.654533-42.49297 47.491787-64.330225 21.831195-21.831195 35.700639-47.485728 64.312047-47.491787 28.617467 0 42.486911 25.660592 64.324166 47.491787 21.825136 21.831195 47.485728 35.700639 47.485728 64.312047 0 28.617467-25.654533 42.486911-47.485728 64.324166z" fill="#51E4C2" p-id="4210"></path><path d="M324.214154 577.808663c-21.831195 21.831195-35.706698 47.491787-64.318107 47.491787s-42.486911-25.654533-64.318106-47.491787c-21.831195-21.825136-47.485728-35.688521-47.491787-64.305988 0-28.617467 25.654533-42.49297 47.491787-64.324166 21.831195-21.831195 35.700639-47.491787 64.312047-47.491787 28.617467 0 42.486911 25.654533 64.324166 47.491787 21.825136 21.831195 47.485728 35.700639 47.485728 64.312047s-25.654533 42.486911-47.485728 64.318107z" fill="#2283F6" p-id="4211"></path><path d="M259.896047 476.420544m-19.686248 0a19.686249 19.686249 0 1 0 39.372497 0 19.686249 19.686249 0 1 0-39.372497 0Z" fill="#252528" p-id="4212"></path><path d="M309.39342 525.923976m-19.686248 0a19.686249 19.686249 0 1 0 39.372497 0 19.686249 19.686249 0 1 0-39.372497 0Z" fill="#252528" p-id="4213"></path><path d="M259.896047 575.421349m-19.686248 0a19.686249 19.686249 0 1 0 39.372497 0 19.686249 19.686249 0 1 0-39.372497 0Z" fill="#252528" p-id="4214"></path><path d="M210.392615 525.923976m-19.686248 0a19.686249 19.686249 0 1 0 39.372497 0 19.686249 19.686249 0 1 0-39.372497 0Z" fill="#252528" p-id="4215"></path><path d="M259.896047 463.993183m-19.686248 0a19.686249 19.686249 0 1 0 39.372497 0 19.686249 19.686249 0 1 0-39.372497 0Z" fill="#FFFFFF" p-id="4216"></path><path d="M309.39342 513.496615m-19.686248 0a19.686249 19.686249 0 1 0 39.372497 0 19.686249 19.686249 0 1 0-39.372497 0Z" fill="#FFFFFF" p-id="4217"></path><path d="M709.85013 484.27929m-23.618651 0a23.618651 23.618651 0 1 0 47.237302 0 23.618651 23.618651 0 1 0-47.237302 0Z" fill="#51E4C2" p-id="4218"></path><path d="M792.606296 449.190627m-23.618651 0a23.618651 23.618651 0 1 0 47.237302 0 23.618651 23.618651 0 1 0-47.237302 0Z" fill="#51E4C2" p-id="4219"></path><path d="M717.012071 561.824568m-23.618651 0a23.618651 23.618651 0 1 0 47.237302 0 23.618651 23.618651 0 1 0-47.237302 0Z" fill="#51E4C2" p-id="4220"></path><path d="M799.768237 526.735905m-23.618651 0a23.618651 23.618651 0 1 0 47.237302 0 23.618651 23.618651 0 1 0-47.237302 0Z" fill="#51E4C2" p-id="4221"></path><path d="M459.551811 533.201041h25.37581M564.302769 533.201041h-25.37581" fill="" p-id="4222"></path><path d="M709.85013 471.851929m-23.618651 0a23.618651 23.618651 0 1 0 47.237302 0 23.618651 23.618651 0 1 0-47.237302 0Z" fill="#2283F6" p-id="4223"></path><path d="M792.606296 436.763266m-23.618651 0a23.618651 23.618651 0 1 0 47.237302 0 23.618651 23.618651 0 1 0-47.237302 0Z" fill="#2283F6" p-id="4224"></path><path d="M717.012071 549.391148m-23.618651 0a23.618651 23.618651 0 1 0 47.237302 0 23.618651 23.618651 0 1 0-47.237302 0Z" fill="#F8E71C" p-id="4225"></path><path d="M799.768237 514.308544m-23.618651 0a23.618651 23.618651 0 1 0 47.237302 0 23.618651 23.618651 0 1 0-47.237302 0Z" fill="#F8E71C" p-id="4226"></path><path d="M259.896047 562.993988m-19.686248 0a19.686249 19.686249 0 1 0 39.372497 0 19.686249 19.686249 0 1 0-39.372497 0Z" fill="#FFFFFF" p-id="4227"></path><path d="M210.392615 513.496615m-19.686248 0a19.686249 19.686249 0 1 0 39.372497 0 19.686249 19.686249 0 1 0-39.372497 0Z" fill="#FFFFFF" p-id="4228"></path><path d="M459.551811 520.77368h25.37581" fill="" p-id="4229"></path><path d="M484.927621 545.628402h-25.37581a12.427361 12.427361 0 0 1 0-24.860781h25.37581a12.427361 12.427361 0 0 1 0 24.860781zM564.302769 545.628402h-25.38187a12.427361 12.427361 0 0 1 0-24.860781h25.38187a12.427361 12.427361 0 0 1 0 24.860781z" fill="#51E4C2" p-id="4230"></path><path d="M484.927621 533.201041h-25.37581a12.427361 12.427361 0 0 1 0-24.860781h25.37581a12.427361 12.427361 0 0 1 0 24.860781z" fill="#F8E71C" p-id="4231"></path><path d="M564.302769 520.77368h-25.37581" fill="" p-id="4232"></path><path d="M564.302769 533.201041h-25.38187a12.427361 12.427361 0 0 1 0-24.860781h25.38187a12.427361 12.427361 0 0 1 0 24.860781z" fill="#2283F6" p-id="4233"></path></svg>