<?xml version="1.0" standalone="no"?><!DOCTYPE svg PUBLIC "-//W3C//DTD SVG 1.1//EN" "http://www.w3.org/Graphics/SVG/1.1/DTD/svg11.dtd"><svg t="1565839059076" class="icon" viewBox="0 0 1024 1024" version="1.1" xmlns="http://www.w3.org/2000/svg" p-id="17259" xmlns:xlink="http://www.w3.org/1999/xlink" width="256" height="256"><defs><style type="text/css"></style></defs><path d="M512 0C229.376 0 0 229.376 0 512s229.376 512 512 512 512-229.376 512-512S794.624 0 512 0zM388.608 729.6s0 12.288-15.872 12.288H296.448s-18.944 0-18.944-18.944l-18.432-294.912s0.512-17.92 18.432-17.92h88.064s22.528-0.512 22.528 22.528v296.96z m352.256-42.496s-16.896 54.784-37.888 54.784H481.792c-15.36 0-54.784-10.24-54.784-39.424V410.112s109.568-80.896 109.568-183.808c3.072-5.632-5.632-37.888 35.328-37.888 0 0 96.256 10.752 39.424 221.696h147.456s36.864-3.072 36.864 35.328c0 0 0 55.808-54.784 241.664z" fill="#1296db" p-id="17260"></path></svg>