<?xml version="1.0" standalone="no"?><!DOCTYPE svg PUBLIC "-//W3C//DTD SVG 1.1//EN" "http://www.w3.org/Graphics/SVG/1.1/DTD/svg11.dtd"><svg t="1572964705924" class="icon" viewBox="0 0 1228 1024" version="1.1" xmlns="http://www.w3.org/2000/svg" p-id="29430" xmlns:xlink="http://www.w3.org/1999/xlink" width="143.90625" height="120"><defs><style type="text/css"></style></defs><path d="M1228.8 819.2v204.8h-204.8l204.8-204.8z m-716.8 204.8C229.2224 1024 0 794.7776 0 512S229.2224 0 512 0s512 229.2224 512 512-229.2224 512-512 512z m-279.6544-405.6576a78.7456 78.7456 0 1 0 0-157.5424 78.7456 78.7456 0 0 0 0 157.5424z m275.712 0a78.7456 78.7456 0 1 0 0-157.5424 78.7456 78.7456 0 0 0 0 157.5424z m275.712 0a78.7456 78.7456 0 1 0 0-157.5424 78.7456 78.7456 0 0 0 0 157.5424z" p-id="29431" fill="#ffffff"></path></svg>