<?xml version="1.0" standalone="no"?><!DOCTYPE svg PUBLIC "-//W3C//DTD SVG 1.1//EN" "http://www.w3.org/Graphics/SVG/1.1/DTD/svg11.dtd"><svg t="1565182622852" class="icon" viewBox="0 0 1024 1024" version="1.1" xmlns="http://www.w3.org/2000/svg" p-id="3247" xmlns:xlink="http://www.w3.org/1999/xlink" width="120" height="120"><defs><style type="text/css"></style></defs><path d="M509.276596 1018.553191H87.148936a87.148936 87.148936 0 0 1-87.148936-87.148936V509.276596C0 228.003404 228.003404 0 509.276596 0S1018.553191 228.003404 1018.553191 509.276596 790.549787 1018.553191 509.276596 1018.553191zM334.21617 381.952a47.73583 47.73583 0 1 0 0 95.493447h350.120851a47.73583 47.73583 0 1 0 0-95.493447H334.21617z m0 222.818043a47.73583 47.73583 0 1 0 0 95.493446h286.458553a47.73583 47.73583 0 1 0 0-95.493446H334.21617z" p-id="3248" fill="#757575"></path></svg>