<?xml version="1.0" standalone="no"?><!DOCTYPE svg PUBLIC "-//W3C//DTD SVG 1.1//EN" "http://www.w3.org/Graphics/SVG/1.1/DTD/svg11.dtd"><svg t="1565079240149" class="icon" viewBox="0 0 1092 1024" version="1.1" xmlns="http://www.w3.org/2000/svg" p-id="3242" xmlns:xlink="http://www.w3.org/1999/xlink" width="273" height="256"><defs><style type="text/css"></style></defs><path d="M1048.644267 650.990933a468.309333 468.309333 0 0 1-118.1696 148.548267A593.032533 593.032533 0 0 1 546.133333 934.7072a638.293333 638.293333 0 0 1-114.2784-10.24L262.144 1019.016533a40.004267 40.004267 0 0 1-38.638933 0 37.205333 37.205333 0 0 1-19.319467-32.3584v-154.760533a495.889067 495.889067 0 0 1-143.36-149.777067A416.426667 416.426667 0 0 1 0 467.285333a408.1664 408.1664 0 0 1 43.690667-183.569066A468.3776 468.3776 0 0 1 161.792 135.168a613.9904 613.9904 0 0 1 768.682667 0 469.8112 469.8112 0 0 1 118.1696 148.548267 408.029867 408.029867 0 0 1 0 367.274666zM275.319467 401.749333a65.536 65.536 0 1 0 67.857066 65.536 66.696533 66.696533 0 0 0-67.925333-65.536z m268.151466 0a65.536 65.536 0 1 0 67.857067 65.536 66.7648 66.7648 0 0 0-67.925333-65.536z m268.151467 0a65.536 65.536 0 1 0 67.857067 65.536 66.7648 66.7648 0 0 0-67.925334-65.536z" fill="#ffffff" p-id="3243"></path></svg>