<?xml version="1.0" standalone="no"?><!DOCTYPE svg PUBLIC "-//W3C//DTD SVG 1.1//EN" "http://www.w3.org/Graphics/SVG/1.1/DTD/svg11.dtd"><svg t="1560999803305" class="icon" style="" viewBox="0 0 1024 1024" version="1.1" xmlns="http://www.w3.org/2000/svg" p-id="24563" xmlns:xlink="http://www.w3.org/1999/xlink" width="256" height="256"><defs><style type="text/css"></style></defs><path d="M772.653875 426.025796C644.930936 142.199932 578.491968 34.385984 369.822068 38.895981c-74.337964 1.562999-56.523973-55.641973-113.214946-33.951983-56.578973 21.68999-8.009996 53.444974-65.933968 102.551951C28.106232 245.330883 43.063224 372.811822 118.464188 676.649676c31.762985 128.001939-76.577963 134.249936-33.722984 258.259877 31.313985 90.462957 262.112875 128.348939 505.570759 35.109983 243.458884-93.239955 396.95081-278.446867 365.635825-368.909824-42.853979-124.067941-129.459938-55.584973-183.293913-175.083916zM563.926975 893.553572c-217.464896 83.28996-396.16581 34.356984-403.728807 12.550994-12.995994-37.595982 70.191966-162.879922 318.804848-258.143876 248.611881-95.263954 387.370815-59.922971 401.879807-17.987991 8.569996 24.813988-99.433952 180.231914-316.955848 263.579873z m-69.910966-202.095903c-113.662946 43.553979-192.649908 93.354955-243.850884 138.181934 36.019983 33.778984 103.46695 41.99198 170.633919 16.252992 85.539959-32.679984 138.142934-107.930948 117.359943-167.969919-0.28-0.752-0.617-1.329999-0.896999-2.081999-14.059993 4.742998-28.456986 9.889995-43.245979 15.616992z" p-id="24564" fill="#8a8a8a"></path></svg>