<?xml version="1.0" standalone="no"?><!DOCTYPE svg PUBLIC "-//W3C//DTD SVG 1.1//EN" "http://www.w3.org/Graphics/SVG/1.1/DTD/svg11.dtd"><svg t="1561000410629" class="icon" style="" viewBox="0 0 1024 1024" version="1.1" xmlns="http://www.w3.org/2000/svg" p-id="41376" xmlns:xlink="http://www.w3.org/1999/xlink" width="256" height="256"><defs><style type="text/css"></style></defs><path d="M661 307.9c-137.4 0-248.8 110-248.8 245.6 0 125.4 212.7 368.8 244.8 404.8 2.2 2.4 5.9 2.4 8.1 0 32.1-36 244.8-279.4 244.8-404.8 0-135.7-111.5-245.6-248.9-245.6z m0 332.2c-45.5 0-82.4-36.9-82.4-82.4s36.9-82.4 82.4-82.4c45.5 0 82.4 36.9 82.4 82.4s-36.8 82.4-82.4 82.4z m167.6 209.3l76.4-11.9 4.6-1c22-6.6 37.5-27.3 37.5-50.3V648c-14.3 34.3-33.7 70.8-55.9 107.3-19.5 31.8-40.9 63.6-62.6 94.1z m66-738.5c-4.4 0-8.8 0.6-13 1.6L651 149.3 456.7 72c-12.4-7.7-28-10-42.1-6.1l-297.8 60.7-4.2 1.1C91.3 135 76.9 155 76.9 177.5V800c0 29 23.6 52.5 52.5 52.5 4.7 0 9.4-0.6 14-1.9l267.4-52 67.8 29.7c-26.5-38.2-51.9-78.1-73-117l-81.9 15.9V181.7l108.4-22.1 201.3 80.1L850.6 205v98.9c42 31.9 75.4 74.1 96.5 122.8V163.4c0-29-23.6-52.5-52.5-52.5z" p-id="41377" fill="#00bcd4"></path></svg>