<?xml version="1.0" standalone="no"?><!DOCTYPE svg PUBLIC "-//W3C//DTD SVG 1.1//EN" "http://www.w3.org/Graphics/SVG/1.1/DTD/svg11.dtd"><svg t="1565103180126" class="icon" viewBox="0 0 1102 1024" version="1.1" xmlns="http://www.w3.org/2000/svg" p-id="6154" xmlns:xlink="http://www.w3.org/1999/xlink" width="129.140625" height="120"><defs><style type="text/css"></style></defs><path d="M615.337748 880.187077C739.458363 902.281846 925.747594 945.230769 1102.801132 1024H140.300209s14.08-177.427692 306.530462-165.947077c-19.416615-150.882462-57.383385-276.322462-102.222769-378.801231 1.476923-26.171077 1.890462-53.976615-1.299693-83.948307 13.371077 7.561846 27.273846 15.104 41.353846 22.665846 55.473231 116.578462 103.266462 264.034462 125.085539 445.912615 12.406154 1.595077 27.510154 3.682462 44.918154 6.301539 21.385846-163.072 60.908308-288.984615 99.603692-379.943385 22.882462-7.364923 46.355692-15.832615 69.238154-27.490462 0.945231 5.159385 2.225231 10.377846 3.367384 15.596308-41.432615 87.748923-88.083692 220.179692-111.53723 401.841231z m-99.544616-386.953846c-21.385846 13.705846-40.054154 31.586462-53.956923 57.383384 1.614769-30.050462 8.881231-56.201846 19.948308-79.084307 12.406154 7.364923 24.024615 14.729846 34.008615 21.68123zM347.305748 731.569231c-179.003077-79.990154-195.367385-315.943385-153.324308-444.258462C124.664517 450.284308 7.908825 535.433846 3.615902 640.886154c-21.622154-177.624615 57.028923-333.390769 175.438769-397.666462-62.070154 18.707692-126.700308 52.48-166.419693 102.124308-0.512-74.476308 84.893538-180.775385 178.491077-135.876923C141.836209 144.659692 184.174671 3.268923 282.616517 0c-62.72 35.544615-31.192615 135.758769-38.912 201.235692C270.249748 97.870769 400.57344-6.912 533.496517 17.467077c-54.508308 96.472615-194.56 105.708308-273.447385 186.289231 136.704-93.538462 320.984615-83.160615 401.467077 2.658461-116.814769-49.388308-160.748308 71.601231-387.170461 27.372308 132.765538 29.833846 285.932308 74.043077 314.486154 266.436923-35.997538-71.817846-272.541538-148.204308-331.362462-227.524923 103.640615 202.299077-38.459077 330.338462 89.856 458.870154zM747.158055 289.378462c-52.086154-62.404923-41.826462-125.361231-106.436923-144.836924 80.994462-20.873846 193.181538 67.209846 162.816 154.308924 94.582154-82.550154 190.818462-15.399385 213.819077 70.242461-36.627692-50.412308-121.403077-37.415385-181.76-39.581538 121.816615 15.694769 232.920615 90.742154 231.345231 226.323692-52.361846-65.595077-149.307077-66.796308-257.122462-202.062769 62.365538 99.977846 87.276308 300.898462 28.475077 430.749538 25.659077-118.941538-94.72-301.784615-70.242461-415.665231-38.734769 46.099692-90.368 64.452923-141.390769 80.285539-8.467692-32.275692-20.420923-60.317538-34.953847-84.795077 50.884923-27.352615 103.739077-40.507077 132.135385-47.438769-74.436923 7.581538-136.940308-10.141538-186.466461-19.574154a323.603692 323.603692 0 0 0-34.028308-27.214769c12.051692-3.780923 23.414154-7.227077 33.732923-11.382154 50.845538-20.381538 89.757538-22.823385 115.672615-19.613539 37.021538 11.224615 70.498462 30.601846 94.404923 50.25477z" p-id="6155" fill="#ffffff"></path></svg>