<?xml version="1.0" standalone="no"?><!DOCTYPE svg PUBLIC "-//W3C//DTD SVG 1.1//EN" "http://www.w3.org/Graphics/SVG/1.1/DTD/svg11.dtd"><svg t="1563587846822" class="icon" viewBox="0 0 1024 1024" version="1.1" xmlns="http://www.w3.org/2000/svg" p-id="36837" xmlns:xlink="http://www.w3.org/1999/xlink" width="256" height="256"><defs><style type="text/css"></style></defs><path d="M78 276.105h29.436c42.526 0 77 34.474 77 77v186.737c0 42.526-34.474 77-77 77H78c-42.526 0-77-34.474-77-77V353.105c0-42.526 34.474-77 77-77zM852.667 852.737c-2.109 0-4.204-0.128-6.294-0.315a79.417 79.417 0 0 1-6.809 0.313s-0.641-0.572-1.836-1.622c-26.888-5.753-51.989-26.867-73.84-59.789-47.029-35.6-110.417-79.177-173.774-109.195-124.307-58.894-248.448-39.078-248.448-39.078-43.418 0-78.616-35.204-78.616-78.63V328.525c0-43.427 35.198-78.632 78.616-78.632 0 0 123.445 13.649 247.401-51.605 61.458-32.353 123.032-77.442 169.758-114.925 23.037-37.514 49.989-61.606 79.028-67.767 1.114-1.036 1.711-1.598 1.711-1.598 2.304 0 4.579 0.12 6.832 0.314 2.082-0.185 4.17-0.312 6.271-0.312C946.739 14 1023 201.758 1023 433.368c0 231.611-76.261 419.369-170.333 419.369zM247.428 719.163c30.7-30.709 80.477-30.709 111.178 0l129.709 155.944c30.702 30.709 30.702 80.495 0 111.202-30.701 30.709-80.478 30.709-111.178 0L247.428 830.364c-30.702-30.708-30.702-80.495 0-111.201z" fill="#ffffff" p-id="36838"></path></svg>