<?xml version="1.0" standalone="no"?><!DOCTYPE svg PUBLIC "-//W3C//DTD SVG 1.1//EN" "http://www.w3.org/Graphics/SVG/1.1/DTD/svg11.dtd"><svg t="1563587594876" class="icon" viewBox="0 0 1024 1024" version="1.1" xmlns="http://www.w3.org/2000/svg" p-id="27545" xmlns:xlink="http://www.w3.org/1999/xlink" width="256" height="256"><defs><style type="text/css"></style></defs><path d="M512 0C229.2 0 0 229.2 0 512s229.2 512 512 512 512-229.2 512-512S794.8 0 512 0z m0 110.6c92.3 0 167.8 75.5 167.8 167.8 0 92.3-75.5 167.8-167.8 167.8-92.3 0-167.8-75.5-167.8-167.8 0-92.3 75.5-167.8 167.8-167.8z m298.7 671.3c-6.7 20.1-25.2 33.6-47 33.6H260.3c-21.8 0-40.3-13.4-47-33.6 0 0-3.3-8.4-1.7-28.5 11.8-132.6 110.8-240 240-266.8l35.2 35.2c-10.1 52-25.2 135.9-25.2 159.4 0 16.8 35.2 67.1 50.4 67.1 15.1 0 50.3-50.3 50.3-67.1 0-23.5-15.1-107.4-25.2-159.4l35.2-35.2c129.2 25.2 228.2 134.3 240 266.8 1.8 20.1-1.6 28.5-1.6 28.5z" p-id="27546" fill="#ffffff"></path></svg>