<?xml version="1.0" standalone="no"?><!DOCTYPE svg PUBLIC "-//W3C//DTD SVG 1.1//EN" "http://www.w3.org/Graphics/SVG/1.1/DTD/svg11.dtd"><svg t="1563586923059" class="icon" viewBox="0 0 1024 1024" version="1.1" xmlns="http://www.w3.org/2000/svg" p-id="8452" xmlns:xlink="http://www.w3.org/1999/xlink" width="256" height="256"><defs><style type="text/css"></style></defs><path d="M1023.67232 502.56896c-0.88576-70.00576-15.0784-135.7824-42.64448-197.25824a515.75808 515.75808 0 0 0-111.01184-160.20992c-46.39744-45.30688-100.84864-80.99328-163.07712-107.0592A493.99296 493.99296 0 0 0 507.904 0.3072v0.06656a512.78848 512.78848 0 0 0-198.96832 41.69216 515.35872 515.35872 0 0 0-162.46272 109.85472c-45.98784 46.2592-82.08384 100.3008-108.28288 162.25792A486.69696 486.69696 0 0 0 0.32256 512.0512a483.3536 483.3536 0 0 0 38.5536 187.09504 547.93216 547.93216 0 0 0 95.45728 150.79424 84.51072 84.51072 0 0 1 22.99392 43.80672c2.72896 15.6928-3.61472 28.04224-18.9696 36.98176-26.13248 14.39744-61.34272 25.58464-105.6256 33.70496-3.54816 0.88576-1.29536 3.34336 6.82496 7.36768a258.6368 258.6368 0 0 0 41.34912 14.19264c24.31488 6.4512 48.90112 11.8272 73.69216 16.1024a1189.61152 1189.61152 0 0 0 105.55392 13.51168c72.25856 7.16288 131.14368 9.62048 176.72192 7.36768 45.57824-2.2528 85.49376-5.59616 119.81824-10.03008a530.44224 530.44224 0 0 0 184.77568-54.58432 526.32576 526.32576 0 0 0 148.88448-111.69792 511.40096 511.40096 0 0 0 98.8672-156.25216 476.28288 476.28288 0 0 0 34.45248-187.84256zM322.00192 572.60032c-16.7168 17.05984-37.25312 25.51808-61.61408 25.51808v0.06656c-24.36096 0-44.89728-8.52992-61.61408-25.58464-16.65024-17.05984-25.04192-37.25312-25.04192-60.59008s8.39168-43.53024 25.04192-60.59008c16.7168-17.05984 37.25312-25.58464 61.61408-25.58464a82.85184 82.85184 0 0 1 61.61408 25.58464c16.65024 17.05984 25.04192 37.25312 25.04192 60.59008 0 23.33184-8.39168 43.53024-25.04192 60.59008z m272.55808-0.65536c-16.7168 16.16896-36.77696 24.22272-60.24704 24.22272s-43.32544-8.05376-59.56608-24.22272c-16.24064-16.16896-24.36096-35.8912-24.36096-59.22816a82.53952 82.53952 0 0 1 24.36096-59.97568c16.24064-16.57856 36.096-24.90368 59.56608-24.90368a82.35008 82.35008 0 0 1 60.24704 24.90368c16.65024 16.65024 25.04192 36.63872 25.04192 59.97568 0 23.34208-8.3968 43.0592-25.04192 59.22816z m271.62624 0c-16.7168 16.16896-36.77696 24.22272-60.25216 24.22272-23.47008 0-43.32544-8.05376-59.56608-24.22272-16.24064-16.16896-24.36096-35.8912-24.36096-59.22816a82.53952 82.53952 0 0 1 24.36096-59.97568c16.24064-16.57856 36.096-24.90368 59.56608-24.90368a82.36544 82.36544 0 0 1 60.25216 24.90368c16.65024 16.65024 25.04192 36.63872 25.04192 59.97568 0 23.34208-8.39168 43.0592-25.04192 59.22816z" fill="#ffffff" p-id="8453"></path></svg>