<?xml version="1.0" standalone="no"?><!DOCTYPE svg PUBLIC "-//W3C//DTD SVG 1.1//EN" "http://www.w3.org/Graphics/SVG/1.1/DTD/svg11.dtd"><svg t="1563587790203" class="icon" viewBox="0 0 1293 1024" version="1.1" xmlns="http://www.w3.org/2000/svg" p-id="34615" xmlns:xlink="http://www.w3.org/1999/xlink" width="323.25" height="256"><defs><style type="text/css"></style></defs><path d="M1164.126316 512c0-70.413474 58.206316-128 129.347368-128v-256C1293.473684 57.613474 1235.267368 0 1164.126316 0H129.347368C58.206316 0 0 57.613474 0 128v256c71.141053 0 129.347368 57.586526 129.347368 128S71.141053 640 0 640v256C0 966.386526 58.206316 1024 129.347368 1024h1034.778948c71.141053 0 129.347368-57.613474 129.347368-128v-256c-71.141053 0-129.347368-57.586526-129.347368-128z m-316.901053 256L646.736842 633.586526 446.248421 768l58.206316-236.813474L323.368421 371.2l239.292632-12.8L646.736842 128l84.07579 230.4 239.292631 12.8-181.086316 153.6 58.206316 243.2z" fill="#ffffff" p-id="34616"></path></svg>