<?xml version="1.0" standalone="no"?><!DOCTYPE svg PUBLIC "-//W3C//DTD SVG 1.1//EN" "http://www.w3.org/Graphics/SVG/1.1/DTD/svg11.dtd"><svg t="1565103796783" class="icon" viewBox="0 0 1024 1024" version="1.1" xmlns="http://www.w3.org/2000/svg" p-id="22367" xmlns:xlink="http://www.w3.org/1999/xlink" width="120" height="120"><defs><style type="text/css"></style></defs><path d="M475.733333 932.266667c-12.8 0-23.466667-6.4-29.866666-19.2L110.933333 179.2c-6.4-12.8-4.266667-25.6 6.4-36.266667 4.266667-4.266667 98.133333-96 256-113.066666 89.6-8.533333 168.533333 14.933333 238.933334 34.133333 53.333333 14.933333 98.133333 27.733333 136.533333 23.466667 85.333333-8.533333 142.933333-70.4 145.066667-70.4 8.533333-10.666667 23.466667-12.8 36.266666-8.533334 12.8 6.4 21.333333 19.2 19.2 32 0 6.4-12.8 179.2-140.8 307.2-53.333333 53.333333-160 61.866667-243.2 68.266667-21.333333 2.133333-42.666667 4.266667-57.6 6.4-57.6 8.533333-142.933333 61.866667-172.8 89.6l172.8 375.466667c8.533333 17.066667 0 36.266667-14.933333 42.666666-6.4 0-10.666667 2.133333-17.066667 2.133334zM179.2 174.933333l125.866667 275.2c49.066667-40.533333 132.266667-83.2 192-93.866666 17.066667-2.133333 40.533333-4.266667 61.866666-6.4 70.4-6.4 166.4-12.8 202.666667-49.066667 59.733333-59.733333 89.6-132.266667 106.666667-185.6-29.866667 17.066667-68.266667 32-115.2 36.266667-51.2 4.266667-104.533333-10.666667-160-25.6-68.266667-19.2-136.533333-38.4-213.333334-29.866667-100.266667 10.666667-170.666667 55.466667-200.533333 78.933333z" fill="#ffffff" p-id="22368"></path><path d="M512 1019.733333C230.4 1019.733333 17.066667 923.733333 17.066667 795.733333c0-68.266667 59.733333-128 166.4-170.666666 17.066667-6.4 36.266667 2.133333 42.666666 19.2 6.4 17.066667-2.133333 36.266667-19.2 42.666666-78.933333 29.866667-123.733333 72.533333-123.733333 108.8 0 76.8 177.066667 160 430.933333 160s430.933333-85.333333 430.933334-160c0-76.8-177.066667-160-430.933334-160-17.066667 0-32-14.933333-32-32s14.933333-32 32-32c281.6 0 494.933333 96 494.933334 224S793.6 1019.733333 512 1019.733333z" fill="#ffffff" p-id="22369"></path></svg>