<?xml version="1.0" standalone="no"?><!DOCTYPE svg PUBLIC "-//W3C//DTD SVG 1.1//EN" "http://www.w3.org/Graphics/SVG/1.1/DTD/svg11.dtd"><svg t="1568795488734" class="icon" viewBox="0 0 1024 1024" version="1.1" xmlns="http://www.w3.org/2000/svg" p-id="2758" xmlns:xlink="http://www.w3.org/1999/xlink" width="256" height="256"><defs><style type="text/css"></style></defs><path d="M102.4 0h819.2C978.153544 0 1024 45.846456 1024 102.4v819.2c0 56.553544-45.846456 102.4-102.4 102.4H102.4C45.846456 1024 0 978.153544 0 921.6V102.4C0 45.846456 45.846456 0 102.4 0z m93.491649 286.645895v67.379649h109.669053c30.823298 106.087298 86.016 199.271298 164.864 278.119298-75.980351 65.228351-171.313404 112.536702-287.436351 142.641404l36.558596 60.211649c118.269754-34.405053 217.905404-87.448702 298.904702-159.128702 75.980351 64.512 172.032 118.272 287.436351 161.28l37.991298-57.344c-110.387649-40.140351-203.571649-91.034947-278.119298-151.960702 67.379649-73.831298 118.272-164.866246 152.679298-273.818947h109.669053v-67.379649H556.440702c-22.220351-47.308351-46.592-88.165053-72.396351-122.572351l-68.096 25.088c27.239298 30.823298 50.176 63.079298 68.812351 97.484351H195.891649z" fill="#ffffff" p-id="2759"></path><path d="M370.791298 354.025544c30.104702 88.167298 78.848 165.580351 146.944 231.527298 58.060351-63.797895 101.784702-141.210947 130.456702-231.527298h-277.400702z" fill="#ffffff" p-id="2760"></path></svg>