<?xml version="1.0" standalone="no"?><!DOCTYPE svg PUBLIC "-//W3C//DTD SVG 1.1//EN" "http://www.w3.org/Graphics/SVG/1.1/DTD/svg11.dtd"><svg t="1581258359989" class="icon" viewBox="0 0 1024 1024" version="1.1" xmlns="http://www.w3.org/2000/svg" p-id="12162" xmlns:xlink="http://www.w3.org/1999/xlink" width="200" height="200"><defs><style type="text/css"></style></defs><path d="M119.296 424.704c-48.192 0-87.296 39.104-87.296 87.296s39.104 87.296 87.296 87.296 87.232-39.104 87.232-87.296-39.04-87.296-87.232-87.296z m392.704 0c-48.192 0-87.296 39.104-87.296 87.296s39.104 87.296 87.296 87.296 87.296-39.104 87.296-87.296-39.104-87.296-87.296-87.296z m392.704 0c-48.192 0-87.232 39.104-87.232 87.296s39.04 87.296 87.232 87.296 87.296-39.104 87.296-87.296-39.104-87.296-87.296-87.296z" p-id="12163" fill="#8a8a8a"></path></svg>