<?xml version="1.0" standalone="no"?><!DOCTYPE svg PUBLIC "-//W3C//DTD SVG 1.1//EN" "http://www.w3.org/Graphics/SVG/1.1/DTD/svg11.dtd"><svg t="1558321967120" class="icon" style="" viewBox="0 0 1024 1024" version="1.1" xmlns="http://www.w3.org/2000/svg" p-id="13526" xmlns:xlink="http://www.w3.org/1999/xlink" width="200" height="200"><defs><style type="text/css"></style></defs><path d="M384 898.133333h-42.666667c-23.466667 0-42.666667-19.2-42.666666-42.666666v-200.533334H200.533333v200.533334c0 23.466667-19.2 42.666667-42.666666 42.666666h-42.666667c-14.933333 0-27.733333 12.8-27.733333 27.733334s12.8 27.733333 27.733333 27.733333H384c14.933333 0 27.733333-12.8 27.733333-27.733333s-12.8-27.733333-27.733333-27.733334z" fill="#db639b" p-id="13527" data-spm-anchor-id="a313x.7781069.0.i46" class="selected"></path><path d="M249.6 736c-149.333333 0-266.666667-132.266667-247.466667-279.466667L51.2 70.4h394.666667l49.066666 386.133333c19.2 147.2-96 279.466667-245.333333 279.466667z" fill="#db639b" p-id="13528" data-spm-anchor-id="a313x.7781069.0.i49" class="selected"></path><path d="M418.133333 277.333333c-89.6 0-149.333333-78.933333-294.4-78.933333-12.8 0-25.6 0-36.266666 2.133333L55.466667 460.8c-6.4 55.466667 10.666667 110.933333 46.933333 153.6 36.266667 42.666667 89.6 66.133333 147.2 66.133333 55.466667 0 108.8-23.466667 147.2-66.133333 36.266667-42.666667 53.333333-98.133333 46.933333-153.6L418.133333 277.333333z" fill="#54C0EB" p-id="13529"></path><path d="M78.933333 277.333333c89.6 0 149.333333-78.933333 294.4-78.933333 12.8 0 25.6 0 36.266667 2.133333l34.133333 262.4c6.4 55.466667-10.666667 110.933333-46.933333 153.6-36.266667 42.666667-89.6 66.133333-147.2 66.133334-55.466667 0-108.8-23.466667-147.2-66.133334-36.266667-42.666667-53.333333-98.133333-46.933333-153.6L78.933333 277.333333z" fill="#84DBFF" p-id="13530"></path><path d="M249.6 640c-12.8 0-21.333333-8.533333-21.333333-21.333333s8.533333-21.333333 21.333333-21.333334c32 0 61.866667-12.8 83.2-36.266666s29.866667-55.466667 25.6-87.466667c-2.133333-10.666667 6.4-21.333333 19.2-23.466667 10.666667-2.133333 21.333333 6.4 23.466667 19.2 6.4 42.666667-8.533333 87.466667-36.266667 119.466667-29.866667 32-72.533333 51.2-115.2 51.2z" fill="#FFFFFF" p-id="13531"></path><path d="M910.933333 898.133333h-42.666666c-23.466667 0-42.666667-19.2-42.666667-42.666666v-200.533334H725.333333v200.533334c0 23.466667-19.2 42.666667-42.666666 42.666666h-42.666667c-14.933333 0-27.733333 12.8-27.733333 27.733334s12.8 27.733333 27.733333 27.733333h268.8c14.933333 0 27.733333-12.8 27.733333-27.733333s-10.666667-27.733333-25.6-27.733334z" fill="#db639b" p-id="13532" data-spm-anchor-id="a313x.7781069.0.i47" class="selected"></path><path d="M774.4 736c-149.333333 0-266.666667-132.266667-247.466667-279.466667L576 70.4h394.666667l49.066666 386.133333c21.333333 147.2-93.866667 279.466667-245.333333 279.466667z" fill="#db639b" p-id="13533" data-spm-anchor-id="a313x.7781069.0.i48" class="selected"></path><path d="M945.066667 277.333333c-89.6 0-149.333333-78.933333-294.4-78.933333-12.8 0-25.6 0-36.266667 2.133333l-34.133333 262.4c-6.4 55.466667 10.666667 110.933333 46.933333 153.6 36.266667 42.666667 89.6 66.133333 147.2 66.133334 55.466667 0 108.8-23.466667 147.2-66.133334 36.266667-42.666667 53.333333-98.133333 46.933333-153.6L945.066667 277.333333z" fill="#F8B64C" p-id="13534"></path><path d="M605.866667 277.333333c89.6 0 149.333333-78.933333 294.4-78.933333 12.8 0 25.6 0 36.266666 2.133333l34.133334 262.4c6.4 55.466667-10.666667 110.933333-46.933334 153.6-36.266667 42.666667-89.6 66.133333-147.2 66.133334-55.466667 0-108.8-23.466667-147.2-66.133334-36.266667-42.666667-53.333333-98.133333-46.933333-153.6l23.466667-185.6z" fill="#FFD15C" p-id="13535"></path><path d="M774.4 640c-12.8 0-21.333333-8.533333-21.333333-21.333333s8.533333-21.333333 21.333333-21.333334c32 0 61.866667-12.8 83.2-36.266666s29.866667-55.466667 25.6-87.466667c-2.133333-10.666667 6.4-21.333333 19.2-23.466667 10.666667-2.133333 21.333333 6.4 23.466667 19.2 6.4 42.666667-8.533333 87.466667-36.266667 119.466667-27.733333 32-70.4 51.2-115.2 51.2z" fill="#FFFFFF" p-id="13536"></path></svg>