<?xml version="1.0" standalone="no"?><!DOCTYPE svg PUBLIC "-//W3C//DTD SVG 1.1//EN" "http://www.w3.org/Graphics/SVG/1.1/DTD/svg11.dtd"><svg t="1558359302975" class="icon" style="" viewBox="0 0 1024 1024" version="1.1" xmlns="http://www.w3.org/2000/svg" p-id="31291" xmlns:xlink="http://www.w3.org/1999/xlink" width="120" height="120"><defs><style type="text/css"></style></defs><path d="M168.032 281.296c-8.512 29.728-17.008 72.192-19.136 87.04-2.128 23.36-4.256 12.752-2.128 27.616 2.128 14.848 8.512 29.712 17.008 44.576 2.128 4.24 6.384 8.48 8.496 12.736 19.136 27.6 48.896 46.72 82.896 53.088a129.92 129.92 0 0 0 97.76-21.232c4.256-2.128 6.4-4.256 10.64-6.368 12.752-10.624 23.376-21.232 31.888-36.096 8.48-14.864 12.752-29.728 16.992-46.72a2560 2560 0 0 0 12.752-87.04c2.128-14.864 2.128-27.6 4.256-36.096l-250.8-25.472c-2.128 4.256-6.384 16.992-10.624 33.968z" fill="#ead011" p-id="31292" data-spm-anchor-id="a313x.7781069.0.i63" class="selected"></path><path d="M986.32 833.296c-4.256-2.128-31.888-8.48-85.024-12.736-12.752-2.128-21.248-4.24-25.504-6.368-14.88-6.368-23.36-19.104-25.504-38.224l-29.76-154.976c-6.368-40.336 10.64-48.832 27.632-59.44 17.008-10.624 27.632-16.992 38.256-27.6a219.296 219.296 0 0 0 44.64-53.088c25.504-44.576 36.128-93.408 25.504-150.72-14.88-82.816-36.128-165.6-48.88-184.72-10.624-21.232-29.76-36.096-57.392-31.84L556.976 170.88c-27.632 4.256-40.384 25.488-42.496 50.96-2.128-23.36-14.88-44.592-42.512-50.96l-295.44-55.2c-27.632-4.24-44.64 10.624-57.392 31.84-10.624 21.248-31.872 104.048-48.88 184.72-10.624 57.328-2.128 106.144 25.504 150.72 12.752 19.12 27.632 38.24 44.64 53.088 12.752 10.624 23.376 16.992 38.24 27.6 17.024 10.624 34.016 19.104 27.648 59.456l-27.632 154.976c-4.256 16.992-10.624 29.728-25.504 38.224-4.256 2.112-10.624 4.24-25.504 6.368-55.264 4.24-80.768 10.608-85.024 12.736-4.24 0-10.624 2.112-10.624 8.48 0 0 21.248 8.496 157.28 33.984 136.032 25.472 159.408 23.36 159.408 23.36 0-6.384-2.128-10.624-6.368-12.752-4.256-4.24-27.632-19.104-76.528-42.464-12.752-6.368-19.12-10.608-23.36-14.864-10.64-12.736-14.88-27.6-12.768-44.576l27.632-154.992c6.384-40.32 29.76-42.448 48.88-44.576 19.136-4.256 31.888-6.368 46.768-10.624 21.248-8.48 42.512-19.104 59.52-33.968 40.368-31.84 65.872-74.304 76.496-131.632 12.768-63.68 19.136-129.504 21.264-167.712 2.128 36.096 10.624 101.904 21.248 167.712 10.624 57.328 36.144 99.792 76.528 131.632 16.992 14.88 38.24 25.488 59.504 33.968 14.88 6.368 27.632 8.496 46.752 10.624 19.136 4.24 42.512 6.368 48.896 44.576l27.632 154.992c4.24 16.976 0 31.84-12.752 44.576-4.256 4.256-10.64 8.496-23.392 14.88-48.88 23.344-72.256 40.32-76.512 42.448-2.128 2.128-6.368 6.368-6.368 12.736 0 0 23.36 0 159.408-23.36 136.016-25.472 157.28-33.952 157.28-33.952 6.368-6.384 0-8.496-2.128-10.624zM437.952 400.192c-10.624 48.832-25.504 74.304-57.376 99.776-4.256 2.128-8.512 6.384-12.752 8.496-34.016 23.36-74.4 33.968-119.04 25.488a161.632 161.632 0 0 1-99.888-63.696c-4.256-4.256-6.368-10.624-10.624-14.864-21.248-33.968-25.504-67.936-19.136-112.528 6.384-46.704 21.264-118.88 44.64-174.08l291.2 53.072c6.368 42.464-4.272 129.504-17.024 178.336z m337.952 133.76c-42.512 8.48-85.024-2.128-119.04-25.488-4.24-2.112-8.48-6.368-12.736-8.48-31.888-23.36-44.64-50.96-57.392-99.792-10.624-48.832-23.376-135.872-19.12-178.336l291.184-53.072c23.36 55.2 36.128 127.376 44.64 174.08 6.368 46.72 2.112 80.688-19.136 112.528a64.512 64.512 0 0 1-10.64 14.864c-21.248 31.84-57.376 55.2-97.76 63.68z" fill="#11deea" p-id="31293" data-spm-anchor-id="a313x.7781069.0.i62" class=""></path><path d="M877.92 395.952c2.128-14.88 2.128-4.256-2.128-27.6-2.128-14.88-10.624-55.2-19.12-87.04-4.256-16.992-8.512-29.728-10.624-36.112l-250.816 25.488c0 10.608 2.128 23.36 4.256 36.096a2560 2560 0 0 0 12.752 87.04c2.128 16.976 8.512 33.968 17.008 46.72 8.496 14.848 19.12 25.456 31.872 36.08 4.256 2.128 6.384 4.24 10.64 6.368 27.632 19.104 63.76 27.6 97.76 21.232 34.016-6.368 63.76-25.472 82.896-53.072 2.128-4.256 6.384-8.496 8.496-12.752 8.512-10.608 14.88-25.472 17.008-42.448z" fill="#db639b" p-id="31294" data-spm-anchor-id="a313x.7781069.0.i61" class=""></path></svg>