<?xml version="1.0" standalone="no"?><!DOCTYPE svg PUBLIC "-//W3C//DTD SVG 1.1//EN" "http://www.w3.org/Graphics/SVG/1.1/DTD/svg11.dtd"><svg t="1561000240760" class="icon" style="" viewBox="0 0 1024 1024" version="1.1" xmlns="http://www.w3.org/2000/svg" p-id="38297" xmlns:xlink="http://www.w3.org/1999/xlink" width="256" height="256"><defs><style type="text/css"></style></defs><path d="M512 0C229.22752 0 0 229.22752 0 512s229.22752 512 512 512 512-229.22752 512-512S794.77248 0 512 0zM328.58624 328.99584c1.1264-20.18304 5.68832-39.69536 13.44512-58.42432a177.42848 177.42848 0 0 1 30.68416-49.35168c9.216-10.51136 19.37408-20.23936 30.8224-28.45184 19.94752-14.3104 41.74848-24.56576 65.71008-30.08512 8.54016-1.96608 17.14688-3.6096 25.9584-3.79904 0.93696-0.01536 1.89952 0.0768 2.56-0.79872h22.46144c3.456 1.69984 7.28576 1.00352 10.90048 1.44384 15.98464 1.92512 31.3088 6.16448 46.1312 12.27264a174.63296 174.63296 0 0 1 36.52096 20.53632c12.65152 9.2416 24.00768 19.71712 34.02752 31.79008 14.92992 17.9712 26.10176 37.94944 33.31584 60.10368a172.50304 172.50304 0 0 1 7.77728 37.7856 198.1952 198.1952 0 0 1 0.47616 28.78976c-1.1008 19.92192-6.016 39.07584-13.78816 57.49248a178.81088 178.81088 0 0 1-26.56768 43.98592c-9.8304 11.99104-20.9408 22.76864-33.46944 31.96416-15.69792 11.53024-32.7936 20.46464-51.32288 26.48576a172.90752 172.90752 0 0 1-36.5824 7.72608c-25.34912 2.5088-50.13504 0.19456-74.28096-7.88992-23.1424-7.7568-43.8016-19.8144-62.32576-35.8144-18.33984-15.84128-32.73728-34.65728-43.68384-56.07936-9.08288-17.77152-14.78144-36.68992-17.41312-56.58112a175.73376 175.73376 0 0 1-1.3568-33.1008z m187.74016 643.79904c-128.01536 0-242.32448-58.64448-317.55264-150.52288a394.22976 394.22976 0 0 1 15.23712-59.38176c8.06912-23.64928 18.49856-46.30016 31.76448-67.56864a326.30784 326.30784 0 0 1 34.2272-45.6192c14.86336-16.55808 31.45216-31.03744 49.5872-43.83744 19.05152-13.4656 39.57248-24.16128 61.17376-32.90112 2.57536-1.04448 3.85536-0.52224 5.19168 1.69984a44007.65952 44007.65952 0 0 0 113.41824 187.43808c2.38592 3.93216 2.48832 3.93216 5.08416-0.04096 21.31456-32.5632 42.624-65.14688 63.89248-97.73056 11.81184-18.0736 23.53664-36.20864 35.31264-54.31296 6.61504-10.16832 13.27616-20.29568 19.83488-30.49984 1.08544-1.68448 1.82784-2.37056 4.02944-1.39264a324.91008 324.91008 0 0 1 52.33152 29.24544c18.8672 12.99456 35.88608 28.16 51.30752 45.02016 17.77152 19.43552 32.64 40.99072 45.13792 64.21504 18.09408 33.61792 29.90592 69.39136 37.24288 106.74176 0.59904 3.0464 1.14176 6.08768 1.67936 9.14432-75.19744 85.98016-185.7024 140.30336-308.89984 140.30336z" p-id="38298" fill="#8a8a8a"></path></svg>