<?xml version="1.0" standalone="no"?><!DOCTYPE svg PUBLIC "-//W3C//DTD SVG 1.1//EN" "http://www.w3.org/Graphics/SVG/1.1/DTD/svg11.dtd"><svg t="1558166129288" class="icon" style="" viewBox="0 0 1024 1024" version="1.1" xmlns="http://www.w3.org/2000/svg" p-id="3591" xmlns:xlink="http://www.w3.org/1999/xlink" width="200" height="200"><defs><style type="text/css"></style></defs><path d="M513.099 273.099c76.1 0 143.6 36.8 185.7 93.7l29.5 7.9c-43.9-72.9-123.9-121.7-215.199-121.7-44.1 0-85.6 11.4-121.7 31.3l29.4 7.9C449.199 279.899 480.399 273.099 513.099 273.099zM664.798 259.999l16.1 13 5-19.6 18.1-10.6-18.1-10.6-5-19.6-16.1 13-21.1-1.6 8.1 18.6-8.1 18.6L664.798 259.999zM384.999 216.199l-16.6-11.5-3.7 20.5-17 12.7 18.3 8.8 6.1 19.4 15-15.1 20.8-0.6-9-18.1 6.8-19.8L384.999 216.199zM540.399 187.999l-12.3-16-9.7 18.4-20 6.9 14.7 13.9-0.1 20.3 18.8-9.8 20 5.6-3.1-19.9 12.4-16.8L540.399 187.999zM765.198 313.999l-17.4-12-2.5 20.1-16.3 12 18.9 9.4 7.3 19.5 14.2-14.3 20.9 0.1-10.2-18.3 5.6-19.4L765.198 313.999zM991.398 465.899 118 231.899c-21.4-5.7-43.5 7-49.2 28.4L6.4 493.199c-5.7 21.4 7 43.5 28.4 49.2l873.398 233.999c21.4 5.7 43.5-7 49.2-28.4l62.4-232.899C1025.597 493.699 1012.897 471.599 991.398 465.899zM997.797 519.699l-57.2 213.499c-4.3 16-20.9 25.6-36.9 21.3L49.8 525.599c-16-4.3-25.6-20.9-21.3-36.9l57.2-213.499c4.3-16 20.9-25.6 36.9-21.3l853.998 228.899C992.598 486.999 1002.097 503.499 997.797 519.699zM513.099 142.4c167.4 0 308.199 113.7 349.499 268.099l22.3 5.9c-39.7-168.5-191.099-293.999-371.699-293.999-109.6 0-208.299 46.2-277.999 120l22.2 5.9C322.799 182.9 413.199 142.4 513.099 142.4zM605.299 716.098c-28.2 12.3-59.4 19.2-92.2 19.2-76.1 0-143.6-36.8-185.7-93.7l-29.5-7.9c43.9 72.9 123.9 121.7 215.199 121.7 44.1 0 85.6-11.4 121.7-31.3L605.299 716.098zM389.799 757.798l-16-13-5 19.6-17.9 10.6 17.9 10.6 5 19.6 16-13 21 1.5-8.1-18.6 8.1-18.6L389.799 757.798zM512.999 819.698l12.2 16 9.6-18.3 19.9-6.9-14.6-14 0.1-20.2-18.6 9.8-19.8-5.6 3.1 19.9-12.4 16.8L512.999 819.698zM259.099 693.398l16.4 13.2 3.9-19.9 17.1-10.8-18.1-10.7-5.8-19.8-15.1 13.3-20.7-1.5 8.8 18.8-7 18.9L259.099 693.398zM513.099 865.898c-167.4 0-308.199-113.7-349.499-268.099l-22.3-5.9c39.7 168.5 191.1 293.999 371.699 293.999 109.6 0 208.299-46.2 277.999-120l-22.2-5.9C703.498 825.398 612.998 865.898 513.099 865.898zM658.398 792.098l16.5 11.5 3.6-20.3 16.8-12.6-18.2-8.8-6.1-19.4-14.7 15-20.6 0.6 9 18-6.6 19.8L658.398 792.098z" p-id="3592" fill="#d4237a"></path><path d="M412.94848 379.84768l-23.76192 91.65824c-3.93216 10.2656-11.24352 14.336-21.96992 12.17536l-141.89568-36.7872-14.6176 56.40704c-0.4608 1.76128 0.48128 2.94912 2.8416 3.5584l159.51872 41.35424-7.08608 27.32032-177.152-45.9264c-13.6704-2.92352-18.52928-10.77248-14.592-23.53664l31.98464-123.38688 33.49504 8.68352-7.08096 27.32032 121.6256 31.52896c3.36896 1.50528 5.58592 0.19968 6.656-3.92192l12.79488-49.35168L212.4288 355.13856l6.62528-25.55904L412.94848 379.84768z" p-id="3593" fill="#d4237a"></path><path d="M414.6432 489.3952l200.06912 51.8656-6.62528 25.55904-39.65952-10.28096-10.96704 42.30656c-1.36192 2.7904 0.10752 4.41856 4.37248 4.89472l35.25632 9.1392-6.1696 23.79264-51.9936-13.48096c-17.19808-3.84-23.08096-12.56448-17.65888-26.2144l12.79488-49.3568-37.90336-9.82528-33.59232 53.376c-5.65248 7.30624-14.65344 9.36448-26.99264 6.16448l-45.82912-11.8784 5.9392-22.91712 30.848 8.00256 1.536 1.33632c2.78016 1.3568 5.21216 0.41472 7.31136-2.80576l25.5232-40.41216-52.87936-13.71136L414.6432 489.3952zM423.168 474.6752l6.62528-25.55904 191.25248 49.58208-6.62528 25.55904L423.168 474.6752zM438.66624 393.09824l82.84672 21.4784 2.51392-9.69728 37.01248 9.59488-2.51392 9.7024 76.68224 19.87584-10.96704 42.30656-30.848-7.99744 4.34176-16.74752L464.65024 427.1104l-4.34176 16.74752-32.60928-8.45312L438.66624 393.09824z" p-id="3594" fill="#d4237a"></path><path d="M780.3392 490.1376l4.11136-15.86176 32.60928 8.45312-4.11136 15.86688 14.10048 3.65568c3.37408 1.50528 5.87776 0.2816 7.54176-3.69152l3.59424-6.59456 30.84288 7.99744-9.472 22.00064c-4.39296 14.5408-13.04576 18.88256-25.94304 13.0304l-26.43968-6.85568-12.66688 85.13024 5.28384 1.37216c3.37408 1.50528 5.59616 0.19968 6.66624-3.92192l16.22016-62.57152 29.0816 7.54176-19.88096 76.67712c-1.88928 14.55616-9.66144 19.12832-23.30112 13.70624l-18.5088-4.79744-0.75264 10.15296c-1.52576 5.87264 1.01376 9.35424 7.63904 10.43968l24.6784 6.4-6.85568 26.43968-47.5904-12.3392c-13.9776-1.7408-19.12832-9.66144-15.46752-23.76192l21.95968-139.15648-77.55264-20.10624-4.80256 18.50368 48.47616 12.5696c16.32256 2.34496 21.46304 11.53024 15.44192 27.51488l-23.99232 92.53888c-2.35008 16.32256-11.53024 21.46304-27.52 15.44192l-34.37056-8.9088 6.39488-24.67328 17.62304 4.57216c4.54656 1.80736 7.51104 0.06144 8.87808-5.22752l17.13664-66.0992c2.8672-8.66304-0.16896-13.82912-9.13408-15.5392l-25.55904-6.62528-23.53664 90.7776c-2.92352 13.65504-11.34592 18.36544-25.2928 14.1312l-22.91712-5.9392 6.39488-24.67328 3.52256 0.91648c4.54656 1.81248 7.51104 0.06656 8.87808-5.22752l39.30112-151.59296L780.3392 490.1376z" p-id="3595" fill="#d4237a"></path></svg>