<?xml version="1.0" standalone="no"?><!DOCTYPE svg PUBLIC "-//W3C//DTD SVG 1.1//EN" "http://www.w3.org/Graphics/SVG/1.1/DTD/svg11.dtd"><svg t="1558166270129" class="icon" style="" viewBox="0 0 1362 1024" version="1.1" xmlns="http://www.w3.org/2000/svg" p-id="7647" xmlns:xlink="http://www.w3.org/1999/xlink" width="266.015625" height="200"><defs><style type="text/css"></style></defs><path d="M679.140374 201.956374c101.751712 0 192.003683 49.210935 248.264748 125.134273l39.361382 10.542044c-58.758446-97.397871-165.585957-162.536058-287.62613-162.536058a334.148144 334.148144 0 0 0-162.528691 41.917698l39.287713 10.534676a307.774619 307.774619 0 0 1 123.233611-25.592633z m202.796202-17.474302l21.555568 17.474302 6.637583-26.181986 24.126618-14.100259-24.126618-14.100258-6.637583-26.181986-21.555568 17.466935-28.237353-2.084834 10.807252 24.900143-10.807252 24.900144 28.237353-2.092201z m-373.966274-58.596374l-22.174388-15.426302-4.840058 27.316489L458.258417 154.705036l24.472864 11.728115 8.140431 25.894676 19.971684-20.07482 27.729036-0.920863-12.133295-24.141353 8.994992-26.461928-27.463827 5.156835z m207.584691-37.748029l-16.428202-21.437698-12.921554 24.5539-26.771338 9.223366 19.750677 18.616173-0.103137 27.14705 25.121151-13.054158 26.697669 7.543712-4.221237-26.675568 16.612374-22.469065-27.736403-3.447712z m300.45928 168.613755l-23.279424-16.118791-3.315108 26.940777-21.931281 15.97882 25.393727 12.523741 9.71695 25.990446 18.999251-19.205525 27.950044 0.088403-13.650878-24.38446 7.551079-25.946245-27.43436 4.125468z m302.38941 202.906705L151.080518 146.874014a53.719482 53.719482 0 0 0-65.786475 37.98377L1.900662 496.13905a53.712115 53.712115 0 0 0 37.976403 65.786475l1167.323165 312.776748a53.704748 53.704748 0 0 0 65.786475-37.976402l83.393381-311.281267a53.704748 53.704748 0 0 0-37.969036-65.786475z m8.560346 71.805238l-76.453756 285.342388a40.289612 40.289612 0 0 1-49.336172 28.487828L59.79718 539.45646A40.289612 40.289612 0 0 1 31.309353 490.120288l76.461122-285.342389a40.282245 40.282245 0 0 1 49.336172-28.487827l1141.376921 305.829755a40.282245 40.282245 0 0 1 28.480461 49.34354zM679.133007 27.390158c223.718216 0 411.898475 151.979281 467.025036 358.311597l29.718101 7.963626C1122.944921 168.311712 920.634935 0.537784 679.140374 0.537784 532.701007 0.537784 400.686043 62.228259 307.634647 161.025842l29.688634 7.956259c87.482014-87.482014 208.328748-141.591942 341.809726-141.591943z m123.240979 766.644489a307.767252 307.767252 0 0 1-123.233612 25.592634c-101.759079 0-192.01105-49.210935-248.272115-125.134274l-39.368748-10.54941c58.765813 97.397871 165.585957 162.536058 287.633496 162.536058a334.148144 334.148144 0 0 0 162.528691-41.917698l-39.287712-10.52731z m-288.134446 55.767482l-21.38613-17.437467-6.586014 26.12305-23.935079 14.070792 23.942446 14.063424 6.578647 26.12305 21.38613-17.4301 28.001611 2.077467-10.718849-24.841208 10.718849-24.833842-28.001611 2.077468z m164.812431 82.708259l16.302964 21.393497 12.811051-24.494964 26.550331-9.208633-19.595972-18.564605 0.110504-27.080748-24.914878 13.024691-26.484029-7.536345 4.184403 26.624-16.472403 22.417496 27.508029 3.425611z m-339.474417-168.797928l21.894446 17.673209 5.171568-26.579798 22.83741-14.365468-24.244489-14.24023-7.78682-26.542964-20.155856 17.776345-27.648-2.040633 11.78705 25.224288-9.304403 25.283223 27.449094-2.187972z m339.56282 230.473669c-223.718216 0-411.898475-151.979281-467.025036-358.311597l-29.718101-7.956259c52.931223 225.353669 255.241209 393.127597 496.73577 393.127598 146.432 0 278.454331-61.690475 371.505727-160.488058l-29.688633-7.956259c-87.474647 87.482014-208.328748 141.591942-341.817094 141.591942z m194.13272-98.539741l-27.250188 5.105267 8.877123-26.373526-12.089094-24.082417 27.515396-0.884029 19.780144-19.986417 8.133065 25.835741 24.310791 11.728115-22.491166 16.840749-4.751654 27.235453-22.034417-15.418936zM469.905496 458.472058L337.551655 423.00777l-15.728346 58.706877c-2.173237 8.103597 0.795626 13.253065 8.90659 15.426303l106.525468 28.539395c3.845525 1.031367 7.808921 0.721957 11.492374-1.031367 4.272806-2.291108 9.83482-14.52754 17.120691-36.598791L484.005755 499.770935c-9.768518 26.211453-17.680576 41.254676-23.485697 44.96023-6.379741 3.322475-13.893986 4.051799-22.763741 2.136403l-117.841036-31.574561c-18.144691-4.862158-24.590734-16.656576-19.559137-35.442187l29.747568-111.011914 20.487367 5.495713-7.831021 29.246618 111.645467 29.909641 13.614043-50.802187-140.892086-37.755396 5.201036-19.426532 161.60046 43.302676-24.016115 89.655252z m272.826015-13.157295l17.511136 4.692719-35.294848 131.712921-17.50377-4.69272 35.287482-131.71292z m-16.023022 184.467338l-26.469295-7.086964 0.537784-19.080288c8.368806 2.932029 16.361899 5.52518 24.045583 7.587914 5.341007 1.42918 9.031827-1.23764 10.807252-7.86049l44.901295-167.575021 18.358331 4.913726-46.161036 172.282475c-3.948662 14.726446-12.781583 20.369496-26.019914 16.818648zM588.99154 473.448978l11.101928 2.976231 20.531568-76.645295 48.253237 12.928921-20.538935 76.637928 12.376403 3.315108 20.538935-76.630562 48.245871 12.921554-20.538935 76.637928 9.820086 2.637353-4.972662 18.564604-9.820086-2.622619-20.538936 76.637929c-3.027799 11.308201-10.33577 15.529439-21.864978 12.442705l-11.101928-2.976231 0.036834-18.063654c3.514014 1.399712 6.814388 2.740489 10.018993 3.59505 3.418245 0.920863 5.967194-0.913496 7.219569-5.613583l18.932949-70.656-14.085525-3.779223c-10.718849 38.307914-23.132086 68.39436-37.217611 90.244605l-10.718849-16.369267c11.698647-19.743309 22.108086-45.785324 31.014676-78.177611l0.058935-0.221007-12.376403-3.315108-20.310561 75.783367c-3.145669 11.742849-10.939856 16.059856-23.323626 12.744748l-11.101928-2.97623-0.176806-18.12259c3.514014 1.399712 6.821755 2.740489 10.24 3.661352 4.479079 1.200806 7.514245-0.736691 8.825554-5.64305l18.763511-70.022446-14.299165-3.830791c-11.094561 37.98377-25.209554 67.606101-42.138705 88.925928l-11.079828-16.700777c14.682245-18.940317 26.800806-44.525583 36.134677-76.8l-10.888288-2.917295 4.980029-18.571972z m102.679942 27.515396l15.905151-59.347798-14.092892-3.779223-15.897784 59.347798 14.085525 3.779223z m-60.408633-16.19246l15.897784-59.347799-14.085525-3.771856-15.905151 59.347799 14.092892 3.771856z m267.735482-10.402072l64.475165 17.275395-4.294906 16.015655a968.107281 968.107281 0 0 1-35.199079 52.798619c6.328173 22.520633 8.155165 41.313612 5.12 56.062158-2.688921 10.02636-6.556547 16.774446-11.543943 20.008518-7.462676 3.948662-18.24046 4.037065-32.546992 0.206273l-1.340777-22.321726c4.317007 1.841727 7.831022 3.241439 10.814618 4.037065 4.604317 0.773525 7.816288 0.721957 9.871655-0.103137 1.95223-1.303942 3.491914-3.639252 4.464345-7.26377 3.830791-14.306532 1.716489-32.031309-6.129266-53.122763 14.041324-19.117122 25.865209-36.775597 35.199079-52.805985l-24.126618-6.460777-45.822159 170.985899-19.846446-5.311539 50.905324-189.992518z m66.920978 219.054964l-21.135654-5.665151 0.780892-20.840979c6.232403 2.35741 12.302734 4.442245 18.284662 6.040864 3.418245 0.920863 6.026129-1.127137 7.28587-5.819857l14.409669-53.800518-48.24587-12.92892 5.267338-19.640173 48.24587 12.928921 5.488346-20.494734-26.469295-7.094331 3.609784-13.444604a233.457266 233.457266 0 0 1-22.12282 8.250935l-6.95436-20.163223c27.316489-8.007827 51.023194-21.334561 71.48846-39.648691l19.632806 5.267338c6.821755 24.936978 20.804144 47.899626 42.101871 69.167885l-16.590274 14.085526a181.815252 181.815252 0 0 1-16.030388-18.711943l-3.830792 14.306532-24.340259-6.527079-5.488345 20.494734 46.109468 12.354302-5.267338 19.640173-46.109468-12.354302L990.259568 677.755396c-3.661353 13.665612-11.949122 18.991885-24.332892 15.676777z m15.404202-144.597641l59.347798 15.905152c-8.899223-12.914187-15.470504-26.800806-20.148489-41.777727a199.039079 199.039079 0 0 1-39.191942 25.872575z m46.17577 88.108202c6.468144 20.26636 10.947223 37.711194 13.702446 52.179798l-20.163223 6.946993c-2.202705-15.691511-6.350273-33.504691-11.963857-53.542676l18.424634-5.584115z m-75.584461-19.33813l15.220029 13.230964c-13.304633 16.339799-27.471194 29.931741-42.234475 40.621123l-13.658245-16.472403c14.475971-9.62118 27.869007-22.049151 40.672691-37.379684z" fill="#d81e06" p-id="7648"></path></svg>