<?xml version="1.0" standalone="no"?><!DOCTYPE svg PUBLIC "-//W3C//DTD SVG 1.1//EN" "http://www.w3.org/Graphics/SVG/1.1/DTD/svg11.dtd"><svg t="1558165275613" class="icon" style="" viewBox="0 0 1024 1024" version="1.1" xmlns="http://www.w3.org/2000/svg" p-id="1943" xmlns:xlink="http://www.w3.org/1999/xlink" width="200" height="200"><defs><style type="text/css"></style></defs><path d="M511.452667 296.289821c71.153344 0 134.279131 34.42119 173.687136 87.573346l27.4883 7.419408c-41.110821-68.112602-115.791424-113.72372-201.175436-113.72372-41.23245 0-80.032308 10.703409-113.723721 29.312745l27.488301 7.419408c26.515263-11.554816 55.584749-18.001188 86.23542-18.001187z m141.941798-12.162965l15.082076 12.284594 4.621927-18.366076 16.906521-9.852002-16.906521-9.852001-4.621927-18.366077-15.082076 12.162965-19.704003-1.459556 7.541038 17.393039-7.541038 17.39304 19.704003-1.337926z m-261.625371-40.989191l-15.568595-10.825039-3.40563 19.095855-15.933484 11.798076 17.14978 8.149186 5.716594 18.122817 13.987409-13.987409 19.339114-0.608148-8.514075-16.906521 6.324741-18.487707-19.095854 3.64889z m145.225799-26.393634l-11.554817-14.960446-9.000594 17.14978-18.730966 6.446371 13.86578 13.014373-0.121629 18.974225 17.514669-9.122224 18.730965 5.230075-2.919111-18.609336 11.676446-15.690225-19.460743-2.432593z m210.17603 117.859129l-16.298373-11.311558-2.310963 18.852596-15.325336 11.189927 17.757929 8.757335 6.81126 18.122817 13.257632-13.379261h19.582373l-9.487113-17.028151 5.230075-18.122817-19.217484 2.919112z m211.513956 141.941798L142.185058 257.854852c-20.068892-5.351704-40.624302 6.568001-45.976007 26.515263l-58.382231 217.717069c-5.351704 20.068892 6.568001 40.624302 26.515263 45.976006l816.499822 218.811736c20.068892 5.351704 40.624302-6.568001 45.976007-26.515263l58.382231-217.717069c5.351704-20.068892-6.446371-40.624302-26.515264-46.097636z m5.959853 50.233044l-53.517045 199.594251c-4.013778 15.082076-19.460744 23.961041-34.542819 19.947262L78.329493 532.372966c-15.082076-4.013778-23.961041-19.460744-19.947262-34.54282l53.517044-199.594251c4.013778-15.082076 19.460744-23.961041 34.54282-19.947262l798.377005 213.946549c14.960447 4.135408 23.839411 19.582373 19.825632 34.54282zM511.452667 174.173655c156.537356 0 288.140634 106.304312 326.697232 250.678703l20.79867 5.594964c-36.975413-157.632023-178.552322-275.004632-347.495902-275.004633-102.412163 0-194.729065 43.178525-259.800927 112.264165l20.79867 5.594963c61.179713-61.179713 145.712317-99.128162 239.002257-99.128162z m86.235419 536.265114c-26.393633 11.554816-55.584749 17.879558-86.235419 17.879559-71.153344 0-134.279131-34.42119-173.687137-87.573346l-27.4883-7.419409c41.110821 68.112602 115.791424 113.72372 201.175437 113.72372 41.23245 0 80.032308-10.703409 113.72372-29.312745l-27.488301-7.297779z m-201.540325 39.043117l-14.960447-12.162965-4.621926 18.244448-16.784892 9.852001 16.784892 9.852001 4.621926 18.244448 14.960447-12.162965 19.582373 1.459556-7.541038-17.39304 7.541038-17.39304-19.582373 1.459556z m115.304906 57.895712l11.433186 14.960447 9.000594-17.14978 18.609336-6.446372-13.865779-13.014372 0.121629-18.974225-17.393039 9.122224-18.487707-5.230075 2.919112 18.609336-11.554817 15.690224 19.217485 2.432593z m-237.421072-118.102387l15.325336 12.406224 3.648889-18.609336 15.933484-10.095261-16.906521-9.973631-5.473334-18.609336L272.45041 656.800095l-19.339114-1.459556 8.270816 17.636299-6.568001 17.879558 19.217484-1.581185z m237.421072 161.159282c-156.537356 0-288.140634-106.304312-326.697233-250.678703l-20.79867-5.594963c36.975413 157.632023 178.552322 275.004632 347.495903 275.004632 102.412163 0 194.729065-43.178525 259.800926-112.264164l-20.79867-5.594964c-61.058083 61.301342-145.590688 99.128162-239.002256 99.128162z m135.860316-68.84238l15.446965 10.825039 3.284-19.095855 15.690225-11.798076-17.028151-8.270816-5.716593-18.122817-13.74415 14.109039-19.217485 0.608148 8.392446 16.906521-6.203112 18.487706 19.095855-3.648889z m0 0" fill="#32B16C" p-id="1944"></path><path d="M280.113078 385.687611l18.609336 4.743557 7.419408-29.069486 21.893337 5.594964-7.419409 29.069485 18.122818 4.621927-5.473335 21.528448-18.122817-4.621927-7.419409 29.069486c6.081482 0 11.554816 0 16.420003-0.24326l-2.554223-5.838223c22.988003-4.257038 36.975413-15.811854 41.718969-34.664449l-21.771707-5.594964 5.594964-21.650077 102.533793 26.150374c-3.040741 10.581779-6.689631 22.501485-10.946668 35.880746s-7.541038 21.650077-10.095261 24.812448c-2.432593 3.162371-5.473334 5.473334-8.878964 6.93289-3.52726 1.459556-7.662668 1.824445-12.527854 1.337926-4.865186-0.608148-15.446965-2.797482-31.745338-6.81126 0.12163-6.324742 0-14.473928-0.608148-24.32593 8.392446 2.554223 15.811854 4.621927 22.258225 6.203112 4.013778 0.973037 7.297779 0.729778 9.973631-0.729778 2.675852-1.459556 4.986816-5.108445 6.689631-10.703409 1.824445-5.716593 3.40563-11.433187 4.986815-17.393039l-31.623708-8.149186c-7.419408 27.123411-26.028745 44.151562-55.949638 51.206081-1.702815-4.500297-3.770519-9.608742-6.446371-15.446965-2.189334 8.392446-4.013778 15.568595-5.230075 21.528447l-17.757928 0.608149-11.554817 45.124599c-1.581185 6.081482-3.892149 10.33852-7.176149 13.014372-3.284 2.675852-7.176149 3.648889-11.919705 3.162371-4.621927-0.608148-12.041335-2.067704-22.014966-4.500297 0.973037-7.05452 1.459556-14.838817 1.581185-23.231263 5.108445 1.216296 9.487112 2.310963 12.892743 3.162371 3.40563 0.973037 5.838223-1.094667 7.054519-5.959853l7.662668-29.920893-19.217484 0.729778 4.743556-25.785485 20.79867 0.486518 8.757334-34.42119-18.609336-4.743556 5.351705-21.163559z m29.556004 157.023875l20.190521-79.1809 95.722533 24.447559-20.190522 79.1809-23.109633-5.838223 2.432593-9.243853-49.624896-12.649484-2.432593 9.243854-22.988003-5.959853z m87.573346-40.016154l-49.624896-12.649483-7.297779 28.582967 49.624896 12.649483 7.297779-28.582967zM444.556361 496.49222l46.462525 11.919705c2.675852-1.824445 5.108445-3.648889 7.541038-5.594963l-37.583561-9.608742 13.014372-50.719563 131.11676 33.448153-13.014372 50.719562-70.423566-18.001187c-2.310963 1.946074-4.621927 3.892149-6.93289 5.716593l90.370828 23.109633-4.257038 16.541632-32.231856-8.270816c10.46015 11.554816 21.528448 19.947262 33.204893 24.934078-4.621927 5.716593-9.608742 11.798076-14.960446 18.366077-8.392446-6.203112-16.176743-13.500891-23.352892-22.136596-1.337926 5.230075-2.797482 10.581779-4.378668 15.933484-3.892149 13.136002-13.62252 18.122817-29.191115 14.717187-6.324742-1.581185-14.109039-3.648889-23.596152-6.203112 0.851408-8.878964 1.337926-15.082076 1.459556-18.852596 9.973631 3.040741 17.39304 5.230075 22.258226 6.446372 4.135408 1.216296 6.689631 0.486519 7.662667-2.067704 1.216296-3.162371 2.310963-6.446371 3.405631-9.973631l-35.272598-9.000594c-11.919705 15.203706-29.677634 22.744744-53.030526 22.623114-1.581185-6.93289-4.013778-14.109039-7.419409-21.893336 15.568595 2.067704 27.853189-0.243259 36.610524-6.811261l-17.514669-4.500296 1.581185-6.324742c-9.608742 3.284-19.582373 5.716593-29.920893 7.176149-1.824445-9.122224-3.892149-16.298373-6.081482-21.528448 13.62252-0.973037 25.907115-3.284 36.975412-6.932889l-26.880152-6.811261 4.378668-16.420002z m21.041929-84.167716l43.056895 10.946668 2.189333-8.392445 23.109633 5.838223-2.189333 8.392445 29.312745 7.419409 2.189333-8.392446 23.109633 5.838223-2.189333 8.392446 44.029932 11.311557-4.257038 16.541632-44.029932-11.311557-1.581185 6.203112-23.109633-5.838223 1.581185-6.203112-29.312745-7.419409-1.581185 6.203112-23.109633-5.838223 1.581185-6.203112-43.056895-10.946668 4.257038-16.541632z m29.920893 118.467276l22.014966 5.594964c-0.851408 2.432593-1.824445 4.743556-2.919112 6.93289l38.678228 9.852002c-2.797482-4.257038-5.473334-8.757335-8.149186-13.500891l-49.381637-12.649484c-4.743556 2.797482-9.608742 5.351704-14.595558 7.662668l11.554817 2.919112c1.216296-2.067704 2.067704-4.378667 2.797482-6.811261z m-8.149187-45.002969l85.019124 21.771707 1.702815-6.93289-85.019124-21.771707-1.702815 6.93289z m91.222236-2.554223l-85.019124-21.771706-1.702815 6.932889 85.019124 21.771707 1.702815-6.93289zM711.898325 464.260363l26.150374 6.689631-7.784297 30.407412 64.220454 16.420002-24.690819 96.57394-25.420596-6.446371 3.040741-11.919706-38.678228-9.852001-14.109039 55.463119-26.150374-6.68963 14.109039-55.46312-38.678228-9.852001-3.16237 12.406224-25.420597-6.568001 24.812448-97.060458 64.220454 16.420002 7.541038-30.529042z m-62.15275 81.491864l38.678228 9.852002 9.487113-37.218673-38.678228-9.852001-9.487113 37.218672z m113.115572-10.703409l-38.678227-9.852001-9.487113 37.218672 38.678228 9.852001 9.487112-37.218672z" fill="#32B16C" p-id="1945"></path></svg>