<?xml version="1.0" standalone="no"?><!DOCTYPE svg PUBLIC "-//W3C//DTD SVG 1.1//EN" "http://www.w3.org/Graphics/SVG/1.1/DTD/svg11.dtd"><svg t="1560998289197" class="icon" style="" viewBox="0 0 1024 1024" version="1.1" xmlns="http://www.w3.org/2000/svg" p-id="13093" xmlns:xlink="http://www.w3.org/1999/xlink" width="256" height="256"><defs><style type="text/css"></style></defs><path d="M132.764 506.426c24.17-0.818 48.433-0.214 72.637-0.214v0.154c21.783 0 43.661 1.088 65.328-0.451 10.937-0.787 29.416 8.458 29.943-14.142 0.364-16.526-4.1-33.298-22.978-35.533-50.42-5.948-101.265-6.466-151.65 0.453-12.16 1.663-26.187 11.544-21.843 27.768 3.36 12.72 11.971 22.509 28.563 21.965M144.098 403.974c38.689-0.152 77.738-3.144 115.997 0.905 46.998 5.014 81.4-10.633 112.264-54.624-80.06 0-154.558 0.361-229.048-0.243-20.23-0.177-39.3 3.052-38.474 25.924 0.762 20.726 18.794 28.098 39.261 28.038M382.805 617.734c11.062-0.09 27.23-1.75 12.65-16.798-17.41-17.978-33.03-38.919-65.146-37.678-61.541 2.418-123.231 1.3-184.862 0.302-21.94-0.365-42.01 4.593-41.186 27.646 0.787 22.236 21.384 27.614 42.925 27.13 37.433-0.844 74.922-0.24 112.386-0.24v-0.24c41.098 0 82.171 0.212 123.233-0.122M620.289 748.894c-28.292 20.667-68.08 8.973-100.47 27.223-9.957 5.621-18.243 12.69-23.589 20.727-28.079 42.151-53.897 85.746-81.833 128.016-16.47 24.958-10.139 46.861 10.633 62.181 22.19 16.315 49.17 16.043 66.986-7.735 50.232-66.922 98.847-135.029 147.615-202.977 13.534-18.852 1.615-24.93-19.342-27.435" fill="#00bcd4" p-id="13094"></path><path d="M916.925 388.109c-18.092-40.942-52.922-21.544-82.044-23.205-27.435-1.573-55.582 29.306-78.828 8.944-20.08-17.585-31.813-46.89-40.985-73.118-11.848-33.869-39.352-57.737-61.23-93.059 77.523 29.55 124.182 2.028 146.824-34.321 26.067-41.846 18.907-96.742-16.468-129.013-35.752-32.602-89.656-37.524-129.345-11.72-50.758 32.962-57.943 75.141-23.628 158.742-55.118-17.102-100.77-42.994-149.291-61.938-19.343-7.551-37.71-26.405-60.201-17.312-59.517 24.08-118.798 48.977-176.666 76.622-35.7 17.042-43.3 41.393-28.266 68.523 12.247 22.15 43.17 29.248 73.698 16.075 26.13-11.271 52.46-22.328 77.526-35.684 41.973-22.36 80.023-22.721 120.998 5.5 26.703 18.398 22.855 29.577 3.148 48.099-44.647 41.937-92.307 81.004-129.59 130.011-27.38 35.981-26.091 73.145 6.72 104.147 40.398 38.193 82.685 74.507 123.696 112.095 12.708 11.602 23.833 23.296-6.022 28.795-39.996 7.372-79.321 17.978-119.198 26.046-29.152 5.862-53.046 32.66-48.034 56.197 5.897 27.736 40.637 45.533 70.523 38.554 78.953-18.462 157.913-36.68 237.295-53.084 40.7-8.4 59.77-48.554 35.263-80.943-22.793-30.065-47.297-58.858-69.3-89.434-51.645-71.756-51.211-72.06 13.843-134.845 36.58-35.287 36.264-35.106 64.07 10.82 12.107 19.94 22.43 44.232 52.258 41.877 58.85-4.622 115.808-19.549 172.453-34.568 21.455-5.69 30.013-37.895 20.781-58.803" fill="#00bcd4" p-id="13095"></path></svg>