<?xml version="1.0" standalone="no"?><!DOCTYPE svg PUBLIC "-//W3C//DTD SVG 1.1//EN" "http://www.w3.org/Graphics/SVG/1.1/DTD/svg11.dtd"><svg t="1567498569111" class="icon" viewBox="0 0 1024 1024" version="1.1" xmlns="http://www.w3.org/2000/svg" p-id="5043" xmlns:xlink="http://www.w3.org/1999/xlink" width="256" height="256"><defs><style type="text/css"></style></defs><path d="M273.61953125 273.70390625A266.26640625 266.26640625 0 0 0 200.2765625 512c15.8625-71.99296875 53.15625-142.340625 111.2484375-200.475C369.659375 253.36953125 440.00703125 216.096875 512 200.234375c-83.7421875-15.778125-173.6015625 8.66953125-238.38046875 73.46953125z" fill="#ffffff" p-id="5044"></path><path d="M905.3984375 767.5296875l-100.2796875-100.2796875a97.2421875 97.2421875 0 0 0-76.46484375-28.11796875c94.31015625-136.41328125 80.68359375-324.9703125-40.77421875-446.44921875-136.7296875-136.771875-358.4671875-136.771875-495.2390625 0-136.7296875 136.771875-136.7296875 358.53046875 0 495.30234375 121.4578125 121.47890625 309.8671875 135 446.36484375 40.68984375-2.109375 27.421875 7.2984375 55.6453125 28.11796875 76.46484375l100.2796875 100.30078125c37.96875 37.884375 100.00546875 37.884375 137.88984375 0 38.07421875-37.884375 38.07421875-99.9421875 0.10546875-137.9109375zM647.2109375 647.2109375c-114.26484375 114.26484375-299.42578125 114.26484375-413.6484375 0-114.26484375-114.26484375-114.26484375-299.46796875 0-413.7328125 114.22265625-114.26484375 299.38359375-114.26484375 413.6484375 0 114.24375 114.18046875 114.24375 299.46796875 0 413.7328125z" fill="#ffffff" p-id="5045"></path></svg>