<?xml version="1.0" standalone="no"?><!DOCTYPE svg PUBLIC "-//W3C//DTD SVG 1.1//EN" "http://www.w3.org/Graphics/SVG/1.1/DTD/svg11.dtd"><svg t="1558323379115" class="icon" style="" viewBox="0 0 1024 1024" version="1.1" xmlns="http://www.w3.org/2000/svg" p-id="28661" xmlns:xlink="http://www.w3.org/1999/xlink" width="256" height="256"><defs><style type="text/css"></style></defs><path d="M405.8 474.3L365 643.7c-0.9 3.9 0.2 8 3.1 10.8 2.2 2.2 5.1 3.4 8.1 3.4 0.9 0 1.8-0.1 2.7-0.3L549.3 617c4.1-0.9 7.3-4 8.4-8.1 1.2-4 0-8.3-3-11.3L425.1 468.8c-2.9-2.9-7.2-4.1-11.2-2.9-4 1.1-7.1 4.3-8.1 8.4z" fill="#AC74AF" p-id="28662"></path><path d="M861.6 473.2h-53.9c-6.3 0-11.5 5.2-11.5 11.5v364.4H173V227.8h365.5c6.3 0 11.5-5.2 11.5-11.5v-53.7c0-6.3-5.2-11.5-11.5-11.5h-377c-36.1 0-65.4 29.2-65.4 65.2v644.4c0 36 29.3 65.2 65.4 65.2h646.2c36.1 0 65.4-29.2 65.4-65.2V484.8c0-6.4-5.2-11.6-11.5-11.6z" fill="#AC74AF" p-id="28663"></path><path d="M924.4 230.3L794.8 101.5c-4.4-4.4-11.8-4.4-16.2 0L461.7 416.3c-2.2 2.2-3.4 5.1-3.4 8.2s1.2 6 3.4 8.2l129.6 128.9c2.2 2.2 5.2 3.3 8.1 3.3 2.9 0 5.9-1.1 8.1-3.3l316.9-314.9c2.2-2.2 3.4-5.1 3.4-8.2 0.1-3.1-1.2-6.1-3.4-8.2z" fill="#AC74AF" p-id="28664"></path></svg>