<?xml version="1.0" standalone="no"?><!DOCTYPE svg PUBLIC "-//W3C//DTD SVG 1.1//EN" "http://www.w3.org/Graphics/SVG/1.1/DTD/svg11.dtd"><svg t="1558358413651" class="icon" style="" viewBox="0 0 1024 1024" version="1.1" xmlns="http://www.w3.org/2000/svg" p-id="9126" xmlns:xlink="http://www.w3.org/1999/xlink" width="200" height="200"><defs><style type="text/css"></style></defs><path d="M732.293 878.171c82.816 0 165.633-0.011 248.45 0.009 19.77 0.005 34.171 14.132 33.686 32.921-0.439 17.108-14.5 30.854-32.053 31.177-8.163 0.149-16.331 0.026-24.496 0.026-157.468 0-314.937 0.003-472.406-0.005-15.902-0.001-27.853-7.547-32.792-20.623-7.983-21.135 6.945-43.354 29.662-43.396 83.316-0.156 166.633-0.063 249.95-0.063l-0.001-0.046zM795.916 741.324c61.82 0 123.639-0.026 185.458 0.017 18.294 0.014 32.378 13.149 33.004 30.562 0.644 17.886-12.76 32.521-30.666 33.477-1.164 0.063-2.332 0.04-3.499 0.04-122.472 0.001-244.943 0.008-367.416-0.007-17.854-0.002-30.331-9.852-33.712-26.479-3.777-18.585 10.851-37.219 29.875-37.499 20.324-0.3 40.656-0.104 60.985-0.107 41.991-0.009 83.981-0.004 125.971-0.004zM854.409 605.199c42.325 0.001 84.649-0.041 126.976 0.019 19.703 0.028 33.972 14.882 32.938 34.068-0.909 16.929-15.292 30.018-33.199 30.03-52.491 0.038-104.979 0.015-157.471 0.015-31.494 0-62.988 0.047-94.482-0.021-16.513-0.034-28.594-8.917-32.885-23.907-5.408-18.896 8.537-39.265 28.157-39.892 21.141-0.677 42.316-0.277 63.479-0.306 22.162-0.028 44.324-0.006 66.487-0.006z" fill="#009688" p-id="9127" data-spm-anchor-id="a313x.7781069.0.i10" class="selected"></path><path d="M825.097 197.651c-26-27.468-52.541-54.435-80.253-80.165-21.984-20.413-48.577-31.376-78.574-32.612-31.332-1.291-58.235 9.369-80.606 31.762C420.318 282.143 254.873 447.549 89.412 612.94c-2.576 2.574-4.125 5.358-5.077 8.862-15.44 56.808-31.006 113.58-46.506 170.37-8.629 31.616-17.485 63.174-25.685 94.902-6.196 23.975 15.506 45.969 39.663 40.736 5.191-1.125 10.311-2.594 15.439-3.992 79.542-21.704 159.08-43.424 238.62-65.137 4.971-1.356 9.943-2.71 14.929-4.019 2.574-0.677 5.07 0.688 7.806-2.051C494.245 686.697 660.057 520.95 825.829 355.163c20.549-20.55 30.748-45.462 30.841-61.734-0.016-43.358-11.83-74.925-31.573-95.778zM93.137 846.608l47.153-173.02 125.805 125.805-172.958 47.215zM640.145 434.33c-105.75 105.572-211.406 211.24-317.081 316.892-1.047 1.049-2.146 2.047-3.15 3.002-1.688-0.175-2.374-1.449-3.282-2.354-9.447-9.4-18.862-18.833-28.286-28.257-32.629-32.629-65.215-65.304-97.96-97.815-2.994-2.972-2.858-4.415 0.058-7.326a266108.825 266108.825 0 0 0 316.976-317c3.196-3.202 4.692-2.946 7.715 0.093 41.595 41.803 83.285 83.512 125.112 125.084 3.215 3.196 2.913 4.671-0.102 7.681z m137.509-138.343c-1.375 1.868-2.974 3.593-4.614 5.238-24.016 24.054-48.107 48.033-72.028 72.181-2.912 2.939-4.428 3.534-7.723 0.219-41.703-41.948-83.562-83.743-125.481-125.474-2.67-2.659-3.03-4.052-0.138-6.916 24.516-24.261 48.887-48.667 73.217-73.115 7.978-8.015 17.598-11.645 28.746-11.775 12.185 0.24 23.051 4.313 31.665 12.762 23.906 23.449 47.785 46.944 71.026 71.047 15.646 16.225 17.307 39.558 5.33 55.833z" fill="#388BEA" p-id="9128"></path></svg>