<?xml version="1.0" standalone="no"?><!DOCTYPE svg PUBLIC "-//W3C//DTD SVG 1.1//EN" "http://www.w3.org/Graphics/SVG/1.1/DTD/svg11.dtd"><svg t="1572441593492" class="icon" viewBox="0 0 1345 1024" version="1.1" xmlns="http://www.w3.org/2000/svg" p-id="9612" xmlns:xlink="http://www.w3.org/1999/xlink" width="157.6171875" height="120"><defs><style type="text/css"></style></defs><path d="M453.824 427.904c35.68-30.48 44.416-20.592 44.656-20.32l0.016-0.08C498.496 407.504 490 397.008 453.824 427.904z" p-id="9613" fill="#ffffff"></path><path d="M1344.432 112c0.08-0.064-0.144 0.064-0.464 0.256 0.128-0.08 0.24-0.096 0.368-0.192C1344.368 112.032 1344.4 112.016 1344.432 112z" p-id="9614" fill="#ffffff"></path><path d="M945.904 233.808c-2.144-64.56-13.856-126.992-55.056-179.424-42.032-53.312-97.952-59.824-151.28-16.912-50.288 40.304-84.48 93.632-114.848 150.384-13.872 26.016-5.632 42.928 13.84 55.92 22.56 14.752 39.872 4.784 54.656-16.896 23.408-35.552 42.016-75.424 81.472-100.576C758.656 297.968 650.288 471.328 542.4 536.816c-6.528 4.336-12.624 7.776-17.792 10.832 1.712-0.448 3.472-0.88 5.168-1.744-7.36 4.352-23.344 13.872-31.184 18.208-0.416 0-0.416 0.448-0.416 0.448-1.312 0.416-2.592-16.752-3.472-16.32C495.584 547.792 496.864 576 498.176 528c0 0 0 0 0.416 0 0.448 0-0.096-7.888-3.088-24.336-25.568-141.744-130.416-184.128-253.072-111.312-81.488 48.544-83.216 148.784-5.216 202.976C271.504 618.72 308.736 624 346.88 624c0.464 0 0.464 0 0.464 0l15.584 0c15.152 0 13.824 0 35.968-0.464 17.36-3.888 23.856 23.936 8.224 62.912-41.568 106.624-113.52 190.656-203.68 259.552-26.016 19.568-53.328 37.104-88 60.896 35.984 9.968 59.808 11.36 83.216-2.944 143.872-89.744 261.792-201.472 302.944-373.984 2.208-9.968 5.664-17.776 10.432-24.288 0.416-0.432 0.88-0.384 1.296-0.384 1.312-1.728 2.592-2.576 3.936-3.904 94.912-42.464 142.992-88.848 142.992-89.296l0.48-0.88c29.456-26.432 55.488-57.216 78.848-91.44 54.64-79.744 94.96-166.016 122.672-260.48 10.416 29.904 12.56 58.512 19.92 86.24 5.664 19.504 22.16 35.968 44.672 32.08C950.224 273.68 946.768 251.152 945.904 233.808zM421.84 585.344c-41.984 3.904-34.624 10.848-84.048-1.728-45.968-16.464-77.584-52.896-76.272-97.104 1.264-35.968 18.192-66.736 49.856-78.88 33.776-13.44 62.384 1.728 83.232 29.904 23.776 32.944 36.832 70.224 36.832 112.256C432.672 567.136 429.216 578.4 421.84 585.344z" p-id="9615" fill="#ffffff"></path><path d="M1343.968 112.256c-1.12 0.704-2.128 1.136-3.008 1.376C1314.72 129.568 1340.32 114.336 1343.968 112.256z" p-id="9616" fill="#ffffff"></path></svg>