<?xml version="1.0" standalone="no"?><!DOCTYPE svg PUBLIC "-//W3C//DTD SVG 1.1//EN" "http://www.w3.org/Graphics/SVG/1.1/DTD/svg11.dtd"><svg t="1574433357518" class="icon" viewBox="0 0 1024 1024" version="1.1" xmlns="http://www.w3.org/2000/svg" p-id="39498" data-spm-anchor-id="a313x.7781069.0.i33" width="220" height="220" xmlns:xlink="http://www.w3.org/1999/xlink"><defs><style type="text/css"></style></defs><path d="M511.488 95.232c230.4 0 416.768 186.88 416.768 416.768s-186.88 416.768-416.768 416.768S94.208 742.4 94.208 512c0-230.4 186.88-416.768 417.28-416.768z" fill="#817EF8" p-id="39499"></path><path d="M928.256 512c0-230.4-186.88-416.768-416.768-416.768S94.208 281.6 94.208 512s186.88 416.768 416.768 416.768 417.28-186.368 417.28-416.768z m-429.568 369.664c-211.456 0-382.464-171.52-382.464-382.976s171.52-382.976 382.976-382.976 382.976 171.52 382.976 382.976-172.032 382.976-383.488 382.976z" fill="#00bcd4" p-id="39500" data-spm-anchor-id="a313x.7781069.0.i28" class=""></path><path d="M498.688 116.224c-211.456 0-382.464 171.52-382.464 382.464s171.52 382.976 382.976 382.976 382.976-171.52 382.976-382.976-172.032-382.464-383.488-382.464z m-16.384 695.296c-182.272 0-330.24-147.968-330.24-330.24s147.968-330.24 330.24-330.24 330.24 147.968 330.24 330.24-147.456 330.24-330.24 330.24z" fill="#00bcd4" p-id="39501" data-spm-anchor-id="a313x.7781069.0.i25" class=""></path><path d="M482.304 151.04c-182.272 0-330.24 147.968-330.24 330.24s147.968 330.24 330.24 330.24 330.24-147.968 330.24-330.24-147.456-330.24-330.24-330.24zM465.92 740.864c-153.6 0-278.016-124.416-278.016-278.016S312.832 185.344 465.92 185.344s278.016 124.416 278.016 278.016S619.52 740.864 465.92 740.864z" fill="#00bcd4" p-id="39502" data-spm-anchor-id="a313x.7781069.0.i27" class=""></path><path d="M465.92 185.344c-153.6 0-278.016 124.416-278.016 278.016S312.32 741.376 465.92 741.376s278.016-124.416 278.016-278.016S619.52 185.344 465.92 185.344zM450.048 670.72c-124.416 0-225.28-100.864-225.28-225.28s100.864-225.28 225.28-225.28 225.28 100.864 225.28 225.28-100.864 225.28-225.28 225.28z" fill="#00bcd4" p-id="39503" data-spm-anchor-id="a313x.7781069.0.i26" class=""></path><path d="M450.048 219.648c-124.416 0-225.28 100.864-225.28 225.28s100.864 225.28 225.28 225.28 225.28-100.864 225.28-225.28-100.864-225.28-225.28-225.28z m-16.384 380.416c-95.744 0-173.056-77.312-173.056-173.056S337.92 253.952 433.664 253.952s173.056 77.312 173.056 173.056-77.824 173.056-173.056 173.056z" fill="#00bcd4" p-id="39504" data-spm-anchor-id="a313x.7781069.0.i30" class=""></path><path d="M433.664 253.952c-95.744 0-173.056 77.312-173.056 173.056s77.312 173.056 173.056 173.056 173.056-77.312 173.056-173.056-77.824-173.056-173.056-173.056z m-16.384 275.968C350.72 529.92 296.96 476.16 296.96 409.6s53.76-120.32 120.32-120.32S537.6 342.528 537.6 409.088s-53.76 120.832-120.32 120.832z" fill="#00bcd4" p-id="39505" data-spm-anchor-id="a313x.7781069.0.i29" class=""></path><path d="M296.96 409.088c0 66.56 53.76 120.32 120.32 120.32S537.6 475.648 537.6 409.088 483.84 288.768 417.28 288.768 296.96 342.528 296.96 409.088z" fill="#00bcd4" p-id="39506" data-spm-anchor-id="a313x.7781069.0.i34" class="selected"></path><path d="M511.488 113.152c53.76 0 105.984 10.752 155.136 31.232 47.616 19.968 90.112 49.152 126.976 85.504 36.864 36.352 65.536 79.36 85.504 126.976 20.992 49.152 31.232 101.376 31.232 155.136s-10.24 105.984-31.232 155.648c-19.968 47.616-49.152 90.112-85.504 126.976s-79.36 65.536-126.976 85.504c-49.152 20.992-101.376 31.232-155.648 31.232s-105.984-10.752-155.136-31.232c-47.616-19.968-90.112-49.152-126.976-85.504S163.84 714.752 143.872 667.648C122.88 617.984 112.64 565.76 112.64 512s10.752-105.984 31.232-155.136c19.968-47.616 49.152-90.112 85.504-126.976s79.36-65.536 126.976-85.504c48.64-20.992 101.376-31.232 155.136-31.232m0-17.92c-230.4 0-416.768 186.88-416.768 416.768s186.88 416.768 416.768 416.768 416.768-186.88 416.768-416.768c0-230.4-186.88-416.768-416.768-416.768z" fill="#00bcd4" p-id="39507" data-spm-anchor-id="a313x.7781069.0.i32" class=""></path><path d="M219.648 321.024c-3.584 0-7.168-1.024-10.24-3.072-8.192-5.632-10.24-16.896-4.608-25.088 42.496-60.928 94.208-94.208 96.256-95.232 8.192-5.12 19.456-2.56 24.576 5.632s2.56 19.456-5.632 24.576c-0.512 0.512-48.128 30.72-86.016 85.504-3.072 5.12-8.704 7.68-14.336 7.68z m-37.888 60.416c-3.072 0-6.144-0.512-8.704-2.048-8.704-4.608-11.776-15.872-6.656-24.576l5.632-9.728c4.608-8.704 15.872-11.776 24.576-6.656 8.704 5.12 11.776 15.872 6.656 24.576l-5.632 9.728c-3.584 5.632-9.728 8.704-15.872 8.704z" fill="#FFFFFF" p-id="39508"></path><path d="M632.832 582.656c-28.672 0-53.76 13.824-69.632 34.816l-137.216-68.608c2.048-7.68 3.072-15.872 3.072-24.064 0-9.216-1.536-17.92-4.096-26.112L562.176 430.08c15.872 22.016 41.472 36.352 71.168 36.352 48.128 0 87.04-38.912 87.04-87.04s-38.912-87.04-87.04-87.04-87.04 38.912-87.04 87.04c0 3.584 0 6.656 0.512 9.728L402.432 461.824c-15.872-14.848-36.864-24.064-59.904-24.064-48.128 0-87.04 38.912-87.04 87.04s38.912 87.04 87.04 87.04c24.064 0 46.08-9.728 61.952-25.6l142.848 71.68c-0.512 4.096-1.024 7.68-1.024 11.776 0 48.128 38.912 87.04 87.04 87.04s87.04-38.912 87.04-87.04-39.424-87.04-87.552-87.04z" fill="#ffffff" p-id="39509" data-spm-anchor-id="a313x.7781069.0.i31" class=""></path></svg>