<?xml version="1.0" standalone="no"?><!DOCTYPE svg PUBLIC "-//W3C//DTD SVG 1.1//EN" "http://www.w3.org/Graphics/SVG/1.1/DTD/svg11.dtd"><svg t="1572442499435" class="icon" viewBox="0 0 1024 1024" version="1.1" xmlns="http://www.w3.org/2000/svg" p-id="11145" xmlns:xlink="http://www.w3.org/1999/xlink" width="120" height="120"><defs><style type="text/css"></style></defs><path d="M807.973547 416.48128c-10.171733 0-19.79392 2.27328-28.475734 6.2464-5.71392-32.11264-33.706667-56.516267-67.46112-56.516267-10.16832 0-19.785387 2.271573-28.463786 6.24128-5.679787-32.1536-33.693013-56.59648-67.474774-56.59648-9.728 0-18.966187 2.051413-27.347626 5.70368V231.9872c0-37.881173-30.708053-68.590933-68.590934-68.590933-37.879467 0-68.58752 30.70976-68.58752 68.590933v281.299627H404.599467c-29.277867 0.047787-52.998827 23.770453-53.046614 53.04832v194.86208a64.68096 64.68096 0 0 0 37.853867 58.862933l39.330133 18.146987c4.5824 2.2272 8.05888 5.906773 10.3424 10.24512H399.479467l1.558186 175.547733 39.681707-0.008533h387.4816v-0.08704h20.666027V848.452267h-46.7968v-0.433494a18.056533 18.056533 0 0 1 5.64224-13.023573l48.7936-47.752533a66.592427 66.592427 0 0 0 20.056746-47.837867V485.070507c0-37.881173-30.70976-68.589227-68.590933-68.589227z m26.8288 323.357013a25.265493 25.265493 0 0 1-7.555414 18.059947l-48.7936 47.752533a59.55584 59.55584 0 0 0-17.363626 42.368v0.433494H482.56512c-3.585707-20.6848-16.996693-38.652587-36.462933-47.663787l-39.765334-18.408107a23.441067 23.441067 0 0 1-13.5424-21.183146V566.335147a11.808427 11.808427 0 0 1 11.80672-11.721387h46.97088v66.418347h41.239894V231.9872c0.011947-15.086933 12.240213-27.3152 27.327146-27.327147 15.104-0.011947 27.357867 12.22144 27.37152 27.327147v318.460587h41.239894V384.443733c0.011947-15.086933 12.238507-27.313493 27.32544-27.32544 15.104-0.011947 27.357867 12.22144 27.37152 27.32544v166.004054h41.239893v-115.647147c0.011947-15.086933 12.238507-27.3152 27.327147-27.327147 15.104-0.011947 27.357867 12.223147 27.369813 27.327147v115.647147h41.239893v-68.258134c2.05312-12.499627 12.42624-22.155947 25.332054-22.884693 15.080107-0.84992 27.994453 10.683733 28.844373 25.765547v254.767786zM368.785067 254.789973l40.378026-22.434133 20.02944 36.048213-40.37632 22.43584zM310.140587 208.848213l0.82432-41.239893 92.463786 1.850027-0.82432 41.239893zM371.86048 126.03392l21.766827-35.027627 39.304533 24.424107-21.76512 35.027627zM484.824747 81.872213L441.847467 0l-36.524374 19.160747 42.99264 81.882453zM505.458347 77.385387l2.230613-46.225067 41.192107 1.988267-2.230614 46.225066zM566.580907 85.82656l50.7136-77.32224L651.776 31.11936 601.064107 108.4416zM615.1168 124.301653l44.453547-21.947733 18.25792 36.97664-44.45184 21.947733zM634.402133 223.010133l2.983254-41.137493 92.22144 6.685013-2.981547 41.135787z" p-id="11146" fill="#ffffff"></path><path d="M604.02688 276.923733l23.432533-33.93536 38.009174 26.246827-23.432534 33.933653z" p-id="11147" fill="#ffffff"></path><path d="M800.59392 294.58432m-23.181653 0a23.181653 23.181653 0 1 0 46.363306 0 23.181653 23.181653 0 1 0-46.363306 0Z" p-id="11148" fill="#ffffff"></path><path d="M358.413653 416.91648m-30.12608 0a30.12608 30.12608 0 1 0 60.25216 0 30.12608 30.12608 0 1 0-60.25216 0Z" p-id="11149" fill="#ffffff"></path><path d="M828.202667 157.34272c14.097067 0 25.524907-11.42784 25.524906-25.526613v-0.17408c-0.047787-14.04928-11.475627-25.398613-25.524906-25.350827-14.097067 0-25.524907 11.42784-25.524907 25.524907s11.42784 25.526613 25.524907 25.526613zM180.084053 302.820693c-18.029227 0-32.64512 14.614187-32.646826 32.643414v0.003413c-0.008533 18.029227 14.598827 32.651947 32.628053 32.662187 18.029227 0.01024 32.651947-14.598827 32.662187-32.626347v-0.034133c0-18.030933-14.614187-32.648533-32.643414-32.648534zM256.918187 536.879787h-0.172374c-24.359253 0.047787-44.066133 19.831467-44.018346 44.19072 0.047787 24.359253 19.831467 44.066133 44.19072 44.020053 24.359253-0.049493 44.066133-19.83488 44.018346-44.192427 0-24.311467-19.70688-44.018347-44.018346-44.018346z" p-id="11150" fill="#ffffff"></path></svg>