<?xml version="1.0" standalone="no"?><!DOCTYPE svg PUBLIC "-//W3C//DTD SVG 1.1//EN" "http://www.w3.org/Graphics/SVG/1.1/DTD/svg11.dtd"><svg t="1574433069704" class="icon" viewBox="0 0 1024 1024" version="1.1" xmlns="http://www.w3.org/2000/svg" p-id="35873" xmlns:xlink="http://www.w3.org/1999/xlink" width="120" height="120"><defs><style type="text/css"></style></defs><path d="M512 0c282.168889 0 512 228.693333 512 512S794.168889 1024 512 1024C228.693333 1024 0 794.168889 0 512S228.693333 0 512 0z" fill="#497DFA" p-id="35874"></path><path d="M398.222222 615.537778c0 10.24 4.551111 15.928889 12.515556 15.928889h43.235555c3.413333 0 6.826667-2.275556 9.102223-6.826667 2.275556-4.551111 3.413333-19.342222 4.551111-43.235556l30.72 9.102223c-2.275556 34.133333-6.826667 54.613333-12.515556 61.44-5.688889 6.826667-14.791111 9.102222-25.031111 9.102222h-59.164444c-23.893333 0-35.271111-13.653333-35.271112-39.822222v-78.506667h-51.2v1.137778c-1.137778 32.995556-10.24 60.302222-28.444444 80.782222-17.066667 18.204444-44.373333 32.995556-81.92 43.235556l-18.204444-28.444445c36.408889-9.102222 61.44-20.48 75.093333-35.271111 12.515556-15.928889 19.342222-35.271111 21.617778-59.164444v-1.137778H193.422222v-30.72h299.235556v30.72H398.222222v71.68zM243.484444 480.142222v-30.72h193.422223v30.72h-193.422223zM455.111111 416.426667H227.555556v48.924444h-34.133334v-80.782222h127.431111c-3.413333-9.102222-6.826667-18.204444-11.377777-27.306667l36.408888-5.688889c3.413333 9.102222 7.964444 20.48 11.377778 34.133334h129.706667V466.488889H455.111111v-50.062222z m290.133333 109.226666c1.137778 4.551111 2.275556 10.24 4.551112 17.066667 14.791111-25.031111 26.168889-54.613333 35.271111-86.471111l29.582222 12.515555c-13.653333 44.373333-30.72 81.92-52.337778 111.502223 3.413333 7.964444 6.826667 14.791111 11.377778 20.48 10.24 14.791111 18.204444 22.755556 23.893333 22.755555 4.551111 0 9.102222-17.066667 13.653334-50.062222l29.582222 15.928889C831.715556 637.155556 819.2 659.911111 803.271111 659.911111c-14.791111 0-30.72-10.24-46.648889-30.72-4.551111-6.826667-10.24-13.653333-14.791111-22.755555-22.755556 25.031111-48.924444 44.373333-79.644444 58.026666L643.982222 637.155556c32.995556-14.791111 60.302222-36.408889 83.057778-63.715556-4.551111-11.377778-9.102222-25.031111-12.515556-39.822222-6.826667-27.306667-12.515556-61.44-14.791111-103.537778h-110.364444v50.062222h83.057778c-1.137778 61.44-3.413333 100.124444-9.102223 117.191111-5.688889 13.653333-17.066667 21.617778-35.271111 21.617778-6.826667 0-17.066667 0-28.444444-1.137778l-7.964445-28.444444c18.204444 1.137778 29.582222 1.137778 34.133334 1.137778 5.688889 0 10.24-4.551111 11.377778-11.377778 2.275556-7.964444 3.413333-29.582222 3.413333-67.128889h-51.2v2.275556c-1.137778 62.577778-14.791111 112.64-40.96 151.324444L523.377778 643.982222c21.617778-30.72 32.995556-73.955556 32.995555-129.706666v-113.777778h141.084445c0-10.24-1.137778-27.306667-1.137778-50.062222h32.995556c0 12.515556 0 29.582222 1.137777 50.062222h52.337778c-10.24-11.377778-21.617778-21.617778-35.271111-31.857778l20.48-19.342222c15.928889 12.515556 29.582222 23.893333 39.822222 36.408889l-15.928889 15.928889h40.96V432.355556h-101.262222c4.551111 39.822222 7.964444 71.68 13.653333 93.297777z" fill="#FFFFFF" p-id="35875"></path></svg>