<?xml version="1.0" standalone="no"?><!DOCTYPE svg PUBLIC "-//W3C//DTD SVG 1.1//EN" "http://www.w3.org/Graphics/SVG/1.1/DTD/svg11.dtd"><svg t="1572447314758" class="icon" viewBox="0 0 1032 1024" version="1.1" xmlns="http://www.w3.org/2000/svg" p-id="14663" xmlns:xlink="http://www.w3.org/1999/xlink" width="120.9375" height="120"><defs><style type="text/css"></style></defs><path d="M1024.077 512.01c0 282.751-229.24 511.99-512.01 511.99S0.07 794.761 0.07 512.01C0.07 229.233 229.303 0 512.074 0s512.003 229.233 512.003 512.01zM351.276 408.33H237.028v38.082h57.124V668.65c0 14.25-8.144 26.322-15.272 36.223-9.901 11.87-29.114 22.767-58.4 32.662l20.362 46.315c16.617-3.98 33.945-12.288 51.755-24.944 17.004-12.282 28.752-24.15 35.086-35.62 12.263 14.25 31.47 26.512 57.607 36.807 27.711 9.883 66.715 16.027 116.984 18.413 83.515 0 172.394 0.184 266.591 0.578l10.708-55.798c-71.253 3.567-154.578 6.131-249.981 7.706-45.522 1.2-80.152-1.575-103.909-8.309-25.331-6.334-41.948-15.64-53.836-27.902-12.263-11.082-20.571-21.58-20.571-31.482V408.33z m-99.555-145.8c19.39 20.183 41.758 50.269 67.09 90.243l43.35-30.282c-23.738-38.381-46.727-69.26-68.892-92.617l-41.548 32.656z m478.224 295.68c15.417-52.237 27.546-114.19 27.546-185.843v-40.203h19.042V294.08H647.159c1.575-19.041 2.362-41.097 2.362-63.274l-49.273-3.44c0.393 40.773-3.13 79.135-10.25 115.549-5.155 29.685-10.226 60.73-29.267 93.582V275.04h-64.398c2.399-19.042 4.164-25.846 5.363-35.347l-51.075-9.051c-1.574 11.1-4.532 25.356-8.886 44.398h-52.377v171.372h63.06c1.16 0 2.36 19.041 3.56 19.041h-85.66v57.124h54.184c-1.18 19.042-4.557 48.581-10.104 66.81-8.702 25.306-25.522 48.74-50.453 70.491l43.928 34.383c25.331-26.519 43.141-55.296 53.436-86.962 0.394-2.748 0.978-8.556 1.803-8.556h59.536v8.162c0 23.751-2.07 38.4-7.217 43.929-2.78 2.78-6.264 4.367-11.025 4.766-11.1 0-22.037-2.285-33.138-4.652l13.215 49.349h24.34c17.005 0 25.751-2.666 36.04-10.168 13.462-11.095 15.868-32.167 15.868-65.42v-83.09h-90.498c0.375 0 0.787-19.042 1.162-19.042h108.377v-57.124h-73.335c-1.18 0-2.38-19.041-3.56-19.041h57.854v-3.383l38.749 33.246c14.25-27.692 26.417-66.207 36.324-108.56 2.355-9.902 4.418-16.51 6.011-35.551h58.552v40.203c0 42.754-2.843 82.34-9.971 118.754-12.282-21.77-23.992-41.758-35.868-59.974l-39.009 25.528c18.204 27.712 37.499 62.158 57.695 103.312-19.016 47.908-47.857 85.915-86.65 114.001l51.087 32.662c25.313-21.77 46.518-50.066 63.541-84.905a1884.32 1884.32 0 0 1 32.663 78.958l48.51-17.816c-17.835-45.496-33.817-87.064-52.42-124.677zM427.44 332.164v-19.042h76.166v19.042H427.44z m76.166 38.083v38.082H427.44v-38.082h76.166z" fill="#47AE69" p-id="14664"></path></svg>