<?xml version="1.0" standalone="no"?><!DOCTYPE svg PUBLIC "-//W3C//DTD SVG 1.1//EN" "http://www.w3.org/Graphics/SVG/1.1/DTD/svg11.dtd"><svg t="1561042512516" class="icon" viewBox="0 0 1024 1024" version="1.1" xmlns="http://www.w3.org/2000/svg" p-id="6743" xmlns:xlink="http://www.w3.org/1999/xlink" width="120" height="120"><defs><style type="text/css"></style></defs><path d="M772.096 361.472l-599.04 296.96C160.768 664.576 154.624 670.72 154.624 681.984c0 12.288 4.096 17.408 12.288 23.552l143.36 89.088c12.288 6.144 23.552 6.144 35.84-6.144l317.44-284.672 12.288 6.144-287.744 303.104c-6.144 6.144-6.144 12.288-6.144 17.408v131.072c0 12.288 6.144 23.552 18.432 29.696 12.288 6.144 23.552 0 29.696-6.144l71.68-71.68 143.36 95.232c9.216 6.144 21.504 10.24 29.696 6.144s13.312-6.144 18.432-23.552l119.808-593.92c3.072-15.36 0-30.72-8.192-35.84s-20.48-6.144-32.768 0z" fill="#F8F0B1" p-id="6744"></path><path d="M698.368 263.168l-599.04 296.96c-12.288 7.168-17.408 12.288-17.408 24.576s4.096 17.408 12.288 23.552l143.36 89.088c12.288 6.144 23.552 6.144 35.84-6.144l317.44-284.672 12.288 6.144-287.744 302.08c-6.144 6.144-6.144 12.288-6.144 17.408v131.072c0 12.288 6.144 23.552 18.432 29.696s23.552 0 29.696-6.144l71.68-71.68 143.36 95.232c9.216 6.144 21.504 10.24 29.696 6.144 8.192-4.096 13.312-6.144 18.432-23.552l119.808-593.92c3.072-15.36 0-30.72-8.192-35.84-8.192-4.096-20.48-5.12-33.792 0z" fill="#7BD7F8" p-id="6745"></path><path d="M276.48 695.296c-12.288 12.288-26.624 14.336-41.984 6.144l-144.384-90.112c-10.24-9.216-13.312-15.36-13.312-27.648 0-13.312 6.144-20.48 20.48-28.672l599.04-296.96c13.312-6.144 27.648-6.144 38.912 0 10.24 6.144 13.312 22.528 10.24 40.96l-119.808 593.92c-4.096 15.36-8.192 20.48-17.408 25.6-1.024 0-1.024 1.024-3.072 1.024-9.216 5.12-22.528 1.024-34.816-6.144L430.08 822.272 360.448 890.88c-9.216 9.216-23.552 13.312-35.84 7.168-13.312-6.144-20.48-19.456-20.48-33.792V733.184c0-6.144 0-10.24 2.048-14.336 1.024-3.072 3.072-5.12 5.12-7.168L593.92 413.696l-3.072-1.024L276.48 695.296zM101.376 565.248c-12.288 6.144-15.36 10.24-15.36 19.456 0 9.216 2.048 12.288 9.216 19.456l143.36 89.088c11.264 5.12 20.48 4.096 30.72-5.12l319.488-287.744 21.504 10.24-5.12 5.12-286.72 303.104c-1.024 1.024-2.048 3.072-3.072 4.096-1.024 2.048-1.024 4.096-1.024 10.24v131.072c0 10.24 5.12 20.48 15.36 25.6 8.192 4.096 17.408 1.024 24.576-5.12l74.752-73.728 3.072 2.048 143.36 95.232c9.216 6.144 19.456 8.192 24.576 6.144 1.024-1.024 2.048-1.024 3.072-1.024 7.168-3.072 9.216-7.168 12.288-18.432l119.808-593.92c2.048-14.336 0-27.648-5.12-30.72-8.192-4.096-18.432-5.12-29.696 0L101.376 565.248z" fill="#424347" p-id="6746"></path><path d="M179.2 158.72h12.288v55.296h55.296v12.288H191.488v55.296H179.2v-55.296H122.88v-12.288h55.296v-55.296z m647.168 268.288H839.68v55.296h55.296v12.288H839.68v55.296h-12.288v-55.296h-55.296v-12.288h55.296v-55.296zM327.68 69.632h8.192v36.864h36.864v8.192h-36.864v36.864H327.68v-36.864h-36.864v-8.192H327.68v-36.864zM101.376 728.064h8.192v36.864h36.864v8.192h-36.864v36.864h-8.192v-36.864h-36.864v-8.192h36.864v-36.864zM945.152 337.92h8.192v36.864h36.864v8.192h-36.864V419.84h-8.192v-36.864h-36.864v-8.192h36.864V337.92zM77.824 8.192h8.192v36.864H122.88v8.192h-36.864v36.864h-8.192v-36.864H40.96v-8.192h36.864v-36.864z" fill="#424246" p-id="6747"></path></svg>