<?xml version="1.0" standalone="no"?><!DOCTYPE svg PUBLIC "-//W3C//DTD SVG 1.1//EN" "http://www.w3.org/Graphics/SVG/1.1/DTD/svg11.dtd"><svg t="1557935806909" class="icon" style="" viewBox="0 0 1024 1024" version="1.1" xmlns="http://www.w3.org/2000/svg" p-id="27981" xmlns:xlink="http://www.w3.org/1999/xlink" width="200" height="200"><defs><style type="text/css"></style></defs><path d="M341.2992 1024h401.8176c51.4048 0 111.8208-33.5872 132.8128-75.5712 20.48-37.376 72.9088-151.1424 145.92-453.4272 9.728-40.0384-13.312-132.7104-73.0112-151.1424-37.888-10.752-161.1776 3.7888-291.84 0 6.144-30.72 7.4752-61.0304 7.4752-110.2848C664.576 115.9168 640.512 0 570.368 0c-49.664 0-90.624 43.7248-91.3408 97.5872-0.4096 37.888-74.24 163.84-137.6256 230.6048V1024zM256 1024H73.0112C28.3648 1024 0 992.256 0 948.4288v-495.616c0-43.7248 28.3648-79.36 73.0112-79.36h130.4576s11.3664 0 52.5312-1.7408V1024z" p-id="27982" fill="#ea9518"></path></svg>