<?xml version="1.0" standalone="no"?><!DOCTYPE svg PUBLIC "-//W3C//DTD SVG 1.1//EN" "http://www.w3.org/Graphics/SVG/1.1/DTD/svg11.dtd"><svg t="1557935786267" class="icon" style="" viewBox="0 0 1024 1024" version="1.1" xmlns="http://www.w3.org/2000/svg" p-id="27808" xmlns:xlink="http://www.w3.org/1999/xlink" width="200" height="200"><defs><style type="text/css"></style></defs><path d="M161.745455 466.618182c16.290909 0 29.090909-12.8 29.090909-29.090909s-12.8-29.090909-29.090909-29.090909h-69.818182-5.818182c-22.109091 0-38.4 18.618182-38.4 41.890909v496.872727c0 22.109091 18.618182 41.890909 38.4 41.890909h73.309091c16.290909 0 25.6-12.8 25.6-29.090909S172.218182 930.909091 159.418182 930.909091h-58.181818l5.818181-465.454546h54.69091zM984.436364 424.727273c-22.109091-34.909091-54.690909-51.2-89.6-51.2H659.781818c16.290909-44.218182 25.6-98.909091 25.6-150.109091 0-31.418182-3.490909-64-9.309091-95.418182-12.8-54.690909-57.018182-91.927273-111.709091-91.927273-64 0-104.727273 54.690909-104.727272 121.018182v9.309091c-4.654545 124.509091-103.563636 226.909091-221.090909 239.709091V989.090909h580.654545c22.109091 0 34.909091-5.818182 54.690909-18.618182 18.618182-12.8 31.418182-29.090909 41.890909-47.709091 3.490909-3.490909 3.490909-9.309091 5.818182-12.8L1000.727273 510.836364v-12.8c3.490909-25.6-3.490909-51.2-16.290909-73.309091z m-38.4 60.509091l-91.927273 423.563636c-3.490909 5.818182-5.818182 12.8-12.8 18.618182-3.490909 3.490909-9.309091 5.818182-16.290909 5.818182H286.254545V466.618182c98.909091-47.709091 172.218182-91.927273 210.618182-201.309091 3.490909-9.309091 5.818182-22.109091 9.309091-38.4 5.818182-34.909091 5.818182-67.490909 5.818182-67.490909-5.818182-44.218182 29.090909-60.509091 51.2-60.509091 29.090909 0 57.018182 38.4 57.018182 60.509091 0 0 5.818182 31.418182 5.818182 67.490909 0 41.890909-5.818182 67.490909-5.818182 67.490909-5.818182 34.909091-18.618182 69.818182-34.909091 98.909091-3.490909 5.818182-3.490909 12.8-3.490909 18.618182 0 22.109091 22.109091 25.6 44.218182 25.6h283.927272c12.8 0 25.6 5.818182 34.909091 18.618182 4.654545 3.490909 4.654545 16.290909 1.163637 29.090909z" p-id="27809" fill="#8a8a8a"></path></svg>