<?xml version="1.0" standalone="no"?><!DOCTYPE svg PUBLIC "-//W3C//DTD SVG 1.1//EN" "http://www.w3.org/Graphics/SVG/1.1/DTD/svg11.dtd"><svg t="1555419700336" class="icon" style="" viewBox="0 0 1024 1024" version="1.1" xmlns="http://www.w3.org/2000/svg" p-id="3791" xmlns:xlink="http://www.w3.org/1999/xlink" width="200" height="200"><defs><style type="text/css"></style></defs><path d="M848.534 465.281c-18.671 0-36.816 3.088-54.001 9.117v-47.652c0-29.215-23.769-53.011-52.981-53.011h-161.655c-7.34-13.137-13.456-37.486 10.835-70.313 72.556-98.043 28.224-186.734-5.33-219.968-11.475-11.301-29.885-11.214-41.215 0.204-11.301 11.447-11.214 29.885 0.204 41.215 21.175 20.942 48.293 77.945-0.525 143.888-28.224 38.127-32.768 74.886-25.69 104.974h-117.586c-2.418-9.582-2.127-23.244 8.738-39.934 54.41-83.303 18.991-153.966-7.34-179.684-11.475-11.214-29.942-11.010-41.185 0.495-11.244 11.505-11.010 29.942 0.495 41.185 0.407 0.407 41.39 41.652-0.729 106.198-17.738 27.175-21.002 51.846-18.817 71.769h-116.421c0.437-2.622 1.195-5.273 2.709-7.835 33.554-56.682 14.127-110.916-2.651-134.043-9.379-12.903-27.292-15.729-40.311-6.466-13.020 9.233-16.049 27.409-6.932 40.516 2.301 3.292 21.729 33.263-0.204 70.313-6.729 11.36-10.37 24.176-11.039 37.486h-102.527c-29.215 0-53.011 23.769-53.011 53.011v130.547c0 215.948 175.666 391.614 391.584 391.614 140.451 0 268.989-75.294 338.603-195.152 29.389 25.398 67.079 39.759 106.955 39.759 90.498 0 164.131-73.604 164.131-164.101s-73.604-164.131-164.101-164.131zM848.534 735.289c-36.030 0-69.293-18.234-88.983-48.758-5.796-8.999-16.135-14.214-26.797-13.253-10.689 0.844-20.039 7.515-24.351 17.33-53.273 121.518-173.161 200.045-305.456 200.045-183.792 0-333.33-149.538-333.33-333.33v-125.305h666.661v91.226c0 11.156 6.35 21.321 16.399 26.185s21.962 3.641 30.73-3.292c18.875-14.797 41.39-22.631 65.129-22.631 58.37 0 105.877 47.477 105.877 105.877-0.030 58.4-47.507 105.906-105.877 105.906zM848.534 563.963c-36.089 0-65.478 29.36-65.478 65.478s29.36 65.478 65.478 65.478c36.117 0 65.478-29.36 65.478-65.478 0-36.117-29.389-65.478-65.478-65.478zM848.534 665.761c-20.039 0-36.351-16.311-36.351-36.351s16.311-36.351 36.351-36.351 36.351 16.311 36.351 36.351-16.311 36.351-36.351 36.351z" p-id="3792" fill="#1296db"></path></svg>