<?xml version="1.0" standalone="no"?><!DOCTYPE svg PUBLIC "-//W3C//DTD SVG 1.1//EN" "http://www.w3.org/Graphics/SVG/1.1/DTD/svg11.dtd"><svg t="1555419813120" class="icon" style="" viewBox="0 0 1105 1024" version="1.1" xmlns="http://www.w3.org/2000/svg" p-id="3956" xmlns:xlink="http://www.w3.org/1999/xlink" width="215.8203125" height="200"><defs><style type="text/css"></style></defs><path d="M881.326829 151.102439c-91.785366-84.292683-214.165854-130.809756-343.726829-130.809756S285.346341 66.809756 193.560976 151.102439C148.604878 192.312195 113.326829 240.390244 88.663415 294.087805 63.063415 349.658537 49.95122 408.97561 49.95122 469.853659c0 106.458537 40.897561 209.170732 114.887804 290.029268-1.560976 3.746341-89.912195 204.17561-89.912195 204.17561s303.141463-68.995122 304.702439-68.682927c50.57561 15.921951 103.64878 24.039024 157.658537 24.039024 129.873171 0 251.941463-46.517073 343.726829-130.809756 44.956098-41.209756 80.234146-89.287805 104.897561-142.985366 25.6-55.570732 38.712195-114.887805 38.712195-175.765853S1011.512195 349.658537 985.912195 294.087805C961.560976 240.390244 925.970732 192.312195 881.326829 151.102439z" fill="#FF8E7F" p-id="3957"></path><path d="M42.770732 990.595122l14.985366-34.029268c29.346341-66.185366 71.492683-161.404878 85.229268-192.936586C70.868293 680.585366 31.219512 576.936585 31.219512 469.853659c0-63.687805 13.736585-125.502439 40.273171-183.570732 25.6-55.882927 62.439024-105.834146 109.268293-148.917073C276.292683 49.95122 403.043902 1.560976 537.287805 1.560976 671.843902 1.560976 798.282927 49.95122 893.814634 137.365854c46.829268 43.082927 83.668293 93.034146 109.268293 148.917073 26.84878 58.068293 40.273171 119.882927 40.273171 183.570732s-13.736585 125.502439-40.273171 183.570731c-25.6 55.882927-62.439024 105.834146-109.268293 148.917073-95.531707 87.726829-221.970732 135.804878-356.526829 135.804878-54.321951 0-107.707317-7.804878-158.595122-23.414634-28.097561 5.931707-190.126829 42.770732-299.707317 67.434147l-36.214634 8.429268zM537.287805 39.02439C412.097561 39.02439 294.712195 83.668293 206.04878 165.15122 162.965854 204.487805 129.24878 250.692683 105.521951 301.892683 81.170732 354.965854 68.682927 411.473171 68.682927 469.853659c0 101.463415 39.02439 199.804878 109.892683 277.229268l7.804878 8.429268-3.746342 10.614634c-1.24878 3.434146-42.770732 97.404878-75.551219 171.395122 271.609756-61.814634 271.609756-61.502439 277.229268-60.253658 49.639024 15.609756 100.839024 23.414634 152.97561 23.414634 125.190244 0 242.57561-44.643902 331.239024-126.126829 43.082927-39.64878 76.8-85.541463 100.52683-137.053659 24.663415-53.073171 36.839024-109.580488 36.839024-167.960976 0-58.380488-12.487805-114.887805-36.839024-167.960975-23.726829-51.2-57.443902-97.404878-100.52683-137.053659-88.35122-80.858537-206.04878-125.502439-331.239024-125.502439z" fill="#453C35" p-id="3958"></path><path d="M207.609756 324.370732a61.190244 60.878049 0 1 0 122.380488 0 61.190244 60.878049 0 1 0-122.380488 0Z" fill="#FFD6D6" p-id="3959"></path><path d="M268.8 403.980488c-44.019512 0-79.921951-35.590244-79.921951-79.609756S224.780488 245.073171 268.8 245.073171c44.019512 0 79.921951 35.590244 79.921951 79.609756s-35.902439 79.297561-79.921951 79.297561z m0-121.756098c-23.414634 0-42.458537 19.043902-42.458537 42.146342s19.043902 42.146341 42.458537 42.146341 42.458537-19.043902 42.458537-42.146341-19.043902-42.146341-42.458537-42.146342z" fill="#222222" p-id="3960"></path><path d="M538.536585 707.121951a263.492683 261.619512 0 1 0 526.985366 0 263.492683 261.619512 0 1 0-526.985366 0Z" fill="#FFFFFF" p-id="3961"></path><path d="M802.029268 1006.204878c-166.087805 0-300.956098-134.243902-300.956097-299.082927s135.180488-299.082927 300.956097-299.082927c166.087805 0 300.956098 134.243902 300.956098 299.082927s-135.180488 299.082927-300.956098 299.082927z m0-560.702439c-145.482927 0-263.492683 117.385366-263.492683 261.619512 0 144.234146 118.321951 261.619512 263.492683 261.619512s263.492683-117.385366 263.492683-261.619512c0-144.234146-118.321951-261.619512-263.492683-261.619512z" fill="#222222" p-id="3962"></path><path d="M802.029268 968.741463c145.482927 0 263.492683-117.073171 263.492683-261.619512 0-42.770732-10.302439-83.356098-28.721951-118.946341-32.468293 264.117073-216.97561 351.219512-375.882927 340.292683 40.897561 25.6 89.287805 40.273171 141.112195 40.27317z" fill="#FFD6D6" p-id="3963"></path><path d="M943.553561 644.164683h-263.804878c-10.302439 0-18.731707-8.429268-18.731707-18.731707s8.429268-18.731707 18.731707-18.731708h263.804878c10.302439 0 18.731707 8.429268 18.731707 18.731708s-8.429268 18.731707-18.731707 18.731707zM943.553561 807.754927h-263.804878c-10.302439 0-18.731707-8.429268-18.731707-18.731707s8.429268-18.731707 18.731707-18.731708h263.804878c10.302439 0 18.731707 8.429268 18.731707 18.731708s-8.429268 18.731707-18.731707 18.731707z" fill="#222222" p-id="3964"></path><path d="M900.11161 851.028293c-10.302439 0-18.731707-8.429268-18.731708-18.731708v-263.492683c0-10.302439 8.429268-18.731707 18.731708-18.731707s18.731707 8.429268 18.731707 18.731707v263.492683c0 10.302439-8.429268 18.731707-18.731707 18.731708zM736.521366 851.028293c-10.302439 0-18.731707-8.429268-18.731707-18.731708v-263.492683c0-10.302439 8.429268-18.731707 18.731707-18.731707s18.731707 8.429268 18.731707 18.731707v263.492683c0 10.302439-8.117073 18.731707-18.731707 18.731708z" fill="#222222" p-id="3965"></path></svg>