<?xml version="1.0" standalone="no"?><!DOCTYPE svg PUBLIC "-//W3C//DTD SVG 1.1//EN" "http://www.w3.org/Graphics/SVG/1.1/DTD/svg11.dtd"><svg t="1555420116550" class="icon" style="" viewBox="0 0 1202 1024" version="1.1" xmlns="http://www.w3.org/2000/svg" p-id="7666" xmlns:xlink="http://www.w3.org/1999/xlink" width="234.765625" height="200"><defs><style type="text/css"></style></defs><path d="M131.529851 159.39247c-22.747013 10.124123-41.285938 24.456334-56.374643 42.274461l7.978204 24.220187-22.313161-4.687247c-16.034667 25.330902-26.9551 55.785648-33.942036 89.963831l35.65273 4.964582L22.510866 336.413601c-3.256634 22.47105-5.119725 46.298573-5.916036 71.06794 53.912946-25.487418 96.948021-42.319768 132.004891-57.523801l8.854146-39.502478 12.226107 30.051099c34.938797-16.316121 61.06189-32.552612 82.302778-58.038657l-11.358404-56.021796 30.454746 28.190754c6.706854-11.716744 12.900225-25.015124 18.816261-40.422353 62.448568 126.135536 13.38213 401.415853-37.952419 527.507455-64.157889 4.729808-134.94712-3.297823-232.569259-37.913976 239.196482 397.881884 798.461611 75.833444 1170.584233 134.948493 0 0-110.13382-85.004741-269.056741-133.99704L920.901169 490.851099l53.912946 0 11.122257-25.64668c-175.011134-180.718481-108.147163-111.681133-236.221302-243.92629l-99.091194 102.317623 0-36.811498 12.536394 0 0-31.47622-88.327277 0 0 31.47622 13.850306 0 0 100.768937-76.345554 78.805878 12.625636 24.490658 53.525775 0 0 188.342465c-82.147635 9.804226-144.674461 26.522621-201.88523 40.416862 27.034731-140.625636 37.000965-341.743387-7.186013-458.232586 11.790883 10.964368 23.901663 18.825872 35.213386 21.439966l12.346927-24.726805 4.963209 34.179556c28.820937 15.205406 64.278709 32.236834 108.461568 57.409847 0.952826-21.124187 0.913011-41.454811-0.398155-60.741993l-32.753062-19.855583 30.651078-1.907026c-3.727556-29.490936-10.997318-56.053373-23.028467-78.647989l-19.250113 2.50975 8.336544-20.049169c-11.078322-15.372906-25.054939-28.189381-42.443334-38.077357 29.459359-11.394101 64.356967-26.047581 109.937488-41.767843-15.246594-14.645243-30.576939-28.023254-45.977303-39.818256l-36.484737 11.550617 18.773699-24.288834c-24.611477-16.674461-49.42615-28.749544-74.27652-34.58183l-10.842175 16.115671-9.56396-19.490379c-45.776853-4.372841-91.789853 13.814609-137.802853 64.47504-32.556731-28.749544-66.340877-40.6585-100.841703-39.863563l-10.957503 18.738003-9.609267-16.83235C118.628253 31.194766 93.017269 41.432844 67.295077 56.288148l16.947678 25.565676L48.675147 67.759133C32.474354 78.356924 16.237863 90.62422 0 104.124423c46.729679 20.014845 81.743988 37.989488 111.284351 51.73545l30.213107-16.682699L131.529851 159.39247 131.529851 159.39247zM816.050456 635.92097l-136.29261 0L679.757846 492.554929l136.29261 0L816.050456 635.92097 816.050456 635.92097zM1201.555208 974.096063c-218.990797-37.559755-532.584619 133.07991-720.457535-4.920648 187.347077-9.93191 394.080189-70.473453 576.38168-79.164218C1144.223619 926.294111 1201.555208 974.096063 1201.555208 974.096063L1201.555208 974.096063zM935.122171 776.858265c-72.019393 8.580929-143.445672 21.195581-210.536179 32.236834-149.873817 24.616969-356.001459 60.77769-499.720348-2.062169-0.157889-0.078258-0.35834-0.155143-0.554671-0.241639 131.568293-1.989403 228.876027-54.791634 407.848118-68.368723 21.639043-1.662641 43.313783-2.614094 64.945962-3.052065C777.947013 733.703743 858.736801 749.701341 935.122171 776.858265z" p-id="7667" fill="#1296db"></path></svg>