<?xml version="1.0" standalone="no"?><!DOCTYPE svg PUBLIC "-//W3C//DTD SVG 1.1//EN" "http://www.w3.org/Graphics/SVG/1.1/DTD/svg11.dtd"><svg t="1558323306670" class="icon" style="" viewBox="0 0 1024 1024" version="1.1" xmlns="http://www.w3.org/2000/svg" p-id="27022" xmlns:xlink="http://www.w3.org/1999/xlink" width="256" height="256"><defs><style type="text/css"></style></defs><path d="M545.28 788.992V585.728h-52.224v203.264h52.224z m0-660.992h-52.224v70.656h52.224V128z m246.784 360.96l-128-74.752H337.408c-41.472 0-74.752 33.28-74.752 74.752s33.28 74.752 74.752 74.752H663.04l129.024-74.752z m4.096-108.544c44.032 0 79.872-35.84 79.872-79.872s-35.84-79.872-79.872-79.872h-499.2l-128 79.872 129.536 79.872H796.16z" fill="#08af7a" p-id="27023"></path><path d="M631.808 659.968h-1.024c-12.288 0-22.016 9.728-22.016 22.016 0 11.776 8.704 20.992 19.968 22.016 91.648 12.8 164.352 39.424 164.352 70.656 0 43.52-142.848 78.848-280.576 78.848s-280.576-35.328-280.576-78.848c0-30.72 71.168-57.344 161.792-70.144 11.264-1.024 19.968-10.752 19.968-22.016 0-12.288-9.728-22.016-22.016-22.016h-2.048c-152.576 5.12-261.12 61.44-261.12 114.688 0 67.072 172.032 121.344 384 121.344s384-54.272 384-121.344c-0.512-54.272-111.616-99.328-264.704-115.2z" fill="#08af7a" p-id="27024"></path></svg>